<svg xmlns:xlink="http://www.w3.org/1999/xlink" width="1152" height="1728" viewBox="0 0 864 1296" xmlns="http://www.w3.org/2000/svg"><defs><style>*{stroke-linejoin:round;stroke-linecap:butt}</style></defs><g id="prefix__figure_1"><path d="M0 1296h864V0H0z" fill="#fff" id="prefix__patch_1"/><g id="prefix__axes_1"><path d="M108 393.12h669.6v-237.6H108z" fill="#fff" id="prefix__patch_2"/><g id="prefix__matplotlib_axis_1"><g id="prefix__xtick_1"><path d="M138.436 393.12v-237.6" clip-path="url(#prefix__p81d0c12974)" fill="none" stroke-dasharray="3.7 1.6" stroke="gray" stroke-opacity=".7" id="prefix__line2d_1"/><g id="prefix__line2d_2"><defs><path id="prefix__m2ceacb81f5" d="M0 0v3.5" stroke="#000" stroke-width=".8"/></defs><use xlink:href="#prefix__m2ceacb81f5" x="138.436" y="393.12" stroke="#000" stroke-width=".8"/></g><g transform="matrix(.1 0 0 -.1 130.485 407.718)" id="prefix__text_1"><defs><path id="prefix__DejaVuSans-30" d="M2034 4250q-487 0-733-480-245-479-245-1442 0-959 245-1439 246-480 733-480 491 0 736 480 246 480 246 1439 0 963-246 1442-245 480-736 480zm0 500q785 0 1199-621 414-620 414-1801 0-1178-414-1799Q2819-91 2034-91q-784 0-1198 620-414 621-414 1799 0 1181 414 1801 414 621 1198 621z" transform="scale(.01563)"/><path id="prefix__DejaVuSans-2e" d="M684 794h660V0H684v794z" transform="scale(.01563)"/></defs><use xlink:href="#prefix__DejaVuSans-30"/><use xlink:href="#prefix__DejaVuSans-2e" x="63.623"/><use xlink:href="#prefix__DejaVuSans-30" x="95.41"/></g></g><g id="prefix__xtick_2"><path d="M219.708 393.12v-237.6" clip-path="url(#prefix__p81d0c12974)" fill="none" stroke-dasharray="3.7 1.6" stroke="gray" stroke-opacity=".7" id="prefix__line2d_3"/><use xlink:href="#prefix__m2ceacb81f5" x="219.708" y="393.12" stroke="#000" stroke-width=".8" id="prefix__line2d_4"/><g transform="matrix(.1 0 0 -.1 211.757 407.718)" id="prefix__text_2"><defs><path id="prefix__DejaVuSans-32" d="M1228 531h2203V0H469v531q359 372 979 998 621 627 780 809 303 340 423 576 121 236 121 464 0 372-261 606-261 235-680 235-297 0-627-103-329-103-704-313v638q381 153 712 231 332 78 607 78 725 0 1156-363 431-362 431-968 0-288-108-546-107-257-392-607-78-91-497-524-418-433-1181-1211z" transform="scale(.01563)"/></defs><use xlink:href="#prefix__DejaVuSans-30"/><use xlink:href="#prefix__DejaVuSans-2e" x="63.623"/><use xlink:href="#prefix__DejaVuSans-32" x="95.41"/></g></g><g id="prefix__xtick_3"><path d="M300.98 393.12v-237.6" clip-path="url(#prefix__p81d0c12974)" fill="none" stroke-dasharray="3.7 1.6" stroke="gray" stroke-opacity=".7" id="prefix__line2d_5"/><use xlink:href="#prefix__m2ceacb81f5" x="300.98" y="393.12" stroke="#000" stroke-width=".8" id="prefix__line2d_6"/><g transform="matrix(.1 0 0 -.1 293.029 407.718)" id="prefix__text_3"><defs><path id="prefix__DejaVuSans-34" d="M2419 4116L825 1625h1594v2491zm-166 550h794V1625h666v-525h-666V0h-628v1100H313v609l1940 2957z" transform="scale(.01563)"/></defs><use xlink:href="#prefix__DejaVuSans-30"/><use xlink:href="#prefix__DejaVuSans-2e" x="63.623"/><use xlink:href="#prefix__DejaVuSans-34" x="95.41"/></g></g><g id="prefix__xtick_4"><path d="M382.252 393.12v-237.6" clip-path="url(#prefix__p81d0c12974)" fill="none" stroke-dasharray="3.7 1.6" stroke="gray" stroke-opacity=".7" id="prefix__line2d_7"/><use xlink:href="#prefix__m2ceacb81f5" x="382.252" y="393.12" stroke="#000" stroke-width=".8" id="prefix__line2d_8"/><g transform="matrix(.1 0 0 -.1 374.3 407.718)" id="prefix__text_4"><defs><path id="prefix__DejaVuSans-36" d="M2113 2584q-425 0-674-291-248-290-248-796 0-503 248-796 249-292 674-292t673 292q248 293 248 796 0 506-248 796-248 291-673 291zm1253 1979v-575q-238 112-480 171-242 60-480 60-625 0-955-422-329-422-376-1275 184 272 462 417 279 145 613 145 703 0 1111-427 408-426 408-1160 0-719-425-1154Q2819-91 2113-91q-810 0-1238 620-428 621-428 1799 0 1106 525 1764t1409 658q238 0 480-47t505-140z" transform="scale(.01563)"/></defs><use xlink:href="#prefix__DejaVuSans-30"/><use xlink:href="#prefix__DejaVuSans-2e" x="63.623"/><use xlink:href="#prefix__DejaVuSans-36" x="95.41"/></g></g><g id="prefix__xtick_5"><path d="M463.524 393.12v-237.6" clip-path="url(#prefix__p81d0c12974)" fill="none" stroke-dasharray="3.7 1.6" stroke="gray" stroke-opacity=".7" id="prefix__line2d_9"/><use xlink:href="#prefix__m2ceacb81f5" x="463.524" y="393.12" stroke="#000" stroke-width=".8" id="prefix__line2d_10"/><g transform="matrix(.1 0 0 -.1 455.573 407.718)" id="prefix__text_5"><defs><path id="prefix__DejaVuSans-38" d="M2034 2216q-450 0-708-241-257-241-257-662 0-422 257-663 258-241 708-241t709 242q260 243 260 662 0 421-258 662-257 241-711 241zm-631 268q-406 100-633 378-226 279-226 679 0 559 398 884 399 325 1092 325 697 0 1094-325t397-884q0-400-227-679-226-278-629-378 456-106 710-416 255-309 255-755 0-679-414-1042Q2806-91 2034-91q-771 0-1186 362-414 363-414 1042 0 446 256 755 257 310 713 416zm-231 997q0-362 226-565 227-203 636-203 407 0 636 203 230 203 230 565 0 363-230 566-229 203-636 203-409 0-636-203-226-203-226-566z" transform="scale(.01563)"/></defs><use xlink:href="#prefix__DejaVuSans-30"/><use xlink:href="#prefix__DejaVuSans-2e" x="63.623"/><use xlink:href="#prefix__DejaVuSans-38" x="95.41"/></g></g><g id="prefix__xtick_6"><path d="M544.796 393.12v-237.6" clip-path="url(#prefix__p81d0c12974)" fill="none" stroke-dasharray="3.7 1.6" stroke="gray" stroke-opacity=".7" id="prefix__line2d_11"/><use xlink:href="#prefix__m2ceacb81f5" x="544.796" y="393.12" stroke="#000" stroke-width=".8" id="prefix__line2d_12"/><g transform="matrix(.1 0 0 -.1 536.845 407.718)" id="prefix__text_6"><defs><path id="prefix__DejaVuSans-31" d="M794 531h1031v3560L703 3866v575l1116 225h631V531h1031V0H794v531z" transform="scale(.01563)"/></defs><use xlink:href="#prefix__DejaVuSans-31"/><use xlink:href="#prefix__DejaVuSans-2e" x="63.623"/><use xlink:href="#prefix__DejaVuSans-30" x="95.41"/></g></g><g id="prefix__xtick_7"><path d="M626.068 393.12v-237.6" clip-path="url(#prefix__p81d0c12974)" fill="none" stroke-dasharray="3.7 1.6" stroke="gray" stroke-opacity=".7" id="prefix__line2d_13"/><use xlink:href="#prefix__m2ceacb81f5" x="626.068" y="393.12" stroke="#000" stroke-width=".8" id="prefix__line2d_14"/><g transform="matrix(.1 0 0 -.1 618.117 407.718)" id="prefix__text_7"><use xlink:href="#prefix__DejaVuSans-31"/><use xlink:href="#prefix__DejaVuSans-2e" x="63.623"/><use xlink:href="#prefix__DejaVuSans-32" x="95.41"/></g></g><g id="prefix__xtick_8"><path d="M707.34 393.12v-237.6" clip-path="url(#prefix__p81d0c12974)" fill="none" stroke-dasharray="3.7 1.6" stroke="gray" stroke-opacity=".7" id="prefix__line2d_15"/><use xlink:href="#prefix__m2ceacb81f5" x="707.34" y="393.12" stroke="#000" stroke-width=".8" id="prefix__line2d_16"/><g transform="matrix(.1 0 0 -.1 699.389 407.718)" id="prefix__text_8"><use xlink:href="#prefix__DejaVuSans-31"/><use xlink:href="#prefix__DejaVuSans-2e" x="63.623"/><use xlink:href="#prefix__DejaVuSans-34" x="95.41"/></g></g><g transform="matrix(.1 0 0 -.1 422.471 421.397)" id="prefix__text_9"><defs><path id="prefix__DejaVuSans-54" d="M-19 4666h3947v-532H2272V0h-634v4134H-19v532z" transform="scale(.01563)"/><path id="prefix__DejaVuSans-69" d="M603 3500h575V0H603v3500zm0 1363h575v-729H603v729z" transform="scale(.01563)"/><path id="prefix__DejaVuSans-6d" d="M3328 2828q216 388 516 572t706 184q547 0 844-383 297-382 297-1088V0h-578v2094q0 503-179 746-178 244-543 244-447 0-707-297-259-296-259-809V0h-578v2094q0 506-178 748t-550 242q-441 0-701-298-259-298-259-808V0H581v3500h578v-544q197 322 472 475t653 153q382 0 649-194 267-193 395-562z" transform="scale(.01563)"/><path id="prefix__DejaVuSans-65" d="M3597 1894v-281H953q38-594 358-905t892-311q331 0 642 81t618 244V178Q3153 47 2828-22t-659-69q-838 0-1327 487-489 488-489 1320 0 859 464 1363 464 505 1252 505 706 0 1117-455 411-454 411-1235zm-575 169q-6 471-264 752-258 282-683 282-481 0-770-272t-333-766l2050 4z" transform="scale(.01563)"/><path id="prefix__DejaVuSans-28" d="M1984 4856q-418-718-622-1422-203-703-203-1425 0-721 205-1429t620-1424h-500Q1016-109 783 600T550 2009q0 697 231 1403 232 707 703 1444h500z" transform="scale(.01563)"/><path id="prefix__DejaVuSans-73" d="M2834 3397v-544q-243 125-506 187-262 63-544 63-428 0-642-131t-214-394q0-200 153-314t616-217l197-44q612-131 870-370t258-667q0-488-386-773Q2250-91 1575-91q-281 0-586 55T347 128v594q319-166 628-249 309-82 613-82 406 0 624 139 219 139 219 392 0 234-158 359-157 125-692 241l-200 47q-534 112-772 345-237 233-237 639 0 494 350 762 350 269 994 269 318 0 599-47 282-46 519-140z" transform="scale(.01563)"/><path id="prefix__DejaVuSans-29" d="M513 4856h500q468-737 701-1444 233-706 233-1403 0-700-233-1409T1013-844H513q415 716 620 1424t205 1429q0 722-205 1425-205 704-620 1422z" transform="scale(.01563)"/></defs><use xlink:href="#prefix__DejaVuSans-54"/><use xlink:href="#prefix__DejaVuSans-69" x="57.959"/><use xlink:href="#prefix__DejaVuSans-6d" x="85.742"/><use xlink:href="#prefix__DejaVuSans-65" x="183.154"/><use xlink:href="#prefix__DejaVuSans-20" x="244.678"/><use xlink:href="#prefix__DejaVuSans-28" x="276.465"/><use xlink:href="#prefix__DejaVuSans-73" x="315.479"/><use xlink:href="#prefix__DejaVuSans-29" x="367.578"/></g></g><g id="prefix__matplotlib_axis_2"><g id="prefix__ytick_1"><path d="M108 363.903h669.6" clip-path="url(#prefix__p81d0c12974)" fill="none" stroke-dasharray="3.7 1.6" stroke="gray" stroke-opacity=".7" id="prefix__line2d_17"/><g id="prefix__line2d_18"><defs><path id="prefix__m32fc184cf5" d="M0 0h-3.5" stroke="#000" stroke-width=".8"/></defs><use xlink:href="#prefix__m32fc184cf5" x="108" y="363.903" stroke="#000" stroke-width=".8"/></g><g transform="matrix(.1 0 0 -.1 76.717 367.703)" id="prefix__text_10"><defs><path id="prefix__DejaVuSans-2212" d="M678 2272h4006v-531H678v531z" transform="scale(.01563)"/></defs><use xlink:href="#prefix__DejaVuSans-2212"/><use xlink:href="#prefix__DejaVuSans-31" x="83.789"/><use xlink:href="#prefix__DejaVuSans-2e" x="147.412"/><use xlink:href="#prefix__DejaVuSans-30" x="179.199"/></g></g><g id="prefix__ytick_2"><path d="M108 319.885h669.6" clip-path="url(#prefix__p81d0c12974)" fill="none" stroke-dasharray="3.7 1.6" stroke="gray" stroke-opacity=".7" id="prefix__line2d_19"/><use xlink:href="#prefix__m32fc184cf5" x="108" y="319.885" stroke="#000" stroke-width=".8" id="prefix__line2d_20"/><g transform="matrix(.1 0 0 -.1 76.717 323.685)" id="prefix__text_11"><defs><path id="prefix__DejaVuSans-35" d="M691 4666h2478v-532H1269V2991q137 47 274 70 138 23 276 23 781 0 1237-428 457-428 457-1159 0-753-469-1171Q2575-91 1722-91q-294 0-599 50Q819 9 494 109v635q281-153 581-228t634-75q541 0 856 284 316 284 316 772 0 487-316 771-315 285-856 285-253 0-505-56-251-56-513-175v2344z" transform="scale(.01563)"/></defs><use xlink:href="#prefix__DejaVuSans-2212"/><use xlink:href="#prefix__DejaVuSans-30" x="83.789"/><use xlink:href="#prefix__DejaVuSans-2e" x="147.412"/><use xlink:href="#prefix__DejaVuSans-35" x="179.199"/></g></g><g id="prefix__ytick_3"><path d="M108 275.867h669.6" clip-path="url(#prefix__p81d0c12974)" fill="none" stroke-dasharray="3.7 1.6" stroke="gray" stroke-opacity=".7" id="prefix__line2d_21"/><use xlink:href="#prefix__m32fc184cf5" x="108" y="275.867" stroke="#000" stroke-width=".8" id="prefix__line2d_22"/><g transform="matrix(.1 0 0 -.1 85.097 279.667)" id="prefix__text_12"><use xlink:href="#prefix__DejaVuSans-30"/><use xlink:href="#prefix__DejaVuSans-2e" x="63.623"/><use xlink:href="#prefix__DejaVuSans-30" x="95.41"/></g></g><g id="prefix__ytick_4"><path d="M108 231.85h669.6" clip-path="url(#prefix__p81d0c12974)" fill="none" stroke-dasharray="3.7 1.6" stroke="gray" stroke-opacity=".7" id="prefix__line2d_23"/><use xlink:href="#prefix__m32fc184cf5" x="108" y="231.849" stroke="#000" stroke-width=".8" id="prefix__line2d_24"/><g transform="matrix(.1 0 0 -.1 85.097 235.649)" id="prefix__text_13"><use xlink:href="#prefix__DejaVuSans-30"/><use xlink:href="#prefix__DejaVuSans-2e" x="63.623"/><use xlink:href="#prefix__DejaVuSans-35" x="95.41"/></g></g><g id="prefix__ytick_5"><path d="M108 187.831h669.6" clip-path="url(#prefix__p81d0c12974)" fill="none" stroke-dasharray="3.7 1.6" stroke="gray" stroke-opacity=".7" id="prefix__line2d_25"/><use xlink:href="#prefix__m32fc184cf5" x="108" y="187.831" stroke="#000" stroke-width=".8" id="prefix__line2d_26"/><g transform="matrix(.1 0 0 -.1 85.097 191.63)" id="prefix__text_14"><use xlink:href="#prefix__DejaVuSans-31"/><use xlink:href="#prefix__DejaVuSans-2e" x="63.623"/><use xlink:href="#prefix__DejaVuSans-30" x="95.41"/></g></g><g transform="matrix(0 -.1 -.1 0 70.638 293.784)" id="prefix__text_15"><defs><path id="prefix__DejaVuSans-50" d="M1259 4147V2394h794q441 0 681 228 241 228 241 650 0 419-241 647-240 228-681 228h-794zm-631 519h1425q785 0 1186-355 402-355 402-1039 0-691-402-1044-401-353-1186-353h-794V0H628v4666z" transform="scale(.01563)"/><path id="prefix__DejaVuSans-6f" d="M1959 3097q-462 0-731-361t-269-989q0-628 267-989 268-361 733-361 460 0 728 362 269 363 269 988 0 622-269 986-268 364-728 364zm0 487q750 0 1178-488 429-487 429-1349 0-859-429-1349Q2709-91 1959-91q-753 0-1180 489-426 490-426 1349 0 862 426 1349 427 488 1180 488z" transform="scale(.01563)"/><path id="prefix__DejaVuSans-74" d="M1172 4494v-994h1184v-447H1172V1153q0-428 117-550t477-122h590V0h-590q-666 0-919 248-253 249-253 905v1900H172v447h422v994h578z" transform="scale(.01563)"/><path id="prefix__DejaVuSans-6e" d="M3513 2113V0h-575v2094q0 497-194 743-194 247-581 247-466 0-735-297-269-296-269-809V0H581v3500h578v-544q207 316 486 472 280 156 646 156 603 0 912-373 310-373 310-1098z" transform="scale(.01563)"/></defs><use xlink:href="#prefix__DejaVuSans-50"/><use xlink:href="#prefix__DejaVuSans-6f" x="56.678"/><use xlink:href="#prefix__DejaVuSans-73" x="117.859"/><use xlink:href="#prefix__DejaVuSans-69" x="169.959"/><use xlink:href="#prefix__DejaVuSans-74" x="197.742"/><use xlink:href="#prefix__DejaVuSans-69" x="236.951"/><use xlink:href="#prefix__DejaVuSans-6f" x="264.734"/><use xlink:href="#prefix__DejaVuSans-6e" x="325.916"/></g></g><path d="M138.436 275.163l4.064.2 2.438.024 2.438-.24 4.877-.768 4.876-.232 8.127-1.236 6.502-1.43 4.876-1.541 3.251-.869 2.438-.443 3.251-.332 3.251-.079 3.25.206 2.439.356 3.25.734 3.252.974 6.502 2.277 4.876 1.61 4.063 1.134 4.877 1.124 6.502 1.25 16.254 2.794 4.876.623 4.064.3 3.25.036 3.252-.202 3.25-.457 5.69-.988 1.625-.025 2.438.26 5.69.781 3.25.16 4.064.205 2.438.325 2.438.582 7.314 2.039 8.94 1.97 1.626.001 1.625-.303 1.626-.578 2.438-1.175 5.689-2.885 2.438-1.006 2.438-.804 2.438-.599 3.251-.525 3.251-.247 2.438.007 3.251.267 4.064.623 3.25.446 2.439.13 3.25-.094 3.252-.366 3.25-.624 4.064-1.055 4.876-1.556 4.877-1.56 2.438-.58 2.438-.377 2.438-.166 2.438.033 3.251.311 4.064.684 6.502 1.402 4.876.959 4.064.486 4.876.316 4.876.063 4.876-.18 4.877-.437 4.876-.687 4.876-.664 3.251-.218 4.064-.029 4.876.246 8.127.54 4.877-.011 11.378-.152 23.569-.013 112.968.007 57.703-.012 78.834.013 3.25.003h0" clip-path="url(#prefix__p81d0c12974)" fill="none" stroke="#1f77b4" stroke-width="1.5" stroke-linecap="square" id="prefix__line2d_27"/><path d="M138.436 287.664l3.251.15 4.064.458 2.438.24 1.625-.036 1.626-.295 2.438-.84 4.064-1.846 4.063-1.75 4.064-1.801 4.063-2.102 13.004-7.072 4.876-2.696 3.251-1.543 3.251-1.289 3.25-1.027 3.252-.744 2.438-.362 3.25-.22 3.252.056 3.25.284 4.064.59 4.064.792 4.063.993 4.064 1.216 4.064 1.452 4.063 1.696 6.502 2.853 4.064 1.438 4.063 1.168 4.064.934 4.876.897 6.502.966 4.876.42 3.251.016 4.876-.237 3.251-.336 2.438-.419 2.439-.626 14.629-4.357 3.25-.657 2.439-.29 3.25-.107 4.877-.12 6.502-.195 3.25.12 3.251.362 3.251.635 3.251.882 4.876 1.346 2.439.434 2.438.24 2.438.048 2.438-.138 4.064-.525 4.876-.596 9.753-.847 4.063-.199 4.876.044 9.753.364 8.94.38 13.004.26 7.314.266 5.69-.023 7.314-.323 5.689-.145 11.378-.002 10.565-.082 11.378.016 34.134.013 243.004.002h0" clip-path="url(#prefix__p81d0c12974)" fill="none" stroke="#ff7f0e" stroke-width="1.5" stroke-linecap="square" id="prefix__line2d_28"/><path d="M138.436 276.572l6.502.065 2.438.244 7.315 1.2 2.438.031 3.25-.25 3.252-.525 6.501-1.267 6.502-.947 3.251-.796 5.69-1.592 4.875-.974 11.379-2.121 4.063-.427 4.064-.162 4.063.059 5.69.317 13.816 1.054 7.314.797 8.94 1.255 6.502 1.065 4.063.94 4.877 1.15 2.438.287 2.438-.074 6.502-.448 4.063.034 4.877.321 3.25.161 1.626-.12 2.438-.5 4.064-1.14 1.625-.587 4.064-1.87 2.438-1.333 5.689-3.323 1.625-.666 1.626-.458 1.625-.261 1.626-.093 2.438.117 2.438.344 3.251.702 3.25.938 3.252 1.214 3.25 1.521 3.251 1.793 6.502 3.763 2.438.997 2.439.662 2.438.377 3.25.217 2.439-.027 2.438-.198 2.438-.376 3.251-.778 4.876-1.229 2.438-.431 3.251-.314 4.064-.087 4.064.176 10.565.766 5.689.1 5.689.098 8.94.499 5.689.17 4.064-.101 12.19-.625 21.131-.162 10.565.01 27.633.025h250.318" clip-path="url(#prefix__p81d0c12974)" fill="none" stroke="#2ca02c" stroke-width="1.5" stroke-linecap="square" id="prefix__line2d_29"/><path d="M138.436 169.414l.813-1.88.813-1.214.813.234.812 1.821.813 3.202.813 4.186.812 5.175.813 6.157 1.626 15.245 1.625 18.732 4.876 60.054.813 8.275.813 7.036.812 5.786.813 4.587.813 3.462.813 2.367.812 1.234.813.138.813-.93.813-1.986.812-2.992 1.626-7.96 2.438-12.804 1.625-7.396 1.626-6.243 1.625-5.207.813-2.158.813-1.73.812-1.031.813-.312.813.193.812.574 1.626 1.49.813.554.812.224.813-.066.813-.331.813-.599.812-.85 1.626-2.317 1.625-2.887 1.626-3.562 1.625-4.63 1.625-5.677 1.626-6.511 4.063-17.245 1.626-5.939 1.625-4.91.813-2.013.813-1.696.813-1.373.812-1.047.813-.728.813-.414.812-.112.813.176.813.445.813.696.812.925 1.626 2.446 1.625 3.075 2.438 5.358 5.69 13.086 2.438 4.995 2.438 4.448 2.438 3.937 2.438 3.515 3.25 4.21 4.064 4.81 4.877 5.44 2.438 2.49 1.625 1.45 1.626 1.211 1.625.932 1.626.63 1.625.328 1.626.044 1.625-.212 1.625-.445 2.439-1.034 6.501-3.372 1.626-1.292.813-.839 1.625-2.248 1.625-2.829 2.439-4.449.812-1.25.813-1.033.813-.78.812-.499.813-.202.813.08.813.348.812.595.813.817 1.626 2.177 1.625 2.69 1.625 3.171 1.626 3.516 2.438 5.753.813 1.66.812 1.282.813.892.813.51.813.126.812-.252.813-.61 2.438-2.694 1.626-1.43 3.25-2.54.813-1.014.813-1.845.813-2.674.812-3.352 1.626-7.971 2.438-12.25 1.625-7.262 1.626-6.159.813-2.494.812-2.08.813-1.669.813-1.252.812-.837.813-.425.813-.039.813.272.812.521.813.717 1.626 1.861 1.625 2.28 1.625 2.73 1.626 3.322 1.625 4.07 1.626 4.926 1.625 5.85 1.626 6.77 2.438 11.5 2.438 11.672 1.625 6.88.813 2.928.813 2.51.813 2.126.812 1.77.813 1.394.813 1.013.812.635.813.278.813-.051.813-.35.812-.614.813-.821 1.625-2.169 3.251-5.365 1.626-2.11 1.625-1.677 1.626-1.333 2.438-1.586 3.25-1.806 4.064-2.119 2.438-1.263 1.626-.664 4.063-1.162 2.439-.554 1.625-.214 1.626-.028 1.625.263 1.625.69 1.626 1.13 1.625 1.506 2.438 2.687 2.439 2.737 1.625 1.562.813.596.812.356.813.2 1.626.025 2.438-.122 1.625.1 1.626.278 2.438.663 6.502 1.96 2.438.44 2.438.146 1.625-.104 1.626-.29 1.625-.499 1.626-.529 1.625-.34 14.63-1.744 3.25.046 3.25.095 2.439-.35 4.064-.65 2.438-.192 2.438.016 12.19.507 10.566.045 52.014-.025 55.265-.036 30.883.015 16.255-.02 108.092.023h0" clip-path="url(#prefix__p81d0c12974)" fill="none" stroke="#d62728" stroke-width="1.5" stroke-linecap="square" id="prefix__line2d_30"/><path d="M138.436 382.32l.813-5.167 1.626-14.155 3.25-29.736 2.439-20.211 1.625-12.638.813-5.644.812-4.59.813-2.678.813-.92.813.292.812.791.813-.288.813-1.51.812-2.719.813-3.726 1.626-9.576 4.063-24.42 3.251-18.322 2.438-12.498 4.877-23.59 1.625-6.71.813-2.555.812-1.903.813-1.16.813-.241.813.722.812 1.723.813 2.932.813 4.199.813 5.425.812 6.607.813 7.76 1.625 18.837 2.439 31.01 1.625 16.824 1.625 13.012.813 5.193.813 4.386.813 3.628.812 2.94.813 2.333.813 1.8.812 1.347.813.956.813.623.813.337.812.093.813-.12.813-.331.813-.522 1.625-1.522 1.625-2.022 1.626-2.395 2.438-4.08 3.25-6.006 8.128-15.365 5.69-9.98 4.063-6.78 3.25-4.96 3.251-4.453 4.877-6.301 4.063-5.889 8.128-11.296 1.625-2.64 1.625-3.105 1.626-3.849 1.625-4.604 2.439-8.248 1.625-6.4 1.625-7.415 1.626-8.485.813-4.67.812-3.992.813-3.005.813-1.994.812-1.046.813-.197.813.546.813 1.173.812 1.694.813 2.12 1.625 5.264 1.626 6.52 2.438 11.13 2.438 12.542 4.877 26.682.812 3.022.813 2.269.813 1.695.812 1 .813.446.813-.017.813-.418.812-.753.813-1.021.813-1.366.812-.931.813-.408.813.04.813.268.812.468.813.654.813.845.813 1.066 1.625 2.628.813 1.513.812 1.856.813 2.345.813 2.949.813 3.474 1.625 8.756 2.438 15.877 2.438 15.622 2.438 13.768 1.626 8.113 1.625 7.298 1.626 6.497 1.625 5.75 2.438 7.527 2.439 6.812 3.25 8.36 2.439 5.872 1.625 3.542 1.625 2.927.813 1.124.813.831.813.485.812.087.813-.368.813-.86.813-1.357.812-1.879.813-2.447.813-3.04.812-3.647.813-4.256 1.626-10.365 1.625-12.95.813-7.63.812-8.76 2.439-30.062 1.625-15.049.813-6.036.812-5.188.813-4.434.813-3.767.813-3.165.812-2.62.813-2.117.813-1.644.813-1.194.812-.744.813-.246.813.353.812 1.084.813 2.018.813 3.32.813 5.41.812 7.4 1.626 12.138 1.625 10.452 1.626 9.438 1.625 8.344 1.625 6.84 1.626 5.388 1.625 4.058.813 1.592.813 1.34.813 1.112.812.87.813.583.813.29.812.022.813-.225.813-.458.813-.682.812-.903.813-1.125.813-1.358.812-1.61.813-1.896.813-2.227.813-2.627.812-3.148.813-3.913.813-5.26.812-7.667 1.626-12.31 1.625-9.42.813-3.752.813-3.194.813-2.703.812-2.276.813-1.912.813-1.596.812-1.315.813-1.072.813-.866 1.625-1.248 1.626-.808 2.438-.803 3.25-.825 2.439-.274 1.625-.01 1.626.15 1.625.358.813.325.813.571.812.966.813 1.524.813 2.344.813 3.846.812 6.333 1.626 9.237 1.625 7.1 1.626 5.416 1.625 4.103 1.625 3.053.813 1.145.813.895.813.65.812.404.813.156.813-.103.813-.382.812-.694.813-1.068.813-1.559.812-2.353.813-3.6 1.626-8.09.812-2.977.813-2.467.813-2.002.812-1.596.813-1.224.813-.87.813-.51.812-.123.813.35.813.865 3.25 4.845.813.875.813.605.813.375 1.625.352 3.251.335 4.064.14 4.876-.08 6.502-.353 8.94-.498 4.063.011 5.69.286 6.501.328 2.438-.028 4.877-.43 4.876-.35 2.438.025 5.69.635 4.063.3 1.625-.041 4.064-.474 4.063-.412 2.439-.084 2.438.222 6.501.71 2.439.071 2.438-.232 6.502-.702 2.438-.06 2.438.24 6.502.69 2.438.055 2.438-.241 6.502-.688 2.438-.05 2.438.244 6.502.685 2.438.045 2.438-.245 6.502-.683 2.438-.041 3.25.347 5.69.58 2.438.038 3.251-.35 5.689-.578 2.438-.033 3.251.35 5.69.575 2.437.033 3.251-.35 5.69-.576 2.437-.031 3.251.351 5.69.574 2.437.031 3.251-.352 5.69-.574 2.437-.03 3.251.353 4.877.518 2.438.11 2.438-.181 6.502-.717 2.438-.11 2.438.186 6.502.715 2.438.107 2.438-.186 6.502-.717 2.438-.104 2.438.191 6.502.715 2.438.101 2.438-.195 4.877-.573h0" clip-path="url(#prefix__p81d0c12974)" fill="none" stroke="#9467bd" stroke-width="1.5" stroke-linecap="square" id="prefix__line2d_31"/><path d="M138.436 169.414l.813 5.486 3.251 27.831 2.438 18.383 3.251 22.496 1.625 9.905.813 3.517.813 2.435.813 1.379.812.331.813-.584.813-1.09 1.625-2.531.813-1.053.813-.792.812-.575.813-.353.813-.145.813.024 2.438.477.812-.064.813-.308.813-.55 1.625-1.637 3.251-3.84.813-.716.813-.373.812.275.813 1.114.813 1.966.812 2.905.813 3.804 1.626 9.506 3.25 21.677 1.626 8.89.813 3.61.812 3.044 1.626 4.964 1.625 4.179.813 1.773.813 1.506.812 1.209.813.891.813.562.813.227.812-.105.813-.424.813-.725.812-1.004.813-1.254 1.626-3.14 1.625-3.783 3.251-8.429 3.25-8.337 2.439-5.616 1.625-3.305 1.626-2.904 1.625-2.478 1.626-2.047 1.625-1.639 1.626-1.271 1.625-.965 1.626-.724 2.438-.775 3.25-.713 8.94-1.772 2.439-.737.812-.374 1.626-1.146 2.438-2.172 4.064-4.049 4.876-4.915 2.438-2.152 2.438-1.796 2.438-1.575.813-.364 1.626.001 1.625.362 1.625.81 1.626 1.27.813.781.812 1.184 3.251 5.362.813.973.813.747.812.53.813.339.813.177 1.625-.022 5.69-.85 2.437.14 1.626.257.813-.218.812-.654.813-1.039 1.625-2.94 1.626-3.524 2.438-6.196.813-2.08.812-1.544.813-1.117.813-.788.813-.479.812-.278 1.626-.22 2.438.029.813.16.812.556.813 1.117.813 1.763.813 2.445.812 3.039 1.626 7.342 4.876 23.949 1.625 6.748 1.626 5.701 1.625 4.72 1.626 3.933 1.625 3.247 1.626 2.589 1.625 1.962 1.626 1.39.812.48.813.33.813.17h.812l.813-.186.813-.39.813-.615.812-.869.813-1.119.813-1.37.812-1.627 1.626-4.004 1.625-4.862 2.439-8.066 4.063-14.658 1.626-4.742 1.625-3.747 1.625-3.144.813-1.289.813-.91.813-.457.812-.07.813.231.813.455 1.625 1.35 1.626 1.743 1.625 2.053 1.626 2.347 1.625 2.77 1.625 3.396 4.064 9.486 4.876 10.25.813 1.345.813 1.105.812.866.813.63.813.393.813.164.812-.058.813-.27.813-.471.813-.66.812-.862 1.626-2.353 1.625-2.919 2.438-4.945 6.502-13.481 1.625-2.912.813-1.075.813-.798.813-.514.812-.257.813-.045.813.118 1.625.53 6.502 2.616 5.689 1.792 4.876 1.632 3.251 1.359 1.626 1.025 1.625 1.525 3.251 3.55 1.625.925 1.626.532 1.625.219 1.626-.086 1.625-.394 1.626-.685 1.625-.948 1.626-1.18 2.438-2.115 1.625-1.524.813-.552.813-.313.812-.148 1.626.018 1.625.297 1.626.493 4.063 1.428 1.626.13 3.25-.19 4.877-.146 17.067-.116 8.94.13 8.94.084 7.314-.17 5.69-.07 6.501.177 4.876.083 5.69-.147 5.688-.122 5.69.15 5.689.12 5.689-.155 5.689-.114 5.689.157 4.876.112 4.876-.097 7.315-.17 5.689.159 4.876.108 4.876-.1 6.502-.17 4.877.1 6.501.17 4.877-.102 6.501-.168 4.877.103 6.501.166 5.69-.134 5.689-.135 5.689.136 5.689.133 5.689-.135 5.689-.134 5.689.136 5.689.133 5.689-.135 5.689-.134 5.689.137 5.689.132 5.689-.137 5.689-.132 5.69.14 5.688.13 5.69-.141 5.688-.129 1.626.016h0" clip-path="url(#prefix__p81d0c12974)" fill="none" stroke="#8c564b" stroke-width="1.5" stroke-linecap="square" id="prefix__line2d_32"/><path d="M108 393.12v-237.6" fill="none" stroke="#000" stroke-width=".8" stroke-linecap="square" id="prefix__patch_3"/><path d="M777.6 393.12v-237.6" fill="none" stroke="#000" stroke-width=".8" stroke-linecap="square" id="prefix__patch_4"/><path d="M108 393.12h669.6" fill="none" stroke="#000" stroke-width=".8" stroke-linecap="square" id="prefix__patch_5"/><path d="M108 155.52h669.6" fill="none" stroke="#000" stroke-width=".8" stroke-linecap="square" id="prefix__patch_6"/><g transform="matrix(.12 0 0 -.12 367.38 149.52)" id="prefix__text_16"><defs><path id="prefix__DejaVuSans-45" d="M628 4666h2950v-532H1259V2753h2222v-531H1259V531h2375V0H628v4666z" transform="scale(.01563)"/><path id="prefix__DejaVuSans-72" d="M2631 2963q-97 56-211 82-114 27-251 27-488 0-749-317t-261-911V0H581v3500h578v-544q182 319 472 473 291 155 707 155 59 0 131-8 72-7 159-23l3-590z" transform="scale(.01563)"/><path id="prefix__DejaVuSans-Oblique-65" d="M3078 2063q10 50 14 103 5 53 5 106 0 381-224 603-223 222-607 222-428 0-757-271-328-270-496-767l2065 4zm500-450H903q-19-119-25-188t-6-119q0-434 267-672 267-237 755-237 375 0 709 84 335 85 622 247l-109-569Q2806 34 2476-28q-329-63-670-63-728 0-1120 348-392 349-392 990 0 547 195 1017t574 839q243 231 579 356t714 125q594 0 945-356 352-356 352-956 0-144-19-308-18-164-56-351z" transform="scale(.01563)"/><path id="prefix__DejaVuSans-3d" d="M678 2906h4006v-525H678v525zm0-1275h4006v-531H678v531z" transform="scale(.01563)"/><path id="prefix__DejaVuSans-Oblique-78" d="M3841 3500L2234 1784 3219 0h-660l-740 1388L531 0h-697l1722 1844-915 1656h659l672-1266 1172 1266h697z" transform="scale(.01563)"/><path id="prefix__DejaVuSans-Oblique-64" d="M2675 525q-231-303-547-460-315-156-700-156-525 0-830 358-304 358-304 980 0 519 184 989 185 470 535 842 231 247 521 376 291 130 610 130 337 0 595-163 258-162 399-465l375 1907h578L3144 0h-578l109 525zM891 1350q0-453 204-706 205-253 568-253 268 0 498 129 230 130 405 383 184 263 290 606 107 344 107 679 0 434-205 677-205 244-564 244-272 0-507-128-234-128-399-368-182-260-290-604-107-343-107-659z" transform="scale(.01563)"/><path id="prefix__DejaVuSans-Oblique-73" d="M3200 3397l-109-544q-228 125-482 187-253 63-521 63-454 0-715-155-260-154-260-420 0-309 606-475 47-12 69-19l184-56q575-159 767-334t192-478q0-557-442-907T1331-91q-278 0-584 54Q441 16 72 128l112 594q316-163 622-247 307-84 588-84 422 0 686 181t264 459q0 300-694 485l-59 15-197 50q-438 116-641 305t-203 483q0 559 420 887 421 328 1143 328 284 0 554-47 271-46 533-140z" transform="scale(.01563)"/></defs><use xlink:href="#prefix__DejaVuSans-50" transform="translate(0 .016)"/><use xlink:href="#prefix__DejaVuSans-6f" transform="translate(60.303 .016)"/><use xlink:href="#prefix__DejaVuSans-73" transform="translate(121.484 .016)"/><use xlink:href="#prefix__DejaVuSans-69" transform="translate(173.584 .016)"/><use xlink:href="#prefix__DejaVuSans-74" transform="translate(201.367 .016)"/><use xlink:href="#prefix__DejaVuSans-69" transform="translate(240.576 .016)"/><use xlink:href="#prefix__DejaVuSans-6f" transform="translate(268.36 .016)"/><use xlink:href="#prefix__DejaVuSans-6e" transform="translate(329.541 .016)"/><use xlink:href="#prefix__DejaVuSans-20" transform="translate(392.92 .016)"/><use xlink:href="#prefix__DejaVuSans-45" transform="translate(424.707 .016)"/><use xlink:href="#prefix__DejaVuSans-72" transform="translate(487.89 .016)"/><use xlink:href="#prefix__DejaVuSans-72" transform="translate(529.004 .016)"/><use xlink:href="#prefix__DejaVuSans-6f" transform="translate(570.117 .016)"/><use xlink:href="#prefix__DejaVuSans-72" transform="translate(631.299 .016)"/><use xlink:href="#prefix__DejaVuSans-20" transform="translate(672.412 .016)"/><use xlink:href="#prefix__DejaVuSans-Oblique-65" transform="translate(704.2 .016)"/><use xlink:href="#prefix__DejaVuSans-3d" transform="translate(785.205 .016)"/><use xlink:href="#prefix__DejaVuSans-Oblique-78" transform="translate(888.477 .016)"/><use xlink:href="#prefix__DejaVuSans-Oblique-64" transform="matrix(.7 0 0 .7 947.656 -16.39)"/><use xlink:href="#prefix__DejaVuSans-Oblique-65" transform="matrix(.7 0 0 .7 992.09 -16.39)"/><use xlink:href="#prefix__DejaVuSans-Oblique-73" transform="matrix(.7 0 0 .7 1035.156 -16.39)"/><use xlink:href="#prefix__DejaVuSans-2212" transform="translate(1093.843 .016)"/><use xlink:href="#prefix__DejaVuSans-Oblique-78" transform="translate(1197.114 .016)"/></g><g id="prefix__legend_1"><path d="M233.922 178.476H770.6q2 0 2-2V162.52q0-2-2-2H233.922q-2 0-2 2v13.956q0 2 2 2z" fill="#fff" opacity=".8" stroke="#ccc" id="prefix__patch_7"/><path d="M235.922 168.618h20" fill="none" stroke="#1f77b4" stroke-width="1.5" stroke-linecap="square" id="prefix__line2d_33"/><g transform="matrix(.1 0 0 -.1 263.922 172.118)" id="prefix__text_17"><defs><path id="prefix__DejaVuSans-68" d="M3513 2113V0h-575v2094q0 497-194 743-194 247-581 247-466 0-735-297-269-296-269-809V0H581v4863h578V2956q207 316 486 472 280 156 646 156 603 0 912-373 310-373 310-1098z" transform="scale(.01563)"/><path id="prefix__DejaVuSans-75" d="M544 1381v2119h575V1403q0-497 193-746 194-248 582-248 465 0 735 297 271 297 271 810v1984h575V0h-575v538q-209-319-486-474-276-155-642-155-603 0-916 375-312 375-312 1097zm1447 2203z" transform="scale(.01563)"/><path id="prefix__DejaVuSans-6c" d="M603 4863h575V0H603v4863z" transform="scale(.01563)"/><path id="prefix__DejaVuSans-64" d="M2906 2969v1894h575V0h-575v525q-181-312-458-464-276-152-664-152-634 0-1033 506-398 507-398 1332t398 1331q399 506 1033 506 388 0 664-152 277-151 458-463zM947 1747q0-634 261-995t717-361q456 0 718 361 263 361 263 995t-263 995q-262 361-718 361t-717-361q-261-361-261-995z" transform="scale(.01563)"/><path id="prefix__DejaVuSans-5f" d="M3263-1063v-446H-63v446h3326z" transform="scale(.01563)"/><path id="prefix__DejaVuSans-70" d="M1159 525v-1856H581v4831h578v-531q182 312 458 463 277 152 661 152 638 0 1036-506 399-506 399-1331T3314 415Q2916-91 2278-91q-384 0-661 152-276 152-458 464zm1957 1222q0 634-261 995t-717 361q-457 0-718-361t-261-995q0-634 261-995t718-361q456 0 717 361t261 995z" transform="scale(.01563)"/><path id="prefix__DejaVuSans-61" d="M2194 1759q-697 0-966-159t-269-544q0-306 202-486 202-179 548-179 479 0 768 339t289 901v128h-572zm1147 238V0h-575v531q-197-318-491-470T1556-91q-537 0-855 302-317 302-317 808 0 590 395 890 396 300 1180 300h807v57q0 397-261 614t-733 217q-300 0-585-72-284-72-546-216v532q315 122 612 182 297 61 578 61 760 0 1135-394 375-393 375-1193z" transform="scale(.01563)"/></defs><use xlink:href="#prefix__DejaVuSans-73"/><use xlink:href="#prefix__DejaVuSans-68" x="52.1"/><use xlink:href="#prefix__DejaVuSans-6f" x="115.479"/><use xlink:href="#prefix__DejaVuSans-75" x="176.66"/><use xlink:href="#prefix__DejaVuSans-6c" x="240.039"/><use xlink:href="#prefix__DejaVuSans-64" x="267.822"/><use xlink:href="#prefix__DejaVuSans-65" x="331.299"/><use xlink:href="#prefix__DejaVuSans-72" x="392.822"/><use xlink:href="#prefix__DejaVuSans-5f" x="433.936"/><use xlink:href="#prefix__DejaVuSans-70" x="483.936"/><use xlink:href="#prefix__DejaVuSans-61" x="547.412"/><use xlink:href="#prefix__DejaVuSans-6e" x="608.691"/></g><path d="M351.13 168.618h20" fill="none" stroke="#ff7f0e" stroke-width="1.5" stroke-linecap="square" id="prefix__line2d_34"/><g transform="matrix(.1 0 0 -.1 379.13 172.118)" id="prefix__text_18"><defs><path id="prefix__DejaVuSans-66" d="M2375 4863v-479h-550q-309 0-430-125-120-125-120-450v-309h947v-447h-947V0H697v3053H147v447h550v244q0 584 272 851 272 268 862 268h544z" transform="scale(.01563)"/></defs><use xlink:href="#prefix__DejaVuSans-73"/><use xlink:href="#prefix__DejaVuSans-68" x="52.1"/><use xlink:href="#prefix__DejaVuSans-6f" x="115.479"/><use xlink:href="#prefix__DejaVuSans-75" x="176.66"/><use xlink:href="#prefix__DejaVuSans-6c" x="240.039"/><use xlink:href="#prefix__DejaVuSans-64" x="267.822"/><use xlink:href="#prefix__DejaVuSans-65" x="331.299"/><use xlink:href="#prefix__DejaVuSans-72" x="392.822"/><use xlink:href="#prefix__DejaVuSans-5f" x="433.936"/><use xlink:href="#prefix__DejaVuSans-6c" x="483.936"/><use xlink:href="#prefix__DejaVuSans-69" x="511.719"/><use xlink:href="#prefix__DejaVuSans-66" x="539.502"/><use xlink:href="#prefix__DejaVuSans-74" x="572.957"/></g><path d="M460.345 168.618h20" fill="none" stroke="#2ca02c" stroke-width="1.5" stroke-linecap="square" id="prefix__line2d_35"/><g transform="matrix(.1 0 0 -.1 488.345 172.118)" id="prefix__text_19"><defs><path id="prefix__DejaVuSans-62" d="M3116 1747q0 634-261 995t-717 361q-457 0-718-361t-261-995q0-634 261-995t718-361q456 0 717 361t261 995zM1159 2969q182 312 458 463 277 152 661 152 638 0 1036-506 399-506 399-1331T3314 415Q2916-91 2278-91q-384 0-661 152-276 152-458 464V0H581v4863h578V2969z" transform="scale(.01563)"/><path id="prefix__DejaVuSans-77" d="M269 3500h575l719-2731 715 2731h678l719-2731 716 2731h575L4050 0h-678l-753 2869L1863 0h-679L269 3500z" transform="scale(.01563)"/></defs><use xlink:href="#prefix__DejaVuSans-65"/><use xlink:href="#prefix__DejaVuSans-6c" x="61.523"/><use xlink:href="#prefix__DejaVuSans-62" x="89.307"/><use xlink:href="#prefix__DejaVuSans-6f" x="152.783"/><use xlink:href="#prefix__DejaVuSans-77" x="213.965"/></g><path d="M537.922 168.618h20" fill="none" stroke="#d62728" stroke-width="1.5" stroke-linecap="square" id="prefix__line2d_36"/><g transform="matrix(.1 0 0 -.1 565.922 172.118)" id="prefix__text_20"><use xlink:href="#prefix__DejaVuSans-77"/><use xlink:href="#prefix__DejaVuSans-72" x="81.787"/><use xlink:href="#prefix__DejaVuSans-69" x="122.9"/><use xlink:href="#prefix__DejaVuSans-73" x="150.684"/><use xlink:href="#prefix__DejaVuSans-74" x="202.783"/><use xlink:href="#prefix__DejaVuSans-5f" x="241.992"/><use xlink:href="#prefix__DejaVuSans-31" x="291.992"/></g><path d="M621.481 168.618h20" fill="none" stroke="#9467bd" stroke-width="1.5" stroke-linecap="square" id="prefix__line2d_37"/><g transform="matrix(.1 0 0 -.1 649.481 172.118)" id="prefix__text_21"><use xlink:href="#prefix__DejaVuSans-77"/><use xlink:href="#prefix__DejaVuSans-72" x="81.787"/><use xlink:href="#prefix__DejaVuSans-69" x="122.9"/><use xlink:href="#prefix__DejaVuSans-73" x="150.684"/><use xlink:href="#prefix__DejaVuSans-74" x="202.783"/><use xlink:href="#prefix__DejaVuSans-5f" x="241.992"/><use xlink:href="#prefix__DejaVuSans-32" x="291.992"/></g><path d="M705.04 168.618h20" fill="none" stroke="#8c564b" stroke-width="1.5" stroke-linecap="square" id="prefix__line2d_38"/><g transform="matrix(.1 0 0 -.1 733.04 172.118)" id="prefix__text_22"><defs><path id="prefix__DejaVuSans-33" d="M2597 2516q453-97 707-404 255-306 255-756 0-690-475-1069Q2609-91 1734-91q-293 0-604 58T488 141v609q262-153 574-231 313-78 654-78 593 0 904 234t311 681q0 413-289 645-289 233-804 233h-544v519h569q465 0 712 186t247 536q0 359-255 551-254 193-729 193-260 0-557-57-297-56-653-174v562q360 100 674 150t592 50q719 0 1137-327 419-326 419-882 0-388-222-655t-631-370z" transform="scale(.01563)"/></defs><use xlink:href="#prefix__DejaVuSans-77"/><use xlink:href="#prefix__DejaVuSans-72" x="81.787"/><use xlink:href="#prefix__DejaVuSans-69" x="122.9"/><use xlink:href="#prefix__DejaVuSans-73" x="150.684"/><use xlink:href="#prefix__DejaVuSans-74" x="202.783"/><use xlink:href="#prefix__DejaVuSans-5f" x="241.992"/><use xlink:href="#prefix__DejaVuSans-33" x="291.992"/></g></g></g><g id="prefix__axes_2"><path d="M108 773.28h669.6v-237.6H108z" fill="#fff" id="prefix__patch_8"/><g id="prefix__matplotlib_axis_3"><g id="prefix__xtick_9"><path d="M138.436 773.28v-237.6" clip-path="url(#prefix__p74223be7c9)" fill="none" stroke-dasharray="3.7 1.6" stroke="gray" stroke-opacity=".7" id="prefix__line2d_39"/><use xlink:href="#prefix__m2ceacb81f5" x="138.436" y="773.28" stroke="#000" stroke-width=".8" id="prefix__line2d_40"/><g transform="matrix(.1 0 0 -.1 130.485 787.878)" id="prefix__text_23"><use xlink:href="#prefix__DejaVuSans-30"/><use xlink:href="#prefix__DejaVuSans-2e" x="63.623"/><use xlink:href="#prefix__DejaVuSans-30" x="95.41"/></g></g><g id="prefix__xtick_10"><path d="M219.708 773.28v-237.6" clip-path="url(#prefix__p74223be7c9)" fill="none" stroke-dasharray="3.7 1.6" stroke="gray" stroke-opacity=".7" id="prefix__line2d_41"/><use xlink:href="#prefix__m2ceacb81f5" x="219.708" y="773.28" stroke="#000" stroke-width=".8" id="prefix__line2d_42"/><g transform="matrix(.1 0 0 -.1 211.757 787.878)" id="prefix__text_24"><use xlink:href="#prefix__DejaVuSans-30"/><use xlink:href="#prefix__DejaVuSans-2e" x="63.623"/><use xlink:href="#prefix__DejaVuSans-32" x="95.41"/></g></g><g id="prefix__xtick_11"><path d="M300.98 773.28v-237.6" clip-path="url(#prefix__p74223be7c9)" fill="none" stroke-dasharray="3.7 1.6" stroke="gray" stroke-opacity=".7" id="prefix__line2d_43"/><use xlink:href="#prefix__m2ceacb81f5" x="300.98" y="773.28" stroke="#000" stroke-width=".8" id="prefix__line2d_44"/><g transform="matrix(.1 0 0 -.1 293.029 787.878)" id="prefix__text_25"><use xlink:href="#prefix__DejaVuSans-30"/><use xlink:href="#prefix__DejaVuSans-2e" x="63.623"/><use xlink:href="#prefix__DejaVuSans-34" x="95.41"/></g></g><g id="prefix__xtick_12"><path d="M382.252 773.28v-237.6" clip-path="url(#prefix__p74223be7c9)" fill="none" stroke-dasharray="3.7 1.6" stroke="gray" stroke-opacity=".7" id="prefix__line2d_45"/><use xlink:href="#prefix__m2ceacb81f5" x="382.252" y="773.28" stroke="#000" stroke-width=".8" id="prefix__line2d_46"/><g transform="matrix(.1 0 0 -.1 374.3 787.878)" id="prefix__text_26"><use xlink:href="#prefix__DejaVuSans-30"/><use xlink:href="#prefix__DejaVuSans-2e" x="63.623"/><use xlink:href="#prefix__DejaVuSans-36" x="95.41"/></g></g><g id="prefix__xtick_13"><path d="M463.524 773.28v-237.6" clip-path="url(#prefix__p74223be7c9)" fill="none" stroke-dasharray="3.7 1.6" stroke="gray" stroke-opacity=".7" id="prefix__line2d_47"/><use xlink:href="#prefix__m2ceacb81f5" x="463.524" y="773.28" stroke="#000" stroke-width=".8" id="prefix__line2d_48"/><g transform="matrix(.1 0 0 -.1 455.573 787.878)" id="prefix__text_27"><use xlink:href="#prefix__DejaVuSans-30"/><use xlink:href="#prefix__DejaVuSans-2e" x="63.623"/><use xlink:href="#prefix__DejaVuSans-38" x="95.41"/></g></g><g id="prefix__xtick_14"><path d="M544.796 773.28v-237.6" clip-path="url(#prefix__p74223be7c9)" fill="none" stroke-dasharray="3.7 1.6" stroke="gray" stroke-opacity=".7" id="prefix__line2d_49"/><use xlink:href="#prefix__m2ceacb81f5" x="544.796" y="773.28" stroke="#000" stroke-width=".8" id="prefix__line2d_50"/><g transform="matrix(.1 0 0 -.1 536.845 787.878)" id="prefix__text_28"><use xlink:href="#prefix__DejaVuSans-31"/><use xlink:href="#prefix__DejaVuSans-2e" x="63.623"/><use xlink:href="#prefix__DejaVuSans-30" x="95.41"/></g></g><g id="prefix__xtick_15"><path d="M626.068 773.28v-237.6" clip-path="url(#prefix__p74223be7c9)" fill="none" stroke-dasharray="3.7 1.6" stroke="gray" stroke-opacity=".7" id="prefix__line2d_51"/><use xlink:href="#prefix__m2ceacb81f5" x="626.068" y="773.28" stroke="#000" stroke-width=".8" id="prefix__line2d_52"/><g transform="matrix(.1 0 0 -.1 618.117 787.878)" id="prefix__text_29"><use xlink:href="#prefix__DejaVuSans-31"/><use xlink:href="#prefix__DejaVuSans-2e" x="63.623"/><use xlink:href="#prefix__DejaVuSans-32" x="95.41"/></g></g><g id="prefix__xtick_16"><path d="M707.34 773.28v-237.6" clip-path="url(#prefix__p74223be7c9)" fill="none" stroke-dasharray="3.7 1.6" stroke="gray" stroke-opacity=".7" id="prefix__line2d_53"/><use xlink:href="#prefix__m2ceacb81f5" x="707.34" y="773.28" stroke="#000" stroke-width=".8" id="prefix__line2d_54"/><g transform="matrix(.1 0 0 -.1 699.389 787.878)" id="prefix__text_30"><use xlink:href="#prefix__DejaVuSans-31"/><use xlink:href="#prefix__DejaVuSans-2e" x="63.623"/><use xlink:href="#prefix__DejaVuSans-34" x="95.41"/></g></g><g transform="matrix(.1 0 0 -.1 422.471 801.557)" id="prefix__text_31"><use xlink:href="#prefix__DejaVuSans-54"/><use xlink:href="#prefix__DejaVuSans-69" x="57.959"/><use xlink:href="#prefix__DejaVuSans-6d" x="85.742"/><use xlink:href="#prefix__DejaVuSans-65" x="183.154"/><use xlink:href="#prefix__DejaVuSans-20" x="244.678"/><use xlink:href="#prefix__DejaVuSans-28" x="276.465"/><use xlink:href="#prefix__DejaVuSans-73" x="315.479"/><use xlink:href="#prefix__DejaVuSans-29" x="367.578"/></g></g><g id="prefix__matplotlib_axis_4"><g id="prefix__ytick_6"><path d="M108 761.867h669.6" clip-path="url(#prefix__p74223be7c9)" fill="none" stroke-dasharray="3.7 1.6" stroke="gray" stroke-opacity=".7" id="prefix__line2d_55"/><use xlink:href="#prefix__m32fc184cf5" x="108" y="761.867" stroke="#000" stroke-width=".8" id="prefix__line2d_56"/><g transform="matrix(.1 0 0 -.1 79.895 765.666)" id="prefix__text_32"><use xlink:href="#prefix__DejaVuSans-2212"/><use xlink:href="#prefix__DejaVuSans-36" x="83.789"/><use xlink:href="#prefix__DejaVuSans-30" x="147.412"/></g></g><g id="prefix__ytick_7"><path d="M108 726.041h669.6" clip-path="url(#prefix__p74223be7c9)" fill="none" stroke-dasharray="3.7 1.6" stroke="gray" stroke-opacity=".7" id="prefix__line2d_57"/><use xlink:href="#prefix__m32fc184cf5" x="108" y="726.041" stroke="#000" stroke-width=".8" id="prefix__line2d_58"/><g transform="matrix(.1 0 0 -.1 79.895 729.84)" id="prefix__text_33"><use xlink:href="#prefix__DejaVuSans-2212"/><use xlink:href="#prefix__DejaVuSans-34" x="83.789"/><use xlink:href="#prefix__DejaVuSans-30" x="147.412"/></g></g><g id="prefix__ytick_8"><path d="M108 690.215h669.6" clip-path="url(#prefix__p74223be7c9)" fill="none" stroke-dasharray="3.7 1.6" stroke="gray" stroke-opacity=".7" id="prefix__line2d_59"/><use xlink:href="#prefix__m32fc184cf5" x="108" y="690.215" stroke="#000" stroke-width=".8" id="prefix__line2d_60"/><g transform="matrix(.1 0 0 -.1 79.895 694.014)" id="prefix__text_34"><use xlink:href="#prefix__DejaVuSans-2212"/><use xlink:href="#prefix__DejaVuSans-32" x="83.789"/><use xlink:href="#prefix__DejaVuSans-30" x="147.412"/></g></g><g id="prefix__ytick_9"><path d="M108 654.388h669.6" clip-path="url(#prefix__p74223be7c9)" fill="none" stroke-dasharray="3.7 1.6" stroke="gray" stroke-opacity=".7" id="prefix__line2d_61"/><use xlink:href="#prefix__m32fc184cf5" x="108" y="654.388" stroke="#000" stroke-width=".8" id="prefix__line2d_62"/><use xlink:href="#prefix__DejaVuSans-30" transform="matrix(.1 0 0 -.1 94.638 658.188)" id="prefix__text_35"/></g><g id="prefix__ytick_10"><path d="M108 618.562h669.6" clip-path="url(#prefix__p74223be7c9)" fill="none" stroke-dasharray="3.7 1.6" stroke="gray" stroke-opacity=".7" id="prefix__line2d_63"/><use xlink:href="#prefix__m32fc184cf5" x="108" y="618.562" stroke="#000" stroke-width=".8" id="prefix__line2d_64"/><g transform="matrix(.1 0 0 -.1 88.275 622.361)" id="prefix__text_36"><use xlink:href="#prefix__DejaVuSans-32"/><use xlink:href="#prefix__DejaVuSans-30" x="63.623"/></g></g><g id="prefix__ytick_11"><path d="M108 582.736h669.6" clip-path="url(#prefix__p74223be7c9)" fill="none" stroke-dasharray="3.7 1.6" stroke="gray" stroke-opacity=".7" id="prefix__line2d_65"/><use xlink:href="#prefix__m32fc184cf5" x="108" y="582.736" stroke="#000" stroke-width=".8" id="prefix__line2d_66"/><g transform="matrix(.1 0 0 -.1 88.275 586.535)" id="prefix__text_37"><use xlink:href="#prefix__DejaVuSans-34"/><use xlink:href="#prefix__DejaVuSans-30" x="63.623"/></g></g><g id="prefix__ytick_12"><path d="M108 546.91h669.6" clip-path="url(#prefix__p74223be7c9)" fill="none" stroke-dasharray="3.7 1.6" stroke="gray" stroke-opacity=".7" id="prefix__line2d_67"/><use xlink:href="#prefix__m32fc184cf5" x="108" y="546.91" stroke="#000" stroke-width=".8" id="prefix__line2d_68"/><g transform="matrix(.1 0 0 -.1 88.275 550.709)" id="prefix__text_38"><use xlink:href="#prefix__DejaVuSans-36"/><use xlink:href="#prefix__DejaVuSans-30" x="63.623"/></g></g><g transform="matrix(0 -.1 -.1 0 73.816 674.096)" id="prefix__text_39"><defs><path id="prefix__DejaVuSans-56" d="M1831 0L50 4666h659L2188 738l1481 3928h656L2547 0h-716z" transform="scale(.01563)"/><path id="prefix__DejaVuSans-63" d="M3122 3366v-538q-244 135-489 202t-495 67q-560 0-870-355-309-354-309-995t309-996q310-354 870-354 250 0 495 67t489 202V134Q2881 22 2623-34q-257-57-548-57-791 0-1257 497-465 497-465 1341 0 856 470 1346 471 491 1290 491 265 0 518-55 253-54 491-163z" transform="scale(.01563)"/><path id="prefix__DejaVuSans-79" d="M2059-325q-243-625-475-815-231-191-618-191H506v481h338q237 0 368 113 132 112 291 531l103 262L191 3500h609L1894 763l1094 2737h609L2059-325z" transform="scale(.01563)"/></defs><use xlink:href="#prefix__DejaVuSans-56"/><use xlink:href="#prefix__DejaVuSans-65" x="60.658"/><use xlink:href="#prefix__DejaVuSans-6c" x="122.182"/><use xlink:href="#prefix__DejaVuSans-6f" x="149.965"/><use xlink:href="#prefix__DejaVuSans-63" x="211.146"/><use xlink:href="#prefix__DejaVuSans-69" x="266.127"/><use xlink:href="#prefix__DejaVuSans-74" x="293.91"/><use xlink:href="#prefix__DejaVuSans-79" x="333.119"/></g></g><path d="M138.436 654.388l2.439.452.812.055 2.438-.54 1.626-.588 2.438-1.025.813-.004 2.438.75 1.625.801.813.11.813-.074 1.625-.559 1.626-.706 2.438.06 1.625.088 1.626-.267 2.438-.369 3.25-.06 2.439-.498 1.625-.32 1.626-.147 2.438.368 2.438.58 4.064.98 5.689 1.163 10.565 2.32 3.251.33 3.25.05 3.252-.174 15.441-1.204 7.315-.144 10.565-.116 5.69-.424 4.876-.603 4.063-.713 4.877-.938 1.625-.172 1.625.032.813.157.813.301 3.25 1.921 1.626.465 1.626.09 1.625-.18 5.69-.945 1.625.08 3.25.736 3.251 1.137 1.626.324h1.625l1.626-.184 4.876-.806 3.25.192 1.626-.18.813-.298.813-.433 1.625-1.234 3.251-2.964.813-.508.812-.364 1.626-.378 1.625-.023 1.626.2 2.438.521 4.064 1.139 4.063 1.13 11.378 2.577 2.438.334 1.626.103 1.625-.188 4.064-.99 4.063-.875 7.315-1.392 4.876-.591 3.251-.165 1.626.035 2.438.404 3.25.844 7.315 2.04 3.251.65 3.25.408 3.252.217 3.25.032 2.439-.103 1.625-.253 3.251-.497 6.502-.628 19.505-1.626 2.438.043 8.94 1.277 4.877.48 4.063.207 3.251-.328 6.502-.574 3.25.01 8.128.11 21.13.05 41.45.008 15.441-.03 64.205.011 16.254.029h42.262l30.07-.016 17.067.019 28.446-.02h0" clip-path="url(#prefix__p74223be7c9)" fill="none" stroke="#1f77b4" stroke-width="1.5" stroke-linecap="square" id="prefix__line2d_69"/><path d="M138.436 654.388l4.064.7 1.625.219 1.626.013.813-.124.812-.247.813-.406 1.625-1.16 1.626-1.368.813-.594 1.625-.615 1.625-.298 1.626-.024 2.438.298 2.438.212 1.626-.114 5.689-.799 5.689-.263 1.625.227 2.438-.181 2.439-.375 1.625-.036 2.438.237 3.251.496 10.565 2.196 11.378 2.519 4.064.58 9.753 1.001 13.003 1.554 2.438.2 18.693-2.322 3.25-.163 4.064-.22 4.064-.444.813-.001 2.438-.52 3.25-.404 5.69-.586 2.438-.471 2.438-.7 1.626-.498.812-.14 1.626-.03 3.25.203 2.439-.25 3.25.315 4.064.65 4.064.958 2.438.591 1.625.189 2.439-.173 3.25-.176 2.439.027 3.25.33 4.064.654 8.94 1.705 1.625.033 1.626-.171 2.438-.584 8.94-2.324 1.625-.314 1.626-.203 1.625.014 6.502.433 8.94.226 7.314.714 11.379.23 4.063-.087 8.127-.365 7.315.43 4.063-.058 7.315-.378 7.314-.384 4.064.127 5.689.234 7.315.081 7.314-.11 6.502.017 9.752.103 47.138-.037 217.81.005 13.003-.008h0" clip-path="url(#prefix__p74223be7c9)" fill="none" stroke="#ff7f0e" stroke-width="1.5" stroke-linecap="square" id="prefix__line2d_70"/><path d="M138.436 654.388l1.626-.053 1.625.174 4.064.75 3.25 1.145.813.046 1.626-.285 6.502-2.164 7.314-1.53 1.626.032 3.25.472 1.626.059 2.438-.175 1.625-.366.813-.256 4.064-.513 1.625.094 2.438.425 2.439.452 2.438.104 8.127-.023 3.25.312 13.817 1.643 4.876.213 21.131.457 5.69.138 6.5.123 3.252.302 3.25.47 3.252-.046 1.625-.322 1.625-.586 1.626-.873.813-.517 1.625-.434 1.625-.081 2.439.224 8.94 1.128 2.438.046 1.625-.236.813-.277 1.625-.895 1.626-1.13.812-.32 1.626-.305 1.625-.115 1.626.037 2.438-1.293 2.438-.322 4.876-.982.813.034.813.152.813.285 1.625.911 4.876 3.043 2.438 1.101 2.439.812 2.438.563 8.94 1.762 4.876 1.098 2.438.315 2.438.078 1.626-.06.813-.253 4.876-2.343 2.438-.944 1.625-.455 6.502-1.527 6.502-1.538 1.625-.021 2.439.259 2.438.525 4.063.94 4.064.556 6.502.718 3.25-.105 11.379-.649 3.25.187 4.877.282 4.063.019 4.877-.231 4.876-.463 4.064-.391 3.25.046 9.753.504 7.315.01 14.629.032 7.314.042 51.201-.043h225.937" clip-path="url(#prefix__p74223be7c9)" fill="none" stroke="#2ca02c" stroke-width="1.5" stroke-linecap="square" id="prefix__line2d_71"/><path d="M138.436 654.388l.813 8.054.813 9.92 2.438 34.605 1.625 13.423 1.626 15.58 1.625 17.749.813 4.642.813 2.903.812 1.216.813-1.208.813-2.577.813-3.679.812-5.51 1.626-22.026 2.438-32.968 4.876-63.135.813-7.283.813-4.73.812-1.86.813.13.813 1.404.813 2.117 3.25 9.976.813 3.013.813 3.5.813 5.09 2.438 24.95.812 6.731.813 4.917.813 2.188.813.563.812-1.1.813-1.918.813-2.47 2.438-8.567.813-2.133.812-1.334.813-1.553.813-2.41.813-3.978 2.438-15.08 1.625-7.918.813-3.085.813-2.513.812-1.367.813-.351.813.473.812 1.144.813 1.663.813 2.09 1.625 5.073 3.251 11.635 2.438 8.513 1.626 5.044 1.625 4.311 1.626 3.453.812 1.376.813 1.143.813.889.813.669.812.455.813.252.813.065.812-.103.813-.25 1.626-.839 1.625-1.139 5.69-4.327 2.437-1.472 2.438-1.13 2.439-.816 2.438-.57 4.063-.823 3.251-1.38 1.626-.98 1.625-1.243 6.502-5.456 1.625-.936 1.626-.603 1.625-.298 1.626-.207.812.427.813.632.813 1.488 3.25 1.775.813.215.813-.006.813-.284 1.625-1.326.813-1.448.813-1.736.812-2.066.813-1.712.813-1.175.813-.546.812.094.813.69.813 1.187.812 1.577 1.626 3.804 2.438 5.88 1.626 3.138 2.438 3.529 2.438 2.958.813.58.812-.488.813-1.5.813-2.421 4.876-20.4.813-2.343 2.438 2.47.813 1.312.812.78.813.154.813-.594.813-1.34.812-3.043 1.626-16.203.812-6.33.813-4.543.813-2.715.813-.91.812.61.813 1.227 1.625 1.84.813 1.968.813 2.942 2.438 11.38 4.064 19.938.812 2.675.813 2.146.813 1.7 1.625 2.663.813 1.208 1.625 2.99 1.626 3.635 1.625 4.275 1.626 4.844 3.25 10.71.813 2.712.813 2.183.813 1.677.812 1.13.813.512.813-.196.813-.979.812-1.805.813-2.878.813-3.55.813-2.797.812-2.358.813-2.887 1.625-7.074 2.439-11.017.812-3.135.813-2.211.813-1.617 1.625-2.404.813-1.106.813-.66.812-.191.813.13 1.625.687 2.439 1.097 1.625.492 1.626.147.812.053 1.626.449 1.625.467.813-.024 1.625-1.1.813.267 1.625.232 1.626.478.813.429.812.142 1.626.114 1.625.376 1.626.78 1.625 1.155 1.626 1.5.812 1.013 4.064 5.992.813.909.812.74.813.556.813.364.812.162.813-.045.813-.253.813-.458.812-.666.813-.91.813-1.258 2.438-5.822.813-1.127.812-.56.813-.148.813.115 4.876 1.48 1.626.13 1.625-.068 2.438-.402 2.438-.668 2.438-.913 2.439-1.15 2.438-1.377 1.625-1.055.813.052.813.49 2.438 1.844.813.298.812-.013.813.297 1.625-.516 1.626-.542 1.625-.283 1.626-.01 1.625.221 2.438.56 3.251.79 1.626.21.812.011.813-.26 1.626-1.318.812-.448.813-.257.813-.106 1.625.1 3.251.642 4.876 1.05 1.626.02 8.94-.401 8.94-.142 14.629-.008 39.01.034 11.378-.042 11.378.042 10.566-.047 13.816.02 9.753-.012 9.752.052 14.63-.026 9.752.01 8.94-.055 15.441.029 9.753-.008 8.94.054 16.254-.02 9.753-.015 8.94-.033 14.629.02 9.753-.004 8.94.052 8.127-.082h0" clip-path="url(#prefix__p74223be7c9)" fill="none" stroke="#d62728" stroke-width="1.5" stroke-linecap="square" id="prefix__line2d_72"/><path d="M138.436 654.388l.813-70.327.813-19.433.813-2.408.812 2.545 1.626 7.272 1.625 7.9 1.626 6.71.812 2.622.813 3.652.813 6.427.812 12.512 1.626 40.337.813 12.884.812 4.903 1.626-25.606.812-13.278.813-10.9.813-9.25.813-4.306.812-.851.813-.438.813-.145.813-.007 1.625-.923.813-.223.812.476.813.77.813 1.032 1.625 2.505.813.991.813.61 1.625.572.813.488.813 1.447.812 3.928 1.626 12.192 1.625 14.392 2.438 27.275 5.69 81.393.812 6.89.813-.473.813-6.504 3.25-34.13 1.626-14.125 1.625-12.02 1.626-9.674 1.625-7.382 1.626-5.73 2.438-6.919 1.625-4.213 1.626-3.528 1.625-2.935 1.626-2.424 1.625-1.992 1.625-1.63 1.626-1.323 1.625-1.01 1.626-.69 1.625-.404 2.438-.237 7.315-.172 1.625.203 1.626.38 2.438.831 4.876 1.811 1.626.471.812.07.813-.619.813-.857.813-.357.812-.013 4.064.813 1.625-.078 1.626-.353 1.625-.624 1.626-.973 1.625-1.473.813-1.14 1.625-4.144 1.626-3.11 1.625-5.762.813.292.813-1.437 2.438-7.623 1.625-5.54 1.626-6.154.812 6.338 3.251 37.114 1.626 14.063.812 5.556.813 4.671 2.438 11.72.813 2.647 1.625 4.115 2.439 5.382 1.625 3.02.813 1.35.812.482.813-.057.813-1.374.813-5.222 1.625-16.213.813-5.885.812-7.427.813-6.055 1.626-9.728.812-3.95.813-3.284.813-4.03.812 4.278.813 5.257.813 4.518 1.625 4.42 2.439 5.493.812 1.543.813-1.296.813-.317.812 1.414.813 2.962.813 4.238.813 3.61 1.625 9.589.813 3.461.812 2.03.813.731.813-.293.813-.94 1.625-2.744 2.438-4.202 2.438-4.15 2.439-4.253 1.625-2.433.813-.89.812-.66.813-.445 1.626-1.385 1.625-1.064 4.064-2.175.812-.643.813-.885.813-1.159.812-1.487.813-1.88.813-2.342.813-2.855.812-3.399 1.626-8.402 1.625-9.696 2.438-17.309 3.251-24.842.813-6.744.813-8.357.812-11.427.813-16.114.813-1.626 1.625 25.26 1.626 20.727 1.625 16.393 1.626 12.963 1.625 10.686 3.251 18.932.813 6.035.812 7.382.813 9.42.813 13.172 1.625 41.466.813-11.014 1.625-9.665.813-3.116 2.438-7.424 1.626-7.245 2.438-10.674 1.625-6.379 1.626-5.298 1.625-4.704 3.251-11.16 2.438-6.902 1.626-4.586 1.625-5.405.813-3.327.813-4.049.812-5.28.813-7.764.813-13.704.812-24.556.813 11.656 2.438 21.629 1.626 12 1.625 9.377 1.626 6.957 1.625 5.347.813 2.105.813 1.745.812 1.412.813 1.11.813.84.812.606.813.402.813.228 1.625.05 3.251 1.408 3.251 1.446 1.626.974.812.615.813 1.188.813 2.536.812 4.029.813 5.686.813 8.344.813 15.28.812 25.288.813-14.859 2.438-15.93 1.626-8.044 1.625-6.267 7.315-23.34.812-3.184.813-3.795.813-4.995.812-8.083.813-12.68.813-7.265.813 5.488.812 8.115 1.626 9.924 1.625 7.911 2.438 11.21 1.626 10.041.812 3.57.813.934.813-.92.813-1.098.812-2.359.813-2.754.813-2.338.813-1.618.812-.81 1.626-.465 2.438-.439 4.063-.46 4.877-.34 5.689-.23 4.876.037 4.064.283 7.314.662 4.064.096 3.25-.165 3.252-.423 2.438-.667 3.25-.053 2.439.115 2.438.298.813.133 1.625.664.813.332.813.182 2.438.016 2.438-.137 2.438-.328.813-.148 3.25-1.337 2.439-.022 2.438.147 2.438.344.813.153 2.438 1.173.813.194 2.438.007 2.438-.158 2.438-.353.813-.185 2.438-1.159.813-.166 3.25.041 2.439.228 1.625.262.813.217 2.438 1.138.813.138 3.25-.056 2.439-.23 1.625-.261.813-.221 2.438-1.125.813-.13 3.25.057 2.439.231 1.625.264.813.235 2.438 1.115.813.119 3.25-.061 2.439-.236 1.625-.264.813-.24 2.438-1.108 1.626-.112 3.25.119 2.439.304 1.625.398 2.438 1.1 1.626.099 3.25-.124 2.439-.307.813-.143.812-.259 2.439-1.091 1.625-.094 3.25.124 2.439.31.813.144.812.272 1.626.795.813.286 1.625.082 3.25-.127 2.44-.309.812-.143.813-.268 1.625-.792.813-.287 1.625-.083 3.251.125 2.438.31.813.144.813.275 1.625.792.813.282 1.625.08 3.251-.127 2.438-.31.813-.144.813-.271 1.625-.792.813-.283 1.625-.082 3.251.127 2.438.311.813.145.813.28 1.625.792.813.278 1.625.078 3.251-.13 2.438-.312.813-.144.813-.278 1.625-.791.813-.28 1.625-.077 3.251.129 2.438.313.813.146.813.29 1.625.792.813.271 1.626.073 3.25-.133 2.439-.316.812-.145.813-.292 1.625-.791.813-.27 1.626-.07 3.25.134 2.439.32.812.146 1.626.72 1.625.637 1.626.064 3.25-.141 2.439-.323.812-.147 1.626-.73.813-.376.812-.25 1.626-.06 3.25.145h0" clip-path="url(#prefix__p74223be7c9)" fill="none" stroke="#9467bd" stroke-width="1.5" stroke-linecap="square" id="prefix__line2d_73"/><path d="M138.436 654.388l.813 10.03.813 8.088.813 5.88.812 3.67 2.438 9.328 1.626 4.993.813 2.08 1.625 3.31.813-1.446.812-4.879.813-7.102.813-8.736 2.438-29.713.813-3.676.812-.215.813 2.246 1.626 7.469 4.063 13.165.813 1.228.813-.303.812-1.995 2.439-8.693.812-2.293.813-1.738.813-1.218.812-.747.813-.228.813.448.813 1.5.812 3.261.813 4.83.813 5.772 3.25 27.202.813 6.066.813 3.033.813.722.813-.743.812-1.975.813-2.901 1.625-7.071.813-2.46 1.626-2.52.812-1.913.813-2.854.813-3.632 1.625-8.772 3.251-18.845 1.625-7.605.813-3.095.813-2.64.813-2.198.812-1.78.813-1.39.813-1.029.813-.705.812-.417.813-.165.813.027.812.213.813.368 1.626 1.098 1.625 1.44 2.438 2.534 3.251 3.784 3.25 3.714 1.626 1.572 1.626 1.277 1.625.965 1.626.688 2.438.664 2.438.39 2.438.213 2.438.018 2.438-.234 2.439-.521.812-1.046.813-1.556.813-1.022.813-.639.812-.378 1.626-.316 1.625-.037 1.626.127 1.625.312 1.625.529 1.626.73 3.25 1.817.813.453.813.313.813.133.813-.198 1.625 1.409.813 2.909.813.485 1.625 1.35 1.625 1.746 2.439 2.855.812 4.937.813 3.546.813 2.32.812 1.04.813.08.813-.689.813-1.282 1.625-3.502 1.625-3.715 1.626-3.041.813-1.166.812-.905.813-.644.813-.387.813-.137.812.1.813.325.813-.36.812-.05.813.169.813-.63.813-4.396.812-5.245.813-4.209.813-3.37.812-1.207 2.439-2.225.812-.376.813.063.813 1.085.812 5.526.813 4.402 1.626 6.331.812 1.983.813 1.39 1.626 2.363 1.625 3.094.813 3.838.812 5.772 1.626 14.68 1.625 13.96.813 5.025.813 3.561.812 2.003.813.441.813-.773.813-1.58 1.625-4.266 2.438-7.585 1.626-4.934 1.625-4.222 2.438-5.597.813-1.736.813-1.468 1.625-2.262 1.626-1.575 1.625-1.181 1.625-1.1.813-.645.813-.793.813-1.016.812-1.323.813-1.592.813-1.918.812-2.275 1.626-5.53 2.438-8.99.813-2.467 1.625-5.98.813-2.348.813-1.472.812-.59.813.218.813.915.813 1.463.812 1.752.813 1.255.813.826 1.625 3.809 1.626 7.062.812 3.346.813 2.666.813 1.976.812 1.43.813 1.068 1.626 1.636 3.25 3.066.813 1.121 1.626 3.311 1.625 3.48.813 1.459.813.895.812-.955.813-1.671.813-.144 2.438.158.813-.141.812-1.674 4.877-15.394 1.625-4.504 3.251-7.983.813-1.638.812-1.246.813-.934.813-.687.813-.488.812-.332 1.626-.365 1.625-.171 1.626.097 2.438.54.812.919 1.626 5.743 1.625 5.423.813 2.133.813 1.604.813 1.099.812.67.813.34.813.105 1.625-.18 4.064-.81 2.438-.16 3.25.188 2.439.343 2.438.563 2.438.8.813.812 2.438 3.371.813.894.813.618.812-.888.813-2.444.813-1.554.812-1.156 1.626-1.723 5.689-5.244 2.438-1.908 1.626-1.083 1.625-.873 1.625-.686.813.304.813 1.963.813 2.395.812 1.648.813 1.153.813.875 1.625 1.253 1.626.933 1.625.782.813-.137.812-.643 1.626-1.718 1.625-1.224.813-.317.813-.11 2.438.284 3.25.201 6.503.059 10.565.077 11.378.134 16.254-.291 10.566.422 10.565-.603 4.064.26 5.689.377 2.438-.016 9.753-.625 2.438.103 8.94.56 2.438-.111 8.94-.551 2.438.113 8.94.548 2.438-.117 8.94-.544 2.438.119 8.94.542 2.438-.123 8.94-.537 2.438.124 8.94.535 2.438-.127 8.94-.532 2.438.127 8.94.532 2.438-.128 8.94-.53 2.439.127 8.94.53 2.438-.128 8.94-.53 2.438.129 8.94.53 3.25-.183 8.128-.476 3.25.184 7.315.469 2.438-.072 9.753-.581 3.25.19 3.252.251h0" clip-path="url(#prefix__p74223be7c9)" fill="none" stroke="#8c564b" stroke-width="1.5" stroke-linecap="square" id="prefix__line2d_74"/><path d="M108 773.28v-237.6" fill="none" stroke="#000" stroke-width=".8" stroke-linecap="square" id="prefix__patch_9"/><path d="M777.6 773.28v-237.6" fill="none" stroke="#000" stroke-width=".8" stroke-linecap="square" id="prefix__patch_10"/><path d="M108 773.28h669.6" fill="none" stroke="#000" stroke-width=".8" stroke-linecap="square" id="prefix__patch_11"/><path d="M108 535.68h669.6" fill="none" stroke="#000" stroke-width=".8" stroke-linecap="square" id="prefix__patch_12"/><g transform="matrix(.12 0 0 -.12 364.68 529.68)" id="prefix__text_40"><defs><path id="prefix__DejaVuSans-307" d="M-1894 4863h575v-729h-575v729zm294-1279z" transform="scale(.01563)"/><path id="prefix__DejaVuSans-Oblique-4a" d="M1069 4666h634L856 325Q691-522 298-901q-392-380-1098-380h-250l103 531h197q422 0 641 241 218 240 334 834l844 4341z" transform="scale(.01563)"/><path id="prefix__DejaVuSans-Oblique-71" d="M2669 525q-231-303-546-460-314-156-695-156-531 0-833 358-301 358-301 986 0 506 186 978t533 847q225 244 517 375t614 131q387 0 637-153t363-462l100 525h578l-934-4813h-579l360 1844zM891 1338q0-463 193-705 194-242 560-242 544 0 928 520t384 1264q0 450-199 689-198 239-569 239-272 0-504-127-231-126-403-370-181-256-286-600-104-343-104-668z" transform="scale(.01563)"/></defs><use xlink:href="#prefix__DejaVuSans-56" transform="translate(0 .516)"/><use xlink:href="#prefix__DejaVuSans-65" transform="translate(68.408 .516)"/><use xlink:href="#prefix__DejaVuSans-6c" transform="translate(129.932 .516)"/><use xlink:href="#prefix__DejaVuSans-6f" transform="translate(157.715 .516)"/><use xlink:href="#prefix__DejaVuSans-63" transform="translate(218.896 .516)"/><use xlink:href="#prefix__DejaVuSans-69" transform="translate(273.877 .516)"/><use xlink:href="#prefix__DejaVuSans-74" transform="translate(301.66 .516)"/><use xlink:href="#prefix__DejaVuSans-79" transform="translate(340.87 .516)"/><use xlink:href="#prefix__DejaVuSans-20" transform="translate(400.049 .516)"/><use xlink:href="#prefix__DejaVuSans-45" transform="translate(431.836 .516)"/><use xlink:href="#prefix__DejaVuSans-72" transform="translate(495.02 .516)"/><use xlink:href="#prefix__DejaVuSans-72" transform="translate(536.133 .516)"/><use xlink:href="#prefix__DejaVuSans-6f" transform="translate(577.246 .516)"/><use xlink:href="#prefix__DejaVuSans-72" transform="translate(638.428 .516)"/><use xlink:href="#prefix__DejaVuSans-20" transform="translate(679.541 .516)"/><use xlink:href="#prefix__DejaVuSans-307" transform="translate(769.043 13.016)"/><use xlink:href="#prefix__DejaVuSans-Oblique-65" transform="translate(711.328 .516)"/><use xlink:href="#prefix__DejaVuSans-3d" transform="translate(792.334 .516)"/><use xlink:href="#prefix__DejaVuSans-307" transform="translate(959.848 11.703)"/><use xlink:href="#prefix__DejaVuSans-Oblique-78" transform="translate(895.605 .516)"/><use xlink:href="#prefix__DejaVuSans-Oblique-64" transform="matrix(.7 0 0 .7 959.156 -15.89)"/><use xlink:href="#prefix__DejaVuSans-Oblique-65" transform="matrix(.7 0 0 .7 1003.59 -15.89)"/><use xlink:href="#prefix__DejaVuSans-Oblique-73" transform="matrix(.7 0 0 .7 1046.656 -15.89)"/><use xlink:href="#prefix__DejaVuSans-2212" transform="translate(1105.343 .516)"/><use xlink:href="#prefix__DejaVuSans-Oblique-4a" transform="translate(1208.614 .516)"/><use xlink:href="#prefix__DejaVuSans-307" transform="translate(1297.481 13.016)"/><use xlink:href="#prefix__DejaVuSans-Oblique-71" transform="translate(1238.106 .516)"/></g><g id="prefix__legend_2"><path d="M233.922 768.28H770.6q2 0 2-2v-13.956q0-2-2-2H233.922q-2 0-2 2v13.956q0 2 2 2z" fill="#fff" opacity=".8" stroke="#ccc" id="prefix__patch_13"/><path d="M235.922 758.422h20" fill="none" stroke="#1f77b4" stroke-width="1.5" stroke-linecap="square" id="prefix__line2d_75"/><g transform="matrix(.1 0 0 -.1 263.922 761.922)" id="prefix__text_41"><use xlink:href="#prefix__DejaVuSans-73"/><use xlink:href="#prefix__DejaVuSans-68" x="52.1"/><use xlink:href="#prefix__DejaVuSans-6f" x="115.479"/><use xlink:href="#prefix__DejaVuSans-75" x="176.66"/><use xlink:href="#prefix__DejaVuSans-6c" x="240.039"/><use xlink:href="#prefix__DejaVuSans-64" x="267.822"/><use xlink:href="#prefix__DejaVuSans-65" x="331.299"/><use xlink:href="#prefix__DejaVuSans-72" x="392.822"/><use xlink:href="#prefix__DejaVuSans-5f" x="433.936"/><use xlink:href="#prefix__DejaVuSans-70" x="483.936"/><use xlink:href="#prefix__DejaVuSans-61" x="547.412"/><use xlink:href="#prefix__DejaVuSans-6e" x="608.691"/></g><path d="M351.13 758.422h20" fill="none" stroke="#ff7f0e" stroke-width="1.5" stroke-linecap="square" id="prefix__line2d_76"/><g transform="matrix(.1 0 0 -.1 379.13 761.922)" id="prefix__text_42"><use xlink:href="#prefix__DejaVuSans-73"/><use xlink:href="#prefix__DejaVuSans-68" x="52.1"/><use xlink:href="#prefix__DejaVuSans-6f" x="115.479"/><use xlink:href="#prefix__DejaVuSans-75" x="176.66"/><use xlink:href="#prefix__DejaVuSans-6c" x="240.039"/><use xlink:href="#prefix__DejaVuSans-64" x="267.822"/><use xlink:href="#prefix__DejaVuSans-65" x="331.299"/><use xlink:href="#prefix__DejaVuSans-72" x="392.822"/><use xlink:href="#prefix__DejaVuSans-5f" x="433.936"/><use xlink:href="#prefix__DejaVuSans-6c" x="483.936"/><use xlink:href="#prefix__DejaVuSans-69" x="511.719"/><use xlink:href="#prefix__DejaVuSans-66" x="539.502"/><use xlink:href="#prefix__DejaVuSans-74" x="572.957"/></g><path d="M460.345 758.422h20" fill="none" stroke="#2ca02c" stroke-width="1.5" stroke-linecap="square" id="prefix__line2d_77"/><g transform="matrix(.1 0 0 -.1 488.345 761.922)" id="prefix__text_43"><use xlink:href="#prefix__DejaVuSans-65"/><use xlink:href="#prefix__DejaVuSans-6c" x="61.523"/><use xlink:href="#prefix__DejaVuSans-62" x="89.307"/><use xlink:href="#prefix__DejaVuSans-6f" x="152.783"/><use xlink:href="#prefix__DejaVuSans-77" x="213.965"/></g><path d="M537.922 758.422h20" fill="none" stroke="#d62728" stroke-width="1.5" stroke-linecap="square" id="prefix__line2d_78"/><g transform="matrix(.1 0 0 -.1 565.922 761.922)" id="prefix__text_44"><use xlink:href="#prefix__DejaVuSans-77"/><use xlink:href="#prefix__DejaVuSans-72" x="81.787"/><use xlink:href="#prefix__DejaVuSans-69" x="122.9"/><use xlink:href="#prefix__DejaVuSans-73" x="150.684"/><use xlink:href="#prefix__DejaVuSans-74" x="202.783"/><use xlink:href="#prefix__DejaVuSans-5f" x="241.992"/><use xlink:href="#prefix__DejaVuSans-31" x="291.992"/></g><path d="M621.481 758.422h20" fill="none" stroke="#9467bd" stroke-width="1.5" stroke-linecap="square" id="prefix__line2d_79"/><g transform="matrix(.1 0 0 -.1 649.481 761.922)" id="prefix__text_45"><use xlink:href="#prefix__DejaVuSans-77"/><use xlink:href="#prefix__DejaVuSans-72" x="81.787"/><use xlink:href="#prefix__DejaVuSans-69" x="122.9"/><use xlink:href="#prefix__DejaVuSans-73" x="150.684"/><use xlink:href="#prefix__DejaVuSans-74" x="202.783"/><use xlink:href="#prefix__DejaVuSans-5f" x="241.992"/><use xlink:href="#prefix__DejaVuSans-32" x="291.992"/></g><path d="M705.04 758.422h20" fill="none" stroke="#8c564b" stroke-width="1.5" stroke-linecap="square" id="prefix__line2d_80"/><g transform="matrix(.1 0 0 -.1 733.04 761.922)" id="prefix__text_46"><use xlink:href="#prefix__DejaVuSans-77"/><use xlink:href="#prefix__DejaVuSans-72" x="81.787"/><use xlink:href="#prefix__DejaVuSans-69" x="122.9"/><use xlink:href="#prefix__DejaVuSans-73" x="150.684"/><use xlink:href="#prefix__DejaVuSans-74" x="202.783"/><use xlink:href="#prefix__DejaVuSans-5f" x="241.992"/><use xlink:href="#prefix__DejaVuSans-33" x="291.992"/></g></g></g><g id="prefix__axes_3"><path d="M108 1153.44h669.6v-237.6H108z" fill="#fff" id="prefix__patch_14"/><g id="prefix__matplotlib_axis_5"><g id="prefix__xtick_17"><path d="M138.436 1153.44v-237.6" clip-path="url(#prefix__pa078b4a028)" fill="none" stroke-dasharray="3.7 1.6" stroke="gray" stroke-opacity=".7" id="prefix__line2d_81"/><use xlink:href="#prefix__m2ceacb81f5" x="138.436" y="1153.44" stroke="#000" stroke-width=".8" id="prefix__line2d_82"/><g transform="matrix(.1 0 0 -.1 130.485 1168.038)" id="prefix__text_47"><use xlink:href="#prefix__DejaVuSans-30"/><use xlink:href="#prefix__DejaVuSans-2e" x="63.623"/><use xlink:href="#prefix__DejaVuSans-30" x="95.41"/></g></g><g id="prefix__xtick_18"><path d="M219.708 1153.44v-237.6" clip-path="url(#prefix__pa078b4a028)" fill="none" stroke-dasharray="3.7 1.6" stroke="gray" stroke-opacity=".7" id="prefix__line2d_83"/><use xlink:href="#prefix__m2ceacb81f5" x="219.708" y="1153.44" stroke="#000" stroke-width=".8" id="prefix__line2d_84"/><g transform="matrix(.1 0 0 -.1 211.757 1168.038)" id="prefix__text_48"><use xlink:href="#prefix__DejaVuSans-30"/><use xlink:href="#prefix__DejaVuSans-2e" x="63.623"/><use xlink:href="#prefix__DejaVuSans-32" x="95.41"/></g></g><g id="prefix__xtick_19"><path d="M300.98 1153.44v-237.6" clip-path="url(#prefix__pa078b4a028)" fill="none" stroke-dasharray="3.7 1.6" stroke="gray" stroke-opacity=".7" id="prefix__line2d_85"/><use xlink:href="#prefix__m2ceacb81f5" x="300.98" y="1153.44" stroke="#000" stroke-width=".8" id="prefix__line2d_86"/><g transform="matrix(.1 0 0 -.1 293.029 1168.038)" id="prefix__text_49"><use xlink:href="#prefix__DejaVuSans-30"/><use xlink:href="#prefix__DejaVuSans-2e" x="63.623"/><use xlink:href="#prefix__DejaVuSans-34" x="95.41"/></g></g><g id="prefix__xtick_20"><path d="M382.252 1153.44v-237.6" clip-path="url(#prefix__pa078b4a028)" fill="none" stroke-dasharray="3.7 1.6" stroke="gray" stroke-opacity=".7" id="prefix__line2d_87"/><use xlink:href="#prefix__m2ceacb81f5" x="382.252" y="1153.44" stroke="#000" stroke-width=".8" id="prefix__line2d_88"/><g transform="matrix(.1 0 0 -.1 374.3 1168.038)" id="prefix__text_50"><use xlink:href="#prefix__DejaVuSans-30"/><use xlink:href="#prefix__DejaVuSans-2e" x="63.623"/><use xlink:href="#prefix__DejaVuSans-36" x="95.41"/></g></g><g id="prefix__xtick_21"><path d="M463.524 1153.44v-237.6" clip-path="url(#prefix__pa078b4a028)" fill="none" stroke-dasharray="3.7 1.6" stroke="gray" stroke-opacity=".7" id="prefix__line2d_89"/><use xlink:href="#prefix__m2ceacb81f5" x="463.524" y="1153.44" stroke="#000" stroke-width=".8" id="prefix__line2d_90"/><g transform="matrix(.1 0 0 -.1 455.573 1168.038)" id="prefix__text_51"><use xlink:href="#prefix__DejaVuSans-30"/><use xlink:href="#prefix__DejaVuSans-2e" x="63.623"/><use xlink:href="#prefix__DejaVuSans-38" x="95.41"/></g></g><g id="prefix__xtick_22"><path d="M544.796 1153.44v-237.6" clip-path="url(#prefix__pa078b4a028)" fill="none" stroke-dasharray="3.7 1.6" stroke="gray" stroke-opacity=".7" id="prefix__line2d_91"/><use xlink:href="#prefix__m2ceacb81f5" x="544.796" y="1153.44" stroke="#000" stroke-width=".8" id="prefix__line2d_92"/><g transform="matrix(.1 0 0 -.1 536.845 1168.038)" id="prefix__text_52"><use xlink:href="#prefix__DejaVuSans-31"/><use xlink:href="#prefix__DejaVuSans-2e" x="63.623"/><use xlink:href="#prefix__DejaVuSans-30" x="95.41"/></g></g><g id="prefix__xtick_23"><path d="M626.068 1153.44v-237.6" clip-path="url(#prefix__pa078b4a028)" fill="none" stroke-dasharray="3.7 1.6" stroke="gray" stroke-opacity=".7" id="prefix__line2d_93"/><use xlink:href="#prefix__m2ceacb81f5" x="626.068" y="1153.44" stroke="#000" stroke-width=".8" id="prefix__line2d_94"/><g transform="matrix(.1 0 0 -.1 618.117 1168.038)" id="prefix__text_53"><use xlink:href="#prefix__DejaVuSans-31"/><use xlink:href="#prefix__DejaVuSans-2e" x="63.623"/><use xlink:href="#prefix__DejaVuSans-32" x="95.41"/></g></g><g id="prefix__xtick_24"><path d="M707.34 1153.44v-237.6" clip-path="url(#prefix__pa078b4a028)" fill="none" stroke-dasharray="3.7 1.6" stroke="gray" stroke-opacity=".7" id="prefix__line2d_95"/><use xlink:href="#prefix__m2ceacb81f5" x="707.34" y="1153.44" stroke="#000" stroke-width=".8" id="prefix__line2d_96"/><g transform="matrix(.1 0 0 -.1 699.389 1168.038)" id="prefix__text_54"><use xlink:href="#prefix__DejaVuSans-31"/><use xlink:href="#prefix__DejaVuSans-2e" x="63.623"/><use xlink:href="#prefix__DejaVuSans-34" x="95.41"/></g></g><g transform="matrix(.1 0 0 -.1 422.471 1181.717)" id="prefix__text_55"><use xlink:href="#prefix__DejaVuSans-54"/><use xlink:href="#prefix__DejaVuSans-69" x="57.959"/><use xlink:href="#prefix__DejaVuSans-6d" x="85.742"/><use xlink:href="#prefix__DejaVuSans-65" x="183.154"/><use xlink:href="#prefix__DejaVuSans-20" x="244.678"/><use xlink:href="#prefix__DejaVuSans-28" x="276.465"/><use xlink:href="#prefix__DejaVuSans-73" x="315.479"/><use xlink:href="#prefix__DejaVuSans-29" x="367.578"/></g></g><g id="prefix__matplotlib_axis_6"><g id="prefix__ytick_13"><path d="M108 1146.107h669.6" clip-path="url(#prefix__pa078b4a028)" fill="none" stroke-dasharray="3.7 1.6" stroke="gray" stroke-opacity=".7" id="prefix__line2d_97"/><use xlink:href="#prefix__m32fc184cf5" x="108" y="1146.107" stroke="#000" stroke-width=".8" id="prefix__line2d_98"/><g transform="matrix(.1 0 0 -.1 73.533 1149.906)" id="prefix__text_56"><use xlink:href="#prefix__DejaVuSans-2212"/><use xlink:href="#prefix__DejaVuSans-31" x="83.789"/><use xlink:href="#prefix__DejaVuSans-35" x="147.412"/><use xlink:href="#prefix__DejaVuSans-30" x="211.035"/></g></g><g id="prefix__ytick_14"><path d="M108 1110.703h669.6" clip-path="url(#prefix__pa078b4a028)" fill="none" stroke-dasharray="3.7 1.6" stroke="gray" stroke-opacity=".7" id="prefix__line2d_99"/><use xlink:href="#prefix__m32fc184cf5" x="108" y="1110.703" stroke="#000" stroke-width=".8" id="prefix__line2d_100"/><g transform="matrix(.1 0 0 -.1 73.533 1114.502)" id="prefix__text_57"><use xlink:href="#prefix__DejaVuSans-2212"/><use xlink:href="#prefix__DejaVuSans-31" x="83.789"/><use xlink:href="#prefix__DejaVuSans-30" x="147.412"/><use xlink:href="#prefix__DejaVuSans-30" x="211.035"/></g></g><g id="prefix__ytick_15"><path d="M108 1075.298h669.6" clip-path="url(#prefix__pa078b4a028)" fill="none" stroke-dasharray="3.7 1.6" stroke="gray" stroke-opacity=".7" id="prefix__line2d_101"/><use xlink:href="#prefix__m32fc184cf5" x="108" y="1075.298" stroke="#000" stroke-width=".8" id="prefix__line2d_102"/><g transform="matrix(.1 0 0 -.1 79.895 1079.097)" id="prefix__text_58"><use xlink:href="#prefix__DejaVuSans-2212"/><use xlink:href="#prefix__DejaVuSans-35" x="83.789"/><use xlink:href="#prefix__DejaVuSans-30" x="147.412"/></g></g><g id="prefix__ytick_16"><path d="M108 1039.893h669.6" clip-path="url(#prefix__pa078b4a028)" fill="none" stroke-dasharray="3.7 1.6" stroke="gray" stroke-opacity=".7" id="prefix__line2d_103"/><use xlink:href="#prefix__m32fc184cf5" x="108" y="1039.893" stroke="#000" stroke-width=".8" id="prefix__line2d_104"/><use xlink:href="#prefix__DejaVuSans-30" transform="matrix(.1 0 0 -.1 94.638 1043.693)" id="prefix__text_59"/></g><g id="prefix__ytick_17"><path d="M108 1004.489h669.6" clip-path="url(#prefix__pa078b4a028)" fill="none" stroke-dasharray="3.7 1.6" stroke="gray" stroke-opacity=".7" id="prefix__line2d_105"/><use xlink:href="#prefix__m32fc184cf5" x="108" y="1004.489" stroke="#000" stroke-width=".8" id="prefix__line2d_106"/><g transform="matrix(.1 0 0 -.1 88.275 1008.288)" id="prefix__text_60"><use xlink:href="#prefix__DejaVuSans-35"/><use xlink:href="#prefix__DejaVuSans-30" x="63.623"/></g></g><g id="prefix__ytick_18"><path d="M108 969.084h669.6" clip-path="url(#prefix__pa078b4a028)" fill="none" stroke-dasharray="3.7 1.6" stroke="gray" stroke-opacity=".7" id="prefix__line2d_107"/><use xlink:href="#prefix__m32fc184cf5" x="108" y="969.084" stroke="#000" stroke-width=".8" id="prefix__line2d_108"/><g transform="matrix(.1 0 0 -.1 81.912 972.883)" id="prefix__text_61"><use xlink:href="#prefix__DejaVuSans-31"/><use xlink:href="#prefix__DejaVuSans-30" x="63.623"/><use xlink:href="#prefix__DejaVuSans-30" x="127.246"/></g></g><g id="prefix__ytick_19"><path d="M108 933.68h669.6" clip-path="url(#prefix__pa078b4a028)" fill="none" stroke-dasharray="3.7 1.6" stroke="gray" stroke-opacity=".7" id="prefix__line2d_109"/><use xlink:href="#prefix__m32fc184cf5" x="108" y="933.679" stroke="#000" stroke-width=".8" id="prefix__line2d_110"/><g transform="matrix(.1 0 0 -.1 81.912 937.479)" id="prefix__text_62"><use xlink:href="#prefix__DejaVuSans-31"/><use xlink:href="#prefix__DejaVuSans-35" x="63.623"/><use xlink:href="#prefix__DejaVuSans-30" x="127.246"/></g></g><g transform="matrix(0 -.1 -.1 0 67.453 1079.1)" id="prefix__text_63"><defs><path id="prefix__DejaVuSans-53" d="M3425 4513v-616q-359 172-678 256-319 85-616 85-515 0-795-200t-280-569q0-310 186-468 186-157 705-254l381-78q706-135 1042-474t336-907q0-679-455-1029Q2797-91 1919-91q-331 0-705 75-373 75-773 222v650q384-215 753-325 369-109 725-109 540 0 834 212 294 213 294 607 0 343-211 537t-692 291l-385 75q-706 140-1022 440-315 300-315 835 0 619 436 975t1201 356q329 0 669-60 341-59 697-177z" transform="scale(.01563)"/><path id="prefix__DejaVuSans-67" d="M2906 1791q0 625-258 968-257 344-723 344-462 0-720-344-258-343-258-968 0-622 258-966t720-344q466 0 723 344 258 344 258 966zm575-1357q0-893-397-1329-396-436-1215-436-303 0-572 45t-522 139v559q253-137 500-202 247-66 503-66 566 0 847 295t281 892v285q-178-310-456-463T1784 0Q1141 0 747 490 353 981 353 1791q0 812 394 1302 394 491 1037 491 388 0 666-153t456-462v531h575V434z" transform="scale(.01563)"/></defs><use xlink:href="#prefix__DejaVuSans-53"/><use xlink:href="#prefix__DejaVuSans-6c" x="63.477"/><use xlink:href="#prefix__DejaVuSans-69" x="91.26"/><use xlink:href="#prefix__DejaVuSans-64" x="119.043"/><use xlink:href="#prefix__DejaVuSans-69" x="182.52"/><use xlink:href="#prefix__DejaVuSans-6e" x="210.303"/><use xlink:href="#prefix__DejaVuSans-67" x="273.682"/><use xlink:href="#prefix__DejaVuSans-20" x="337.158"/><use xlink:href="#prefix__DejaVuSans-50" x="368.945"/><use xlink:href="#prefix__DejaVuSans-61" x="424.748"/><use xlink:href="#prefix__DejaVuSans-72" x="486.027"/><use xlink:href="#prefix__DejaVuSans-61" x="527.141"/><use xlink:href="#prefix__DejaVuSans-6d" x="588.42"/><use xlink:href="#prefix__DejaVuSans-65" x="685.832"/><use xlink:href="#prefix__DejaVuSans-74" x="747.355"/><use xlink:href="#prefix__DejaVuSans-65" x="786.564"/><use xlink:href="#prefix__DejaVuSans-72" x="848.088"/></g></g><path d="M138.436 1039.213l4.064.336 1.625-.118 1.626-.289 3.25-.889 2.439-.082 2.438.246 1.625-.158 4.064-.884 3.251-.416 8.94-2.237 3.25-1.174 2.439-.587 2.438-.376 3.251-.21 3.25-.014 2.439.175 2.438.342 2.438.527 3.251.939 4.877 1.712 5.689 1.997 4.063 1.198 4.064.974 5.689 1.104 10.565 1.763 13.004 2.037 4.063.358 3.251.103 3.251-.109 2.438-.255 3.251-.586 4.876-1.01 1.626-.086 1.625.28 4.064.96 2.438.296 2.438.073 4.877.05 2.438.357 1.625.382 7.315 2.259 4.063.7 1.626.31 4.063.958 1.626.029 1.625-.358 1.626-.757 6.501-3.767 2.438-1.074 2.439-.856 2.438-.637 2.438-.42 3.25-.322 3.252-.087 2.438.117 3.25.43 7.315 1.237 2.438.017 3.251-.258 3.251-.485 4.064-.979 4.063-1.203 9.753-3.11 2.438-.399 2.438-.157 2.438.055 3.251.352 4.064.747 13.816 2.82 5.69.366 4.876.089 4.876-.142 4.876-.38 4.064-.519 8.127-1.199 3.25-.107 4.064.093 4.877.353 6.502.537 4.876-.038 8.94-.206 23.569-.015 258.445.007h0" clip-path="url(#prefix__pa078b4a028)" fill="none" stroke="#1f77b4" stroke-width="1.5" stroke-linecap="square" id="prefix__line2d_111"/><path d="M138.436 1051.28l4.064.488 3.25.466 1.626.033 1.626-.312 1.625-.678 4.876-2.531 3.251-1.387 4.877-1.908 3.25-1.685 8.94-4.754 2.439-1.218 3.25-1.914 3.251-1.775 3.251-1.524 3.251-1.234 3.251-.99 3.25-.718 2.44-.346 2.437-.176 3.251.019 3.251.264 4.064.575 4.876.925 4.064.96 4.063 1.174 4.064 1.408 4.063 1.644 4.064 1.881 1.625.77 3.251 1.176 4.064 1.21 4.063.965 4.877.896 7.314 1.08 3.251.353 5.69.216 5.688-.342 3.251-.34 2.438-.422 2.438-.65 5.69-1.904 2.438-.636 4.063-1.293 3.251-.75 2.438-.411 2.438-.237 2.439-.033 4.876.07 6.502-.327 3.25.078 3.251.314 3.251.608 3.251.881 5.69 1.745 2.437.413 2.439.161 2.438-.023 2.438-.207 3.25-.524 4.064-.665 4.877-.39 11.378-.738 4.063.139 20.318.805 8.128.024 9.752.462 5.69-.015 4.876-.216 5.689-.295 5.689-.03 18.692-.046 8.94.009 19.505.028 208.87.001 54.452-.004h0" clip-path="url(#prefix__pa078b4a028)" fill="none" stroke="#ff7f0e" stroke-width="1.5" stroke-linecap="square" id="prefix__line2d_112"/><path d="M138.436 1040.573l2.439-.02 4.063.332 1.626.341 3.25.917 1.626.2 1.625-.006 3.251-.234 4.064-.646 2.438-.59 3.25-.836 2.439-.336 4.876-.579 1.626-.316 4.063-1.161 3.251-.948 2.438-.48 6.502-1.073 6.502-1.243 3.25-.414 3.252-.219 4.063-.036 4.877.205 13.003.93 8.127.71 6.502.793 12.19 1.791 3.252.671 7.314 1.804 1.626.151 1.625-.067 4.876-.746 3.251-.105 4.064.149 8.127.577 1.626-.229 1.625-.527 1.625-.651 5.69-1.864 3.25-1.775 2.439-1.366 4.063-2.544 1.626-.772 1.625-.464 1.625-.224 1.626-.026 2.438.212 2.438.416 4.064.97 3.25.954 3.252 1.222 2.438 1.127 3.25 1.773 8.128 4.785 1.625.577 2.438.482 2.439.222 4.063.012 2.438-.14 3.251-.457 2.438-.547 3.251-1.01 2.438-.679 2.439-.487 2.438-.262 3.25-.064 4.877.148 3.25.283 4.064.446 4.064.225 5.689.077 7.315.075 13.003.688 4.064-.078 4.063-.321 4.064-.315 4.063-.1 34.135-.084 27.632.01h251.13" clip-path="url(#prefix__pa078b4a028)" fill="none" stroke="#2ca02c" stroke-width="1.5" stroke-linecap="square" id="prefix__line2d_113"/><path d="M138.436 937.146l.813 1.37.813 2.748.813 4.773 2.438 20.552.812 7.77 1.626 18.987 4.063 55.868 1.626 18.308.813 8.138.812 6.908.813 3.798.813 2.273.812 1.034.813.043.813-.755.813-1.851.812-3.233.813-4.134.813-5.055 1.625-12.778 1.626-12.431.812-4.958.813-4.112.813-3.417 1.625-5.34 1.626-4.004.812-1.688.813-1.186.813-.7.813.341.812 2.341 2.438 9.628.813 2.673.813 1.573.813.758.812-.22.813-.821.813-1.296.813-1.727 4.063-10.065.813-2.568.813-3.395 1.625-8.544 4.064-22.36 1.625-7.492 1.625-5.825.813-2.32.813-1.929.813-1.55.812-1.183.813-.83.813-.486.813-.157.812.156.813.448.813.73.812.977 1.626 2.593 1.625 3.27 2.438 5.688 4.877 11.764 2.438 5.192 2.438 4.51 2.438 3.888 2.438 3.392 2.439 3.028 3.25 3.68 5.69 6.013 3.25 3.272 3.251 2.802 1.626 1.107 1.625.8 1.626.479 1.625.177 1.625-.085 1.626-.297 2.438-.721 2.438-.949 2.438-1.011.813-.161.813.222 2.438-.593 1.625-.7.813-.573.813-.788.813-1.052.812-1.285 1.626-3.733 1.625-4.393.813-1.92.813-1.578.812-1.169.813-.725.813-.284.812.143.813.525.813.86.813 1.14 1.625 2.883 2.438 5.084 1.626 3.732 4.063 9.936.813 1.2.813.646.812-.111.813-.517.813-.882.813-1.265.812-1.579 1.626-3.663 1.625-1.03.813-.423.813-.125.812-.272.813-.5.813-.837.813-1.238.812-2.182 1.626-10.766 1.625-11.244 1.626-9.496 1.625-7.017 1.625-6.282.813-2.367.813-1.637.813-.974.812-.502.813-.05.813.404.812.85.813 1.278 7.315 14.258 1.625 4.221 1.626 5.107 1.625 6.14 1.625 7.202 1.626 8.227 4.876 26.407.813 3.581.813 3.07.812 2.47.813 1.688 1.626 1.966.812.775.813.206.813-.36.812-.846.813-1.23 1.626-3.244 1.625-3.499 2.438-4.992 1.626-3.375.812-1.267.813-1.023 1.625-1.547 1.626-1.139 2.438-1.338 3.251-1.656 3.25-1.27 1.626-1.34 3.251-1.291 1.626-.255 4.063-.83 1.626-.027 1.625.25 1.626.567.812.483 1.626 1.445 1.625 1.837 5.69 7.025 1.625 1.459.812.534.813.35.813.078.812-.411 1.626-1.303.813-.472.812-.276.813-.105 1.626.154 2.438.682 5.689 1.784 2.438.486 2.438.207 1.625-.056 1.626-.234 1.625-.433 1.626-.652 2.438-1.15.813-.045 3.25.335.813-.113.813.064 2.438-.562 2.438-.578 2.438-.343 2.439-.075 2.438.147 4.063.382.813-.074 4.064-1.353 1.625-.23 2.438-.103 2.438.109 4.877.477 6.502.126 12.19.003 36.573-.061 29.258.001 16.254.001 12.19.039 13.817-.05 155.23.014h0" clip-path="url(#prefix__pa078b4a028)" fill="none" stroke="#d62728" stroke-width="1.5" stroke-linecap="square" id="prefix__line2d_114"/><path d="M138.436 1142.64l.813-32.787.813-14.256.813-8.04 1.625-12.316 1.625-10.905 4.064-25.049.813-2.907.812.516.813 5.803.813 6.67.813 5.373.812 2.702.813-5.038.813-6.818 2.438-23.872.813-6.509 2.438-14.902 4.063-22.925 1.626-7.688 6.502-28.079.812-1.91.813-.714.813.054.812.914.813 1.82.813 3.265.813 4.289.812 5.354.813 7.384 1.626 18.868 1.625 23.098 2.438 39.957.813 9.99.813 6.94.812 5.138.813 4.104.813 3.356.812 2.708.813 2.111.813 1.552.813 1.017.812.57.813.222.813-.056.812-.258.813-.438.813-.599 1.625-1.601.813-.984 1.626-2.606 2.438-4.586 3.25-6.717 8.128-17.148 3.25-6.16 4.064-7.105 4.877-8.113 2.438-3.674 2.438-3.308 2.438-2.983 3.25-3.643 1.626-1.813 4.064-6.294 5.689-7.355 2.438-3.597 1.626-2.712 1.625-3.13.813-1.86 1.625-5.016 1.626-5.234 1.625-7.267.813-2.484.813-3.305 1.625-8.152 1.625-9.264 1.626-10.495.813-5.756.812-1.347.813.858.813 1.957.812 2.67 1.626 6.666 3.25 15.355 3.252 17.415 2.438 13.42 4.876 28.458.813 3.772.813 1.713.812-.523 1.626-1.468 2.438-5.991 2.438-6.781.813-2.91.812.791 1.626 3.51 1.625 2.457 1.626 2.867 1.625 3.632.813.782.813 1.336.812 2.35.813 3.434 1.626 9.3 1.625 12.242 1.625 12.252 1.626 10.602 1.625 9.006 1.626 7.93 1.625 7.143 1.626 6.362 1.625 5.509 1.626 4.799 2.438 6.317 2.438 6.055 4.876 10.957 1.626 3.358 1.625 2.815.813 1.048.812.73.813.342.813-.123.813-.66.812-1.26.813-1.929.813-2.578.813-3.15.812-3.806.813-4.55 1.625-11.108 1.626-13.604 1.625-16.256.813-9.237.813-10.668.812-12.971.813-16.357.813-10.792 1.625-6.671.813-2.428.813-1.954.812-1.568.813-1.239.813-.933.813-.633.812-.33.813-.018.813.308.813.653.812 1.075.813 1.753.813 2.726.812 3.965.813 5.671.813 8.412 1.625 28.755.813 1.744 4.064 17.85.812 3.176.813 2.487.813 1.987.812 1.66.813 1.365.813 1.076.813.802.812.593.813.436.813.299.813.18.812-.126.813-.58.813-.899 1.625-2.286 1.626-2.944 1.625-3.73.813-2.235.812-2.56.813-2.961.813-3.464.813-4.137.812-5.125.813-6.846.813-10.493.812-17.108.813-1.68.813-2.732.813-1.874.812-1.53.813-1.124.813-.837.813-.624 1.625-.848.813-.263 1.625-.19 5.69-.116 1.625-.33.812-.237 1.626-.073 2.438.15 1.625.27 1.626.481 1.625.796.813.782.813 1.555.812 2.524.813 3.72.813 5.56.813 9.752.812 16.109.813-1.167.813 2.119 1.625 2.645 1.626 2.048 1.625 1.483.813.565.812.341.813.071.813-.143.813-.363.812-.596.813-.852.813-1.141.813-1.493.812-1.93.813-2.53.813-3.479.812-5.466.813-8.488.813-7.036.813-1.474.812.334.813-.329.813-.061.812.092.813.313.813.589.813.947.812 1.444.813 2.241 1.625 5.485.813 1.63.813.81.813.636.812-.088 2.439-1.498.812-.189 8.127-.08 6.502-.35 10.566-.643 4.063.041 5.69.36 6.501.379 3.25-.05 1.626-.194 2.438-.37 4.877-.385 3.25.013 1.626.31 1.626.365 4.063.429 3.251.1.813-.026 1.625-.34 1.626-.394 3.25-.381 3.251-.176 1.626.03 1.625.368 1.626.39 4.063.442 2.438.099 1.626-.051 4.876-.954 3.251-.283 2.438-.033.813.061 4.876.94 3.251.275 2.438.029 1.626-.238 2.438-.57 4.064-.417 2.438-.086 1.625.085 4.064.836 4.063.363 2.438.023 1.626-.253 2.438-.56 4.064-.412 2.438-.08 1.625.097 4.064.83 4.063.357 2.439.017 1.625-.268 2.438-.55 4.064-.407 2.438-.075 1.625.109 4.064.822 4.064.352 2.438.014 1.625-.275 2.438-.543 4.064-.404 2.438-.074 1.626.112 4.063.82 4.064.35 2.438.013 1.625-.277 2.439-.542 4.063-.404 2.438-.072 1.626.114 4.063.82 4.064.35 2.438.011 1.626-.283 2.438-.539 4.063-.403 2.438-.07 1.626.12 3.25.724 4.064.4 2.439.069 1.625-.122 3.25-.725 4.064-.4 2.439-.067 1.625.13 3.251.723 4.064.398 2.438.063 1.625-.137 3.251-.722 4.064-.396h0" clip-path="url(#prefix__pa078b4a028)" fill="none" stroke="#9467bd" stroke-width="1.5" stroke-linecap="square" id="prefix__line2d_115"/><path d="M138.436 937.146l3.251 36.777 2.438 22.035 2.439 19.49 1.625 12.04.813 4.556.812 2.503.813.588.813-1.103.813-2.724 1.625-7.935.813-2.505.812-1.327.813-.313.813.468.813.704.812.503.813.786 3.251 3.725.813.003.812-.85.813-1.424 3.251-6.95 1.625-2.688.813-.95.813-.513.813.233.812 1.554.813 2.984.813 4.18.812 5.542 1.626 13.498 2.438 21.65.813 5.55.813 4.674.812 3.763.813 2.89.813 2.114 1.625 3.059 1.626 3.38.812 1.174.813.583.813.018.812-.492.813-.949.813-1.355 1.625-3.688 1.626-4.445 4.063-12.229 2.439-7.127 2.438-6.414 1.625-3.807 1.626-3.395 1.625-2.97 1.625-2.537 1.626-2.093 1.625-1.639 1.626-1.211 1.625-.842 1.626-.557 2.438-.503 4.876-.602 5.69-.71 3.25-.637 2.438-.725 1.626-.645.812-.775 1.626-2.125 2.438-2.58 4.876-4.673 2.438-2.124 2.439-1.8 1.625-.985 3.25-1.719.814-.618.812-.199.813-.05.813 1.115.813.228.812.368.813.514.813.664 1.625 1.75 1.626 2.167 1.625 5.834.813 2.31.812 1.715.813 1.172.813.666.813.215.812-.142.813-.404 1.625-1.257 2.439-1.996 1.625-.917.813-.275.813-.14.812.003.813.155.813-.107.812.053.813.195.813-.129.813-1.947 2.438-8.042 3.25-8.163 1.626-4.199.813-1.58 1.625 1.358 3.251 2.199 1.626.865 1.625 1.253.813 1.67.812 2.82.813 3.868 1.626 10.029 2.438 15.977 1.625 8.876 1.626 6.942 1.625 5.647 1.625 4.545 1.626 3.457 1.625 2.758 1.626 2.23 1.625 1.681 1.626 1.233 1.625 1 1.626.718.812.218.813.097.813-.048.812-.222.813-.435.813-.69.813-.995.812-1.362.813-1.709.813-2.081.812-2.47 1.626-6.05 3.25-14.317 3.252-15.257.812-3.046.813-2.555.813-2.056.813-1.581 2.438-3.71.812-.701.813-.464.813.427.813 1.046 3.25 4.91 3.251 4.71 1.626 2.727 1.625 3.193 1.626 4.278 3.25 9.76.813 1.393.813.986 2.438 5.005 1.626 3.31.812.867.813.268.813.025.812-.192.813-.413.813-.62.813-.808 1.625-2.097 1.626-2.624.812-1.603 4.064-9.261 4.063-8.742 2.439-4.905 2.438-4.352.812-.977.813.158.813.305.813.624 3.25 2.978 1.626 1.016 1.625.708 2.439.755 6.501 1.84 3.251 1.119 2.438 1.017 2.439 1.238.812.473.813.758 1.625 2.14 2.439 3.677.812.555.813-.307 4.876-.735 1.626-.679 1.625-.977 1.626-1.209 2.438-2.168 3.25-3.331.813-.877.813-.601.813.243 1.625 1.153 6.502 3.384.813.264.812.003 1.626-.411 2.438-.648 1.626-.133 11.378-.01 11.378-.012 17.067.177 12.19-.226 12.191.262 10.566-.286 12.19.284 9.753-.299 5.69.246 4.063.112 4.876-.136 6.502-.238 4.876.139 6.502.234 4.876-.14 6.502-.232 4.876.141 6.502.23 4.876-.142 6.502-.228 4.877.144 6.501.225 4.877-.143 6.501-.225 4.877.144 6.501.224 4.877-.144 6.502-.224 4.876.145 6.502.223 4.876-.145 6.502-.223 4.876.146 6.502.222 4.876-.146 6.502-.222 4.876.149 5.69.223 4.876-.115 7.314-.257 4.064.114h0" clip-path="url(#prefix__pa078b4a028)" fill="none" stroke="#8c564b" stroke-width="1.5" stroke-linecap="square" id="prefix__line2d_116"/><path d="M108 1153.44v-237.6" fill="none" stroke="#000" stroke-width=".8" stroke-linecap="square" id="prefix__patch_15"/><path d="M777.6 1153.44v-237.6" fill="none" stroke="#000" stroke-width=".8" stroke-linecap="square" id="prefix__patch_16"/><path d="M108 1153.44h669.6" fill="none" stroke="#000" stroke-width=".8" stroke-linecap="square" id="prefix__patch_17"/><path d="M108 915.84h669.6" fill="none" stroke="#000" stroke-width=".8" stroke-linecap="square" id="prefix__patch_18"/><g transform="matrix(.12 0 0 -.12 365.58 909.84)" id="prefix__text_64"><defs><path id="prefix__DejaVuSans-57" d="M213 4666h637l981-3944 978 3944h710l981-3944 978 3944h641L4947 0h-794l-984 4050L2175 0h-794L213 4666z" transform="scale(.01563)"/><path id="prefix__DejaVuSans-2b" d="M2944 4013V2272h1740v-531H2944V0h-525v1741H678v531h1741v1741h525z" transform="scale(.01563)"/><path id="prefix__DejaVuSans-39b" d="M716 0H50l1781 4666h716L4325 0h-656L2188 4044 716 0z" transform="scale(.01563)"/></defs><use xlink:href="#prefix__DejaVuSans-53" transform="translate(0 .516)"/><use xlink:href="#prefix__DejaVuSans-6c" transform="translate(63.477 .516)"/><use xlink:href="#prefix__DejaVuSans-69" transform="translate(91.26 .516)"/><use xlink:href="#prefix__DejaVuSans-64" transform="translate(119.043 .516)"/><use xlink:href="#prefix__DejaVuSans-69" transform="translate(182.52 .516)"/><use xlink:href="#prefix__DejaVuSans-6e" transform="translate(210.303 .516)"/><use xlink:href="#prefix__DejaVuSans-67" transform="translate(273.682 .516)"/><use xlink:href="#prefix__DejaVuSans-20" transform="translate(337.158 .516)"/><use xlink:href="#prefix__DejaVuSans-57" transform="translate(368.945 .516)"/><use xlink:href="#prefix__DejaVuSans-69" transform="translate(467.822 .516)"/><use xlink:href="#prefix__DejaVuSans-6e" transform="translate(495.605 .516)"/><use xlink:href="#prefix__DejaVuSans-64" transform="translate(558.984 .516)"/><use xlink:href="#prefix__DejaVuSans-6f" transform="translate(622.46 .516)"/><use xlink:href="#prefix__DejaVuSans-77" transform="translate(683.643 .516)"/><use xlink:href="#prefix__DejaVuSans-20" transform="translate(765.43 .516)"/><use xlink:href="#prefix__DejaVuSans-Oblique-73" transform="translate(797.217 .516)"/><use xlink:href="#prefix__DejaVuSans-3d" transform="translate(868.799 .516)"/><use xlink:href="#prefix__DejaVuSans-307" transform="translate(1029.785 13.016)"/><use xlink:href="#prefix__DejaVuSans-Oblique-65" transform="translate(972.07 .516)"/><use xlink:href="#prefix__DejaVuSans-2b" transform="translate(1053.076 .516)"/><use xlink:href="#prefix__DejaVuSans-39b" transform="translate(1156.348 .516)"/><use xlink:href="#prefix__DejaVuSans-Oblique-65" transform="translate(1224.756 .516)"/></g><g id="prefix__legend_3"><path d="M233.922 938.796H770.6q2 0 2-2V922.84q0-2-2-2H233.922q-2 0-2 2v13.956q0 2 2 2z" fill="#fff" opacity=".8" stroke="#ccc" id="prefix__patch_19"/><path d="M235.922 928.938h20" fill="none" stroke="#1f77b4" stroke-width="1.5" stroke-linecap="square" id="prefix__line2d_117"/><g transform="matrix(.1 0 0 -.1 263.922 932.438)" id="prefix__text_65"><use xlink:href="#prefix__DejaVuSans-73"/><use xlink:href="#prefix__DejaVuSans-68" x="52.1"/><use xlink:href="#prefix__DejaVuSans-6f" x="115.479"/><use xlink:href="#prefix__DejaVuSans-75" x="176.66"/><use xlink:href="#prefix__DejaVuSans-6c" x="240.039"/><use xlink:href="#prefix__DejaVuSans-64" x="267.822"/><use xlink:href="#prefix__DejaVuSans-65" x="331.299"/><use xlink:href="#prefix__DejaVuSans-72" x="392.822"/><use xlink:href="#prefix__DejaVuSans-5f" x="433.936"/><use xlink:href="#prefix__DejaVuSans-70" x="483.936"/><use xlink:href="#prefix__DejaVuSans-61" x="547.412"/><use xlink:href="#prefix__DejaVuSans-6e" x="608.691"/></g><path d="M351.13 928.938h20" fill="none" stroke="#ff7f0e" stroke-width="1.5" stroke-linecap="square" id="prefix__line2d_118"/><g transform="matrix(.1 0 0 -.1 379.13 932.438)" id="prefix__text_66"><use xlink:href="#prefix__DejaVuSans-73"/><use xlink:href="#prefix__DejaVuSans-68" x="52.1"/><use xlink:href="#prefix__DejaVuSans-6f" x="115.479"/><use xlink:href="#prefix__DejaVuSans-75" x="176.66"/><use xlink:href="#prefix__DejaVuSans-6c" x="240.039"/><use xlink:href="#prefix__DejaVuSans-64" x="267.822"/><use xlink:href="#prefix__DejaVuSans-65" x="331.299"/><use xlink:href="#prefix__DejaVuSans-72" x="392.822"/><use xlink:href="#prefix__DejaVuSans-5f" x="433.936"/><use xlink:href="#prefix__DejaVuSans-6c" x="483.936"/><use xlink:href="#prefix__DejaVuSans-69" x="511.719"/><use xlink:href="#prefix__DejaVuSans-66" x="539.502"/><use xlink:href="#prefix__DejaVuSans-74" x="572.957"/></g><path d="M460.345 928.938h20" fill="none" stroke="#2ca02c" stroke-width="1.5" stroke-linecap="square" id="prefix__line2d_119"/><g transform="matrix(.1 0 0 -.1 488.345 932.438)" id="prefix__text_67"><use xlink:href="#prefix__DejaVuSans-65"/><use xlink:href="#prefix__DejaVuSans-6c" x="61.523"/><use xlink:href="#prefix__DejaVuSans-62" x="89.307"/><use xlink:href="#prefix__DejaVuSans-6f" x="152.783"/><use xlink:href="#prefix__DejaVuSans-77" x="213.965"/></g><path d="M537.922 928.938h20" fill="none" stroke="#d62728" stroke-width="1.5" stroke-linecap="square" id="prefix__line2d_120"/><g transform="matrix(.1 0 0 -.1 565.922 932.438)" id="prefix__text_68"><use xlink:href="#prefix__DejaVuSans-77"/><use xlink:href="#prefix__DejaVuSans-72" x="81.787"/><use xlink:href="#prefix__DejaVuSans-69" x="122.9"/><use xlink:href="#prefix__DejaVuSans-73" x="150.684"/><use xlink:href="#prefix__DejaVuSans-74" x="202.783"/><use xlink:href="#prefix__DejaVuSans-5f" x="241.992"/><use xlink:href="#prefix__DejaVuSans-31" x="291.992"/></g><path d="M621.481 928.938h20" fill="none" stroke="#9467bd" stroke-width="1.5" stroke-linecap="square" id="prefix__line2d_121"/><g transform="matrix(.1 0 0 -.1 649.481 932.438)" id="prefix__text_69"><use xlink:href="#prefix__DejaVuSans-77"/><use xlink:href="#prefix__DejaVuSans-72" x="81.787"/><use xlink:href="#prefix__DejaVuSans-69" x="122.9"/><use xlink:href="#prefix__DejaVuSans-73" x="150.684"/><use xlink:href="#prefix__DejaVuSans-74" x="202.783"/><use xlink:href="#prefix__DejaVuSans-5f" x="241.992"/><use xlink:href="#prefix__DejaVuSans-32" x="291.992"/></g><path d="M705.04 928.938h20" fill="none" stroke="#8c564b" stroke-width="1.5" stroke-linecap="square" id="prefix__line2d_122"/><g transform="matrix(.1 0 0 -.1 733.04 932.438)" id="prefix__text_70"><use xlink:href="#prefix__DejaVuSans-77"/><use xlink:href="#prefix__DejaVuSans-72" x="81.787"/><use xlink:href="#prefix__DejaVuSans-69" x="122.9"/><use xlink:href="#prefix__DejaVuSans-73" x="150.684"/><use xlink:href="#prefix__DejaVuSans-74" x="202.783"/><use xlink:href="#prefix__DejaVuSans-5f" x="241.992"/><use xlink:href="#prefix__DejaVuSans-33" x="291.992"/></g></g></g></g><defs><clipPath id="prefix__p81d0c12974"><path d="M108 155.52h669.6v237.6H108z"/></clipPath><clipPath id="prefix__p74223be7c9"><path d="M108 535.68h669.6v237.6H108z"/></clipPath><clipPath id="prefix__pa078b4a028"><path d="M108 915.84h669.6v237.6H108z"/></clipPath></defs></svg>