<svg xmlns:xlink="http://www.w3.org/1999/xlink" width="1152" height="1152" viewBox="0 0 864 864" xmlns="http://www.w3.org/2000/svg"><defs><style>*{stroke-linejoin:round;stroke-linecap:butt}</style></defs><g id="prefix__figure_1"><path d="M0 864h864V0H0z" fill="#fff" id="prefix__patch_1"/><g id="prefix__axes_1"><path d="M108 359.557h669.6V103.68H108z" fill="#fff" id="prefix__patch_2"/><g id="prefix__matplotlib_axis_1"><g id="prefix__xtick_1"><path d="M138.436 359.557V103.68" clip-path="url(#prefix__p1936c0d740)" fill="none" stroke-dasharray="3.7 1.6" stroke="gray" stroke-opacity=".7" id="prefix__line2d_1"/><g id="prefix__line2d_2"><defs><path id="prefix__mcf90b15c90" d="M0 0v3.5" stroke="#000" stroke-width=".8"/></defs><use xlink:href="#prefix__mcf90b15c90" x="138.436" y="359.557" stroke="#000" stroke-width=".8"/></g><g transform="matrix(.1 0 0 -.1 130.485 374.155)" id="prefix__text_1"><defs><path id="prefix__DejaVuSans-30" d="M2034 4250q-487 0-733-480-245-479-245-1442 0-959 245-1439 246-480 733-480 491 0 736 480 246 480 246 1439 0 963-246 1442-245 480-736 480zm0 500q785 0 1199-621 414-620 414-1801 0-1178-414-1799Q2819-91 2034-91q-784 0-1198 620-414 621-414 1799 0 1181 414 1801 414 621 1198 621z" transform="scale(.01563)"/><path id="prefix__DejaVuSans-2e" d="M684 794h660V0H684v794z" transform="scale(.01563)"/></defs><use xlink:href="#prefix__DejaVuSans-30"/><use xlink:href="#prefix__DejaVuSans-2e" x="63.623"/><use xlink:href="#prefix__DejaVuSans-30" x="95.41"/></g></g><g id="prefix__xtick_2"><path d="M219.708 359.557V103.68" clip-path="url(#prefix__p1936c0d740)" fill="none" stroke-dasharray="3.7 1.6" stroke="gray" stroke-opacity=".7" id="prefix__line2d_3"/><use xlink:href="#prefix__mcf90b15c90" x="219.708" y="359.557" stroke="#000" stroke-width=".8" id="prefix__line2d_4"/><g transform="matrix(.1 0 0 -.1 211.757 374.155)" id="prefix__text_2"><defs><path id="prefix__DejaVuSans-32" d="M1228 531h2203V0H469v531q359 372 979 998 621 627 780 809 303 340 423 576 121 236 121 464 0 372-261 606-261 235-680 235-297 0-627-103-329-103-704-313v638q381 153 712 231 332 78 607 78 725 0 1156-363 431-362 431-968 0-288-108-546-107-257-392-607-78-91-497-524-418-433-1181-1211z" transform="scale(.01563)"/></defs><use xlink:href="#prefix__DejaVuSans-30"/><use xlink:href="#prefix__DejaVuSans-2e" x="63.623"/><use xlink:href="#prefix__DejaVuSans-32" x="95.41"/></g></g><g id="prefix__xtick_3"><path d="M300.98 359.557V103.68" clip-path="url(#prefix__p1936c0d740)" fill="none" stroke-dasharray="3.7 1.6" stroke="gray" stroke-opacity=".7" id="prefix__line2d_5"/><use xlink:href="#prefix__mcf90b15c90" x="300.98" y="359.557" stroke="#000" stroke-width=".8" id="prefix__line2d_6"/><g transform="matrix(.1 0 0 -.1 293.029 374.155)" id="prefix__text_3"><defs><path id="prefix__DejaVuSans-34" d="M2419 4116L825 1625h1594v2491zm-166 550h794V1625h666v-525h-666V0h-628v1100H313v609l1940 2957z" transform="scale(.01563)"/></defs><use xlink:href="#prefix__DejaVuSans-30"/><use xlink:href="#prefix__DejaVuSans-2e" x="63.623"/><use xlink:href="#prefix__DejaVuSans-34" x="95.41"/></g></g><g id="prefix__xtick_4"><path d="M382.252 359.557V103.68" clip-path="url(#prefix__p1936c0d740)" fill="none" stroke-dasharray="3.7 1.6" stroke="gray" stroke-opacity=".7" id="prefix__line2d_7"/><use xlink:href="#prefix__mcf90b15c90" x="382.252" y="359.557" stroke="#000" stroke-width=".8" id="prefix__line2d_8"/><g transform="matrix(.1 0 0 -.1 374.3 374.155)" id="prefix__text_4"><defs><path id="prefix__DejaVuSans-36" d="M2113 2584q-425 0-674-291-248-290-248-796 0-503 248-796 249-292 674-292t673 292q248 293 248 796 0 506-248 796-248 291-673 291zm1253 1979v-575q-238 112-480 171-242 60-480 60-625 0-955-422-329-422-376-1275 184 272 462 417 279 145 613 145 703 0 1111-427 408-426 408-1160 0-719-425-1154Q2819-91 2113-91q-810 0-1238 620-428 621-428 1799 0 1106 525 1764t1409 658q238 0 480-47t505-140z" transform="scale(.01563)"/></defs><use xlink:href="#prefix__DejaVuSans-30"/><use xlink:href="#prefix__DejaVuSans-2e" x="63.623"/><use xlink:href="#prefix__DejaVuSans-36" x="95.41"/></g></g><g id="prefix__xtick_5"><path d="M463.524 359.557V103.68" clip-path="url(#prefix__p1936c0d740)" fill="none" stroke-dasharray="3.7 1.6" stroke="gray" stroke-opacity=".7" id="prefix__line2d_9"/><use xlink:href="#prefix__mcf90b15c90" x="463.524" y="359.557" stroke="#000" stroke-width=".8" id="prefix__line2d_10"/><g transform="matrix(.1 0 0 -.1 455.573 374.155)" id="prefix__text_5"><defs><path id="prefix__DejaVuSans-38" d="M2034 2216q-450 0-708-241-257-241-257-662 0-422 257-663 258-241 708-241t709 242q260 243 260 662 0 421-258 662-257 241-711 241zm-631 268q-406 100-633 378-226 279-226 679 0 559 398 884 399 325 1092 325 697 0 1094-325t397-884q0-400-227-679-226-278-629-378 456-106 710-416 255-309 255-755 0-679-414-1042Q2806-91 2034-91q-771 0-1186 362-414 363-414 1042 0 446 256 755 257 310 713 416zm-231 997q0-362 226-565 227-203 636-203 407 0 636 203 230 203 230 565 0 363-230 566-229 203-636 203-409 0-636-203-226-203-226-566z" transform="scale(.01563)"/></defs><use xlink:href="#prefix__DejaVuSans-30"/><use xlink:href="#prefix__DejaVuSans-2e" x="63.623"/><use xlink:href="#prefix__DejaVuSans-38" x="95.41"/></g></g><g id="prefix__xtick_6"><path d="M544.796 359.557V103.68" clip-path="url(#prefix__p1936c0d740)" fill="none" stroke-dasharray="3.7 1.6" stroke="gray" stroke-opacity=".7" id="prefix__line2d_11"/><use xlink:href="#prefix__mcf90b15c90" x="544.796" y="359.557" stroke="#000" stroke-width=".8" id="prefix__line2d_12"/><g transform="matrix(.1 0 0 -.1 536.845 374.155)" id="prefix__text_6"><defs><path id="prefix__DejaVuSans-31" d="M794 531h1031v3560L703 3866v575l1116 225h631V531h1031V0H794v531z" transform="scale(.01563)"/></defs><use xlink:href="#prefix__DejaVuSans-31"/><use xlink:href="#prefix__DejaVuSans-2e" x="63.623"/><use xlink:href="#prefix__DejaVuSans-30" x="95.41"/></g></g><g id="prefix__xtick_7"><path d="M626.068 359.557V103.68" clip-path="url(#prefix__p1936c0d740)" fill="none" stroke-dasharray="3.7 1.6" stroke="gray" stroke-opacity=".7" id="prefix__line2d_13"/><use xlink:href="#prefix__mcf90b15c90" x="626.068" y="359.557" stroke="#000" stroke-width=".8" id="prefix__line2d_14"/><g transform="matrix(.1 0 0 -.1 618.117 374.155)" id="prefix__text_7"><use xlink:href="#prefix__DejaVuSans-31"/><use xlink:href="#prefix__DejaVuSans-2e" x="63.623"/><use xlink:href="#prefix__DejaVuSans-32" x="95.41"/></g></g><g id="prefix__xtick_8"><path d="M707.34 359.557V103.68" clip-path="url(#prefix__p1936c0d740)" fill="none" stroke-dasharray="3.7 1.6" stroke="gray" stroke-opacity=".7" id="prefix__line2d_15"/><use xlink:href="#prefix__mcf90b15c90" x="707.34" y="359.557" stroke="#000" stroke-width=".8" id="prefix__line2d_16"/><g transform="matrix(.1 0 0 -.1 699.389 374.155)" id="prefix__text_8"><use xlink:href="#prefix__DejaVuSans-31"/><use xlink:href="#prefix__DejaVuSans-2e" x="63.623"/><use xlink:href="#prefix__DejaVuSans-34" x="95.41"/></g></g><g transform="matrix(.1 0 0 -.1 422.471 387.833)" id="prefix__text_9"><defs><path id="prefix__DejaVuSans-54" d="M-19 4666h3947v-532H2272V0h-634v4134H-19v532z" transform="scale(.01563)"/><path id="prefix__DejaVuSans-69" d="M603 3500h575V0H603v3500zm0 1363h575v-729H603v729z" transform="scale(.01563)"/><path id="prefix__DejaVuSans-6d" d="M3328 2828q216 388 516 572t706 184q547 0 844-383 297-382 297-1088V0h-578v2094q0 503-179 746-178 244-543 244-447 0-707-297-259-296-259-809V0h-578v2094q0 506-178 748t-550 242q-441 0-701-298-259-298-259-808V0H581v3500h578v-544q197 322 472 475t653 153q382 0 649-194 267-193 395-562z" transform="scale(.01563)"/><path id="prefix__DejaVuSans-65" d="M3597 1894v-281H953q38-594 358-905t892-311q331 0 642 81t618 244V178Q3153 47 2828-22t-659-69q-838 0-1327 487-489 488-489 1320 0 859 464 1363 464 505 1252 505 706 0 1117-455 411-454 411-1235zm-575 169q-6 471-264 752-258 282-683 282-481 0-770-272t-333-766l2050 4z" transform="scale(.01563)"/><path id="prefix__DejaVuSans-28" d="M1984 4856q-418-718-622-1422-203-703-203-1425 0-721 205-1429t620-1424h-500Q1016-109 783 600T550 2009q0 697 231 1403 232 707 703 1444h500z" transform="scale(.01563)"/><path id="prefix__DejaVuSans-73" d="M2834 3397v-544q-243 125-506 187-262 63-544 63-428 0-642-131t-214-394q0-200 153-314t616-217l197-44q612-131 870-370t258-667q0-488-386-773Q2250-91 1575-91q-281 0-586 55T347 128v594q319-166 628-249 309-82 613-82 406 0 624 139 219 139 219 392 0 234-158 359-157 125-692 241l-200 47q-534 112-772 345-237 233-237 639 0 494 350 762 350 269 994 269 318 0 599-47 282-46 519-140z" transform="scale(.01563)"/><path id="prefix__DejaVuSans-29" d="M513 4856h500q468-737 701-1444 233-706 233-1403 0-700-233-1409T1013-844H513q415 716 620 1424t205 1429q0 722-205 1425-205 704-620 1422z" transform="scale(.01563)"/></defs><use xlink:href="#prefix__DejaVuSans-54"/><use xlink:href="#prefix__DejaVuSans-69" x="57.959"/><use xlink:href="#prefix__DejaVuSans-6d" x="85.742"/><use xlink:href="#prefix__DejaVuSans-65" x="183.154"/><use xlink:href="#prefix__DejaVuSans-20" x="244.678"/><use xlink:href="#prefix__DejaVuSans-28" x="276.465"/><use xlink:href="#prefix__DejaVuSans-73" x="315.479"/><use xlink:href="#prefix__DejaVuSans-29" x="367.578"/></g></g><g id="prefix__matplotlib_axis_2"><g id="prefix__ytick_1"><path d="M108 359.079h669.6" clip-path="url(#prefix__p1936c0d740)" fill="none" stroke-dasharray="3.7 1.6" stroke="gray" stroke-opacity=".7" id="prefix__line2d_17"/><g id="prefix__line2d_18"><defs><path id="prefix__m9609944d1d" d="M0 0h-3.5" stroke="#000" stroke-width=".8"/></defs><use xlink:href="#prefix__m9609944d1d" x="108" y="359.079" stroke="#000" stroke-width=".8"/></g><g transform="matrix(.1 0 0 -.1 79.895 362.878)" id="prefix__text_10"><defs><path id="prefix__DejaVuSans-2212" d="M678 2272h4006v-531H678v531z" transform="scale(.01563)"/><path id="prefix__DejaVuSans-35" d="M691 4666h2478v-532H1269V2991q137 47 274 70 138 23 276 23 781 0 1237-428 457-428 457-1159 0-753-469-1171Q2575-91 1722-91q-294 0-599 50Q819 9 494 109v635q281-153 581-228t634-75q541 0 856 284 316 284 316 772 0 487-316 771-315 285-856 285-253 0-505-56-251-56-513-175v2344z" transform="scale(.01563)"/></defs><use xlink:href="#prefix__DejaVuSans-2212"/><use xlink:href="#prefix__DejaVuSans-35" x="83.789"/><use xlink:href="#prefix__DejaVuSans-30" x="147.412"/></g></g><g id="prefix__ytick_2"><path d="M108 316.809h669.6" clip-path="url(#prefix__p1936c0d740)" fill="none" stroke-dasharray="3.7 1.6" stroke="gray" stroke-opacity=".7" id="prefix__line2d_19"/><use xlink:href="#prefix__m9609944d1d" x="108" y="316.809" stroke="#000" stroke-width=".8" id="prefix__line2d_20"/><g transform="matrix(.1 0 0 -.1 79.895 320.608)" id="prefix__text_11"><use xlink:href="#prefix__DejaVuSans-2212"/><use xlink:href="#prefix__DejaVuSans-34" x="83.789"/><use xlink:href="#prefix__DejaVuSans-30" x="147.412"/></g></g><g id="prefix__ytick_3"><path d="M108 274.54h669.6" clip-path="url(#prefix__p1936c0d740)" fill="none" stroke-dasharray="3.7 1.6" stroke="gray" stroke-opacity=".7" id="prefix__line2d_21"/><use xlink:href="#prefix__m9609944d1d" x="108" y="274.539" stroke="#000" stroke-width=".8" id="prefix__line2d_22"/><g transform="matrix(.1 0 0 -.1 79.895 278.338)" id="prefix__text_12"><defs><path id="prefix__DejaVuSans-33" d="M2597 2516q453-97 707-404 255-306 255-756 0-690-475-1069Q2609-91 1734-91q-293 0-604 58T488 141v609q262-153 574-231 313-78 654-78 593 0 904 234t311 681q0 413-289 645-289 233-804 233h-544v519h569q465 0 712 186t247 536q0 359-255 551-254 193-729 193-260 0-557-57-297-56-653-174v562q360 100 674 150t592 50q719 0 1137-327 419-326 419-882 0-388-222-655t-631-370z" transform="scale(.01563)"/></defs><use xlink:href="#prefix__DejaVuSans-2212"/><use xlink:href="#prefix__DejaVuSans-33" x="83.789"/><use xlink:href="#prefix__DejaVuSans-30" x="147.412"/></g></g><g id="prefix__ytick_4"><path d="M108 232.27h669.6" clip-path="url(#prefix__p1936c0d740)" fill="none" stroke-dasharray="3.7 1.6" stroke="gray" stroke-opacity=".7" id="prefix__line2d_23"/><use xlink:href="#prefix__m9609944d1d" x="108" y="232.269" stroke="#000" stroke-width=".8" id="prefix__line2d_24"/><g transform="matrix(.1 0 0 -.1 79.895 236.068)" id="prefix__text_13"><use xlink:href="#prefix__DejaVuSans-2212"/><use xlink:href="#prefix__DejaVuSans-32" x="83.789"/><use xlink:href="#prefix__DejaVuSans-30" x="147.412"/></g></g><g id="prefix__ytick_5"><path d="M108 190h669.6" clip-path="url(#prefix__p1936c0d740)" fill="none" stroke-dasharray="3.7 1.6" stroke="gray" stroke-opacity=".7" id="prefix__line2d_25"/><use xlink:href="#prefix__m9609944d1d" x="108" y="189.999" stroke="#000" stroke-width=".8" id="prefix__line2d_26"/><g transform="matrix(.1 0 0 -.1 79.895 193.799)" id="prefix__text_14"><use xlink:href="#prefix__DejaVuSans-2212"/><use xlink:href="#prefix__DejaVuSans-31" x="83.789"/><use xlink:href="#prefix__DejaVuSans-30" x="147.412"/></g></g><g id="prefix__ytick_6"><path d="M108 147.73h669.6" clip-path="url(#prefix__p1936c0d740)" fill="none" stroke-dasharray="3.7 1.6" stroke="gray" stroke-opacity=".7" id="prefix__line2d_27"/><use xlink:href="#prefix__m9609944d1d" x="108" y="147.729" stroke="#000" stroke-width=".8" id="prefix__line2d_28"/><use xlink:href="#prefix__DejaVuSans-30" transform="matrix(.1 0 0 -.1 94.638 151.529)" id="prefix__text_15"/></g><g id="prefix__ytick_7"><path d="M108 105.46h669.6" clip-path="url(#prefix__p1936c0d740)" fill="none" stroke-dasharray="3.7 1.6" stroke="gray" stroke-opacity=".7" id="prefix__line2d_29"/><use xlink:href="#prefix__m9609944d1d" x="108" y="105.46" stroke="#000" stroke-width=".8" id="prefix__line2d_30"/><g transform="matrix(.1 0 0 -.1 88.275 109.259)" id="prefix__text_16"><use xlink:href="#prefix__DejaVuSans-31"/><use xlink:href="#prefix__DejaVuSans-30" x="63.623"/></g></g><g transform="matrix(0 -.1 -.1 0 73.795 253.818)" id="prefix__text_17"><defs><path id="prefix__DejaVuSans-6f" d="M1959 3097q-462 0-731-361t-269-989q0-628 267-989 268-361 733-361 460 0 728 362 269 363 269 988 0 622-269 986-268 364-728 364zm0 487q750 0 1178-488 429-487 429-1349 0-859-429-1349Q2709-91 1959-91q-753 0-1180 489-426 490-426 1349 0 862 426 1349 427 488 1180 488z" transform="scale(.01563)"/><path id="prefix__DejaVuSans-72" d="M2631 2963q-97 56-211 82-114 27-251 27-488 0-749-317t-261-911V0H581v3500h578v-544q182 319 472 473 291 155 707 155 59 0 131-8 72-7 159-23l3-590z" transform="scale(.01563)"/><path id="prefix__DejaVuSans-71" d="M947 1747q0-634 261-995t717-361q456 0 718 361 263 361 263 995t-263 995q-262 361-718 361t-717-361q-261-361-261-995zM2906 525q-181-312-458-464-276-152-664-152-634 0-1033 506-398 507-398 1332t398 1331q399 506 1033 506 388 0 664-152 277-151 458-463v531h575v-4831h-575V525z" transform="scale(.01563)"/><path id="prefix__DejaVuSans-75" d="M544 1381v2119h575V1403q0-497 193-746 194-248 582-248 465 0 735 297 271 297 271 810v1984h575V0h-575v538q-209-319-486-474-276-155-642-155-603 0-916 375-312 375-312 1097zm1447 2203z" transform="scale(.01563)"/><path id="prefix__DejaVuSans-Oblique-3c4" d="M2103 638q85-150 422-150h275L2706 0h-343q-563 0-763 300-197 306-66 969l322 1656H541l112 575h3228l-112-575H2444l-331-1691q-88-453-10-596z" transform="scale(.01563)"/></defs><use xlink:href="#prefix__DejaVuSans-54" transform="translate(0 .094)"/><use xlink:href="#prefix__DejaVuSans-6f" transform="translate(61.084 .094)"/><use xlink:href="#prefix__DejaVuSans-72" transform="translate(122.266 .094)"/><use xlink:href="#prefix__DejaVuSans-71" transform="translate(163.379 .094)"/><use xlink:href="#prefix__DejaVuSans-75" transform="translate(226.855 .094)"/><use xlink:href="#prefix__DejaVuSans-65" transform="translate(290.234 .094)"/><use xlink:href="#prefix__DejaVuSans-20" transform="translate(351.758 .094)"/><use xlink:href="#prefix__DejaVuSans-Oblique-3c4" transform="translate(383.545 .094)"/></g></g><path d="M138.436 264.41l1.626-7.64 1.625-6.59 1.626-5.759 1.625-5.104 2.438-6.726 2.438-5.907 2.439-5.31 2.438-4.845 2.438-4.45 2.438-4.08 2.438-3.719 2.438-3.35 2.439-2.975 2.438-2.599 2.438-2.23 2.438-1.884 2.438-1.567 2.438-1.294 2.439-1.053 4.876-1.643 4.876-1.662 3.251-1.323 3.25-1.6 2.44-1.411 2.437-1.854 4.064-3.393 4.876-4.408 13.816-12.782 4.064-3.396 4.064-3.137 4.876-3.45 8.94-5.918 27.632-17.964 4.064-2.253 3.25-1.594 3.252-1.372 3.25-1.122 3.251-.852 3.251-.569 3.251-.28 3.251.002 3.251.278 3.25.534 3.252.772 3.25.997 3.251 1.24 3.251 1.442 2.439 1.32 13.816 8.01 7.314 3.935 6.502 3.259 6.502 3.01 6.502 2.754 8.127 3.216 5.689 2.023 5.689 1.812 6.502 1.822 4.063.975 2.438.34 4.064.298 6.502.188 8.127.004 8.94-.21 11.378-.315 8.94-.232 9.752-.478 13.004-.878 38.198-2.753 16.254-.708 13.004-.33 13.816-.115 14.629.1 21.943.415 21.944.388 38.198.427 46.325.495 40.636.106 14.629.01h0" clip-path="url(#prefix__p1936c0d740)" fill="none" stroke="#1f77b4" stroke-width="1.5" stroke-linecap="square" id="prefix__line2d_31"/><path d="M138.436 308.028l.813-2.678 1.626-6.665 2.438-11.906 4.876-24.653 2.438-10.826 1.626-6.327 1.625-5.545 1.625-4.743 1.626-3.949 1.625-3.18 1.626-2.457 1.625-1.788 1.626-1.182.812-.386 1.626-.408 1.625.01 1.626.353 1.625.618 2.438 1.259 7.315 4.23 2.438 1.03 3.25 1.143 4.064 1.14 4.064 1.146 2.438.908 1.626.775 1.625.95 1.626 1.298 1.625 1.54 1.625 1.758 1.626 1.992 2.438 3.435 2.438 3.968 2.438 4.471 2.438 4.663 3.251 6.757 4.064 9.046 12.19 27.65 3.252 6.76 3.25 6.17 5.69 10.25 3.25 5.393 2.439 3.667 2.438 3.305 2.438 2.91 2.438 2.49 1.626 1.415 1.625 1.212 1.625 1.004 1.626.792 1.625.578 1.626.362 1.625.143 1.626-.074 1.625-.291 1.625-.507 1.626-.719 1.625-.928 1.626-1.132 1.625-1.331 2.438-2.357 2.439-2.766 2.438-3.149 2.438-3.501 3.25-5.161 3.252-5.65 4.063-7.623 4.877-9.752 5.689-11.894 12.19-25.95 4.064-7.975 4.064-7.507 4.063-7.014 4.064-6.505 3.25-4.83 3.252-4.495 3.25-4.163 3.251-3.833 3.251-3.509 3.251-3.192 4.876-4.354 3.251-2.661 3.251-2.369 3.251-2.08 3.25-1.803 3.252-1.538 3.25-1.285 3.252-1.047 3.25-.822 4.064-.758 4.064-.499 4.063-.255 4.064-.023 4.063.2 4.064.413 4.064.612 4.876.977 5.689 1.216 4.064.57 4.876.935 4.876 1.174 5.69 1.626 6.501 2.13 7.315 2.65 10.565 4.104 15.442 6.012 5.689 1.944 5.689 1.725 6.501 1.727 6.502 1.507 6.502 1.258 6.502 1.003 6.501.753 6.502.512 6.502.287 7.314.089 7.315-.138 8.127-.376 9.753-.68 12.19-1.091 7.315-.613 13.816-.648 52.827-2.308 13.004-.323 14.629-.132 17.88.075 23.568.34 10.566.2h0" clip-path="url(#prefix__p1936c0d740)" fill="none" stroke="#ff7f0e" stroke-width="1.5" stroke-linecap="square" id="prefix__line2d_32"/><path d="M138.436 173.897l1.626 4.68 1.625 3.774 1.626 3.163 2.438 4.076 8.127 12.742 3.25 5.824 3.252 6.366 4.063 8.518 8.128 17.27 3.25 6.34 2.439 4.357 2.438 3.95 2.438 3.632 2.438 3.171 2.438 2.696 2.438 2.24 2.439 1.825 2.438 1.459 2.438 1.153 10.565 4.158 4.877 1.91 2.438 1.125 3.25 1.704 3.252 1.932 3.25 2.178 3.251 2.421 4.064 3.339 4.063 3.621 4.064 3.642 6.502 5.738 10.565 9.314 4.064 3.222 3.25 2.295 3.252 1.992 2.438 1.27 2.438 1.067 2.438.857 2.438.642 2.438.43 2.439.22 2.438.017 2.438-.175 2.438-.357 3.25-.736 3.252-1.003 3.25-1.233 4.064-1.814 4.064-2.052 5.689-3.15 31.696-17.497 6.502-3.192 6.501-2.936 5.69-2.322 2.438-.76 4.063-.977 8.94-1.95 7.315-1.359 6.501-.975 8.128-.974 6.501-.521 6.502-.266 6.502-.024 6.502.188 6.501.39 11.379.956 14.628 1.464 24.382 2.698 21.13 2.415 6.503.52 9.752.541 12.191.444 13.004.245 19.505.09 13.816-.12 16.254-.378 21.131-.739 24.382-.784 21.943-.48 23.57-.291 26.819-.099 32.509.088h0" clip-path="url(#prefix__p1936c0d740)" fill="none" stroke="#2ca02c" stroke-width="1.5" stroke-linecap="square" id="prefix__line2d_33"/><path d="M138.436 156.963l2.439.005 11.378-.317 4.063.271 4.064.503 4.876.83 8.94 1.82 8.94 1.737 8.127 1.279 8.94 1.155 12.19 1.404 15.443 1.491 13.816 1.421 22.756 2.581 8.127.634 7.315.328 7.314.083 7.315-.147 8.127-.386 10.565-.74 10.566-.96 16.254-1.382 16.254-1.161 17.067-.988 14.63-.631 16.254-.47 17.067-.275 22.756-.1 24.382.128 76.395.545 53.64-.093 108.904-.424 39.824-.034h0" clip-path="url(#prefix__p1936c0d740)" fill="none" stroke="#d62728" stroke-width="1.5" stroke-linecap="square" id="prefix__line2d_34"/><path d="M138.436 144.565l4.064.828 4.876.76 5.69.65 6.501.517 7.315.354 8.127.163 8.94-.056 10.565-.309 32.509-1.366 17.88-.657 14.629-.321 14.629-.096 18.692.12 47.95.42 53.64.348 51.202.361 30.883-.099 40.636-.139 70.707-.077h135.724l23.569-.005h0" clip-path="url(#prefix__p1936c0d740)" fill="none" stroke="#9467bd" stroke-width="1.5" stroke-linecap="square" id="prefix__line2d_35"/><path d="M138.436 147.848l123.534.057 485.194-.007h0" clip-path="url(#prefix__p1936c0d740)" fill="none" stroke="#8c564b" stroke-width="1.5" stroke-linecap="square" id="prefix__line2d_36"/><path d="M108 359.557V103.68" fill="none" stroke="#000" stroke-width=".8" stroke-linecap="square" id="prefix__patch_3"/><path d="M777.6 359.557V103.68" fill="none" stroke="#000" stroke-width=".8" stroke-linecap="square" id="prefix__patch_4"/><path d="M108 359.557h669.6" fill="none" stroke="#000" stroke-width=".8" stroke-linecap="square" id="prefix__patch_5"/><path d="M108 103.68h669.6" fill="none" stroke="#000" stroke-width=".8" stroke-linecap="square" id="prefix__patch_6"/><g transform="matrix(.12 0 0 -.12 395.143 97.68)" id="prefix__text_18"><defs><path id="prefix__DejaVuSans-6e" d="M3513 2113V0h-575v2094q0 497-194 743-194 247-581 247-466 0-735-297-269-296-269-809V0H581v3500h578v-544q207 316 486 472 280 156 646 156 603 0 912-373 310-373 310-1098z" transform="scale(.01563)"/><path id="prefix__DejaVuSans-4a" d="M628 4666h631V325q0-844-320-1225T-91-1281h-240v531h197q418 0 590 235 172 234 172 840v4341z" transform="scale(.01563)"/><path id="prefix__DejaVuSans-74" d="M1172 4494v-994h1184v-447H1172V1153q0-428 117-550t477-122h590V0h-590q-666 0-919 248-253 249-253 905v1900H172v447h422v994h578z" transform="scale(.01563)"/></defs><use xlink:href="#prefix__DejaVuSans-54"/><use xlink:href="#prefix__DejaVuSans-6f" x="44.084"/><use xlink:href="#prefix__DejaVuSans-72" x="105.266"/><use xlink:href="#prefix__DejaVuSans-71" x="144.629"/><use xlink:href="#prefix__DejaVuSans-75" x="208.105"/><use xlink:href="#prefix__DejaVuSans-65" x="271.484"/><use xlink:href="#prefix__DejaVuSans-20" x="333.008"/><use xlink:href="#prefix__DejaVuSans-6f" x="364.795"/><use xlink:href="#prefix__DejaVuSans-6e" x="425.977"/><use xlink:href="#prefix__DejaVuSans-20" x="489.355"/><use xlink:href="#prefix__DejaVuSans-4a" x="521.143"/><use xlink:href="#prefix__DejaVuSans-6f" x="550.635"/><use xlink:href="#prefix__DejaVuSans-69" x="611.816"/><use xlink:href="#prefix__DejaVuSans-6e" x="639.6"/><use xlink:href="#prefix__DejaVuSans-74" x="702.979"/><use xlink:href="#prefix__DejaVuSans-73" x="742.188"/></g><g id="prefix__legend_1"><path d="M504.273 141.593H770.6q2 0 2-2V110.68q0-2-2-2H504.273q-2 0-2 2v28.912q0 2 2 2z" fill="#fff" opacity=".8" stroke="#ccc" id="prefix__patch_7"/><path d="M506.273 116.778h20" fill="none" stroke="#1f77b4" stroke-width="1.5" stroke-linecap="square" id="prefix__line2d_37"/><g transform="matrix(.1 0 0 -.1 534.273 120.278)" id="prefix__text_19"><defs><path id="prefix__DejaVuSans-68" d="M3513 2113V0h-575v2094q0 497-194 743-194 247-581 247-466 0-735-297-269-296-269-809V0H581v4863h578V2956q207 316 486 472 280 156 646 156 603 0 912-373 310-373 310-1098z" transform="scale(.01563)"/><path id="prefix__DejaVuSans-6c" d="M603 4863h575V0H603v4863z" transform="scale(.01563)"/><path id="prefix__DejaVuSans-64" d="M2906 2969v1894h575V0h-575v525q-181-312-458-464-276-152-664-152-634 0-1033 506-398 507-398 1332t398 1331q399 506 1033 506 388 0 664-152 277-151 458-463zM947 1747q0-634 261-995t717-361q456 0 718 361 263 361 263 995t-263 995q-262 361-718 361t-717-361q-261-361-261-995z" transform="scale(.01563)"/><path id="prefix__DejaVuSans-5f" d="M3263-1063v-446H-63v446h3326z" transform="scale(.01563)"/><path id="prefix__DejaVuSans-70" d="M1159 525v-1856H581v4831h578v-531q182 312 458 463 277 152 661 152 638 0 1036-506 399-506 399-1331T3314 415Q2916-91 2278-91q-384 0-661 152-276 152-458 464zm1957 1222q0 634-261 995t-717 361q-457 0-718-361t-261-995q0-634 261-995t718-361q456 0 717 361t261 995z" transform="scale(.01563)"/><path id="prefix__DejaVuSans-61" d="M2194 1759q-697 0-966-159t-269-544q0-306 202-486 202-179 548-179 479 0 768 339t289 901v128h-572zm1147 238V0h-575v531q-197-318-491-470T1556-91q-537 0-855 302-317 302-317 808 0 590 395 890 396 300 1180 300h807v57q0 397-261 614t-733 217q-300 0-585-72-284-72-546-216v532q315 122 612 182 297 61 578 61 760 0 1135-394 375-393 375-1193z" transform="scale(.01563)"/></defs><use xlink:href="#prefix__DejaVuSans-73"/><use xlink:href="#prefix__DejaVuSans-68" x="52.1"/><use xlink:href="#prefix__DejaVuSans-6f" x="115.479"/><use xlink:href="#prefix__DejaVuSans-75" x="176.66"/><use xlink:href="#prefix__DejaVuSans-6c" x="240.039"/><use xlink:href="#prefix__DejaVuSans-64" x="267.822"/><use xlink:href="#prefix__DejaVuSans-65" x="331.299"/><use xlink:href="#prefix__DejaVuSans-72" x="392.822"/><use xlink:href="#prefix__DejaVuSans-5f" x="433.936"/><use xlink:href="#prefix__DejaVuSans-70" x="483.936"/><use xlink:href="#prefix__DejaVuSans-61" x="547.412"/><use xlink:href="#prefix__DejaVuSans-6e" x="608.691"/></g><path d="M506.273 131.735h20" fill="none" stroke="#ff7f0e" stroke-width="1.5" stroke-linecap="square" id="prefix__line2d_38"/><g transform="matrix(.1 0 0 -.1 534.273 135.235)" id="prefix__text_20"><defs><path id="prefix__DejaVuSans-66" d="M2375 4863v-479h-550q-309 0-430-125-120-125-120-450v-309h947v-447h-947V0H697v3053H147v447h550v244q0 584 272 851 272 268 862 268h544z" transform="scale(.01563)"/></defs><use xlink:href="#prefix__DejaVuSans-73"/><use xlink:href="#prefix__DejaVuSans-68" x="52.1"/><use xlink:href="#prefix__DejaVuSans-6f" x="115.479"/><use xlink:href="#prefix__DejaVuSans-75" x="176.66"/><use xlink:href="#prefix__DejaVuSans-6c" x="240.039"/><use xlink:href="#prefix__DejaVuSans-64" x="267.822"/><use xlink:href="#prefix__DejaVuSans-65" x="331.299"/><use xlink:href="#prefix__DejaVuSans-72" x="392.822"/><use xlink:href="#prefix__DejaVuSans-5f" x="433.936"/><use xlink:href="#prefix__DejaVuSans-6c" x="483.936"/><use xlink:href="#prefix__DejaVuSans-69" x="511.719"/><use xlink:href="#prefix__DejaVuSans-66" x="539.502"/><use xlink:href="#prefix__DejaVuSans-74" x="572.957"/></g><path d="M621.481 116.778h20" fill="none" stroke="#2ca02c" stroke-width="1.5" stroke-linecap="square" id="prefix__line2d_39"/><g transform="matrix(.1 0 0 -.1 649.481 120.278)" id="prefix__text_21"><defs><path id="prefix__DejaVuSans-62" d="M3116 1747q0 634-261 995t-717 361q-457 0-718-361t-261-995q0-634 261-995t718-361q456 0 717 361t261 995zM1159 2969q182 312 458 463 277 152 661 152 638 0 1036-506 399-506 399-1331T3314 415Q2916-91 2278-91q-384 0-661 152-276 152-458 464V0H581v4863h578V2969z" transform="scale(.01563)"/><path id="prefix__DejaVuSans-77" d="M269 3500h575l719-2731 715 2731h678l719-2731 716 2731h575L4050 0h-678l-753 2869L1863 0h-679L269 3500z" transform="scale(.01563)"/></defs><use xlink:href="#prefix__DejaVuSans-65"/><use xlink:href="#prefix__DejaVuSans-6c" x="61.523"/><use xlink:href="#prefix__DejaVuSans-62" x="89.307"/><use xlink:href="#prefix__DejaVuSans-6f" x="152.783"/><use xlink:href="#prefix__DejaVuSans-77" x="213.965"/></g><path d="M621.481 131.457h20" fill="none" stroke="#d62728" stroke-width="1.5" stroke-linecap="square" id="prefix__line2d_40"/><g transform="matrix(.1 0 0 -.1 649.481 134.957)" id="prefix__text_22"><use xlink:href="#prefix__DejaVuSans-77"/><use xlink:href="#prefix__DejaVuSans-72" x="81.787"/><use xlink:href="#prefix__DejaVuSans-69" x="122.9"/><use xlink:href="#prefix__DejaVuSans-73" x="150.684"/><use xlink:href="#prefix__DejaVuSans-74" x="202.783"/><use xlink:href="#prefix__DejaVuSans-5f" x="241.992"/><use xlink:href="#prefix__DejaVuSans-31" x="291.992"/></g><path d="M705.04 116.778h20" fill="none" stroke="#9467bd" stroke-width="1.5" stroke-linecap="square" id="prefix__line2d_41"/><g transform="matrix(.1 0 0 -.1 733.04 120.278)" id="prefix__text_23"><use xlink:href="#prefix__DejaVuSans-77"/><use xlink:href="#prefix__DejaVuSans-72" x="81.787"/><use xlink:href="#prefix__DejaVuSans-69" x="122.9"/><use xlink:href="#prefix__DejaVuSans-73" x="150.684"/><use xlink:href="#prefix__DejaVuSans-74" x="202.783"/><use xlink:href="#prefix__DejaVuSans-5f" x="241.992"/><use xlink:href="#prefix__DejaVuSans-32" x="291.992"/></g><path d="M705.04 131.735h20" fill="none" stroke="#8c564b" stroke-width="1.5" stroke-linecap="square" id="prefix__line2d_42"/><g transform="matrix(.1 0 0 -.1 733.04 135.235)" id="prefix__text_24"><use xlink:href="#prefix__DejaVuSans-77"/><use xlink:href="#prefix__DejaVuSans-72" x="81.787"/><use xlink:href="#prefix__DejaVuSans-69" x="122.9"/><use xlink:href="#prefix__DejaVuSans-73" x="150.684"/><use xlink:href="#prefix__DejaVuSans-74" x="202.783"/><use xlink:href="#prefix__DejaVuSans-5f" x="241.992"/><use xlink:href="#prefix__DejaVuSans-33" x="291.992"/></g></g></g><g id="prefix__axes_2"><path d="M108 768.96h669.6V513.083H108z" fill="#fff" id="prefix__patch_8"/><g id="prefix__matplotlib_axis_3"><g id="prefix__xtick_9"><path d="M138.436 768.96V513.083" clip-path="url(#prefix__p0542bc8bf0)" fill="none" stroke-dasharray="3.7 1.6" stroke="gray" stroke-opacity=".7" id="prefix__line2d_43"/><use xlink:href="#prefix__mcf90b15c90" x="138.436" y="768.96" stroke="#000" stroke-width=".8" id="prefix__line2d_44"/><g transform="matrix(.1 0 0 -.1 130.485 783.558)" id="prefix__text_25"><use xlink:href="#prefix__DejaVuSans-30"/><use xlink:href="#prefix__DejaVuSans-2e" x="63.623"/><use xlink:href="#prefix__DejaVuSans-30" x="95.41"/></g></g><g id="prefix__xtick_10"><path d="M219.708 768.96V513.083" clip-path="url(#prefix__p0542bc8bf0)" fill="none" stroke-dasharray="3.7 1.6" stroke="gray" stroke-opacity=".7" id="prefix__line2d_45"/><use xlink:href="#prefix__mcf90b15c90" x="219.708" y="768.96" stroke="#000" stroke-width=".8" id="prefix__line2d_46"/><g transform="matrix(.1 0 0 -.1 211.757 783.558)" id="prefix__text_26"><use xlink:href="#prefix__DejaVuSans-30"/><use xlink:href="#prefix__DejaVuSans-2e" x="63.623"/><use xlink:href="#prefix__DejaVuSans-32" x="95.41"/></g></g><g id="prefix__xtick_11"><path d="M300.98 768.96V513.083" clip-path="url(#prefix__p0542bc8bf0)" fill="none" stroke-dasharray="3.7 1.6" stroke="gray" stroke-opacity=".7" id="prefix__line2d_47"/><use xlink:href="#prefix__mcf90b15c90" x="300.98" y="768.96" stroke="#000" stroke-width=".8" id="prefix__line2d_48"/><g transform="matrix(.1 0 0 -.1 293.029 783.558)" id="prefix__text_27"><use xlink:href="#prefix__DejaVuSans-30"/><use xlink:href="#prefix__DejaVuSans-2e" x="63.623"/><use xlink:href="#prefix__DejaVuSans-34" x="95.41"/></g></g><g id="prefix__xtick_12"><path d="M382.252 768.96V513.083" clip-path="url(#prefix__p0542bc8bf0)" fill="none" stroke-dasharray="3.7 1.6" stroke="gray" stroke-opacity=".7" id="prefix__line2d_49"/><use xlink:href="#prefix__mcf90b15c90" x="382.252" y="768.96" stroke="#000" stroke-width=".8" id="prefix__line2d_50"/><g transform="matrix(.1 0 0 -.1 374.3 783.558)" id="prefix__text_28"><use xlink:href="#prefix__DejaVuSans-30"/><use xlink:href="#prefix__DejaVuSans-2e" x="63.623"/><use xlink:href="#prefix__DejaVuSans-36" x="95.41"/></g></g><g id="prefix__xtick_13"><path d="M463.524 768.96V513.083" clip-path="url(#prefix__p0542bc8bf0)" fill="none" stroke-dasharray="3.7 1.6" stroke="gray" stroke-opacity=".7" id="prefix__line2d_51"/><use xlink:href="#prefix__mcf90b15c90" x="463.524" y="768.96" stroke="#000" stroke-width=".8" id="prefix__line2d_52"/><g transform="matrix(.1 0 0 -.1 455.573 783.558)" id="prefix__text_29"><use xlink:href="#prefix__DejaVuSans-30"/><use xlink:href="#prefix__DejaVuSans-2e" x="63.623"/><use xlink:href="#prefix__DejaVuSans-38" x="95.41"/></g></g><g id="prefix__xtick_14"><path d="M544.796 768.96V513.083" clip-path="url(#prefix__p0542bc8bf0)" fill="none" stroke-dasharray="3.7 1.6" stroke="gray" stroke-opacity=".7" id="prefix__line2d_53"/><use xlink:href="#prefix__mcf90b15c90" x="544.796" y="768.96" stroke="#000" stroke-width=".8" id="prefix__line2d_54"/><g transform="matrix(.1 0 0 -.1 536.845 783.558)" id="prefix__text_30"><use xlink:href="#prefix__DejaVuSans-31"/><use xlink:href="#prefix__DejaVuSans-2e" x="63.623"/><use xlink:href="#prefix__DejaVuSans-30" x="95.41"/></g></g><g id="prefix__xtick_15"><path d="M626.068 768.96V513.083" clip-path="url(#prefix__p0542bc8bf0)" fill="none" stroke-dasharray="3.7 1.6" stroke="gray" stroke-opacity=".7" id="prefix__line2d_55"/><use xlink:href="#prefix__mcf90b15c90" x="626.068" y="768.96" stroke="#000" stroke-width=".8" id="prefix__line2d_56"/><g transform="matrix(.1 0 0 -.1 618.117 783.558)" id="prefix__text_31"><use xlink:href="#prefix__DejaVuSans-31"/><use xlink:href="#prefix__DejaVuSans-2e" x="63.623"/><use xlink:href="#prefix__DejaVuSans-32" x="95.41"/></g></g><g id="prefix__xtick_16"><path d="M707.34 768.96V513.083" clip-path="url(#prefix__p0542bc8bf0)" fill="none" stroke-dasharray="3.7 1.6" stroke="gray" stroke-opacity=".7" id="prefix__line2d_57"/><use xlink:href="#prefix__mcf90b15c90" x="707.34" y="768.96" stroke="#000" stroke-width=".8" id="prefix__line2d_58"/><g transform="matrix(.1 0 0 -.1 699.389 783.558)" id="prefix__text_32"><use xlink:href="#prefix__DejaVuSans-31"/><use xlink:href="#prefix__DejaVuSans-2e" x="63.623"/><use xlink:href="#prefix__DejaVuSans-34" x="95.41"/></g></g><g transform="matrix(.1 0 0 -.1 422.471 797.237)" id="prefix__text_33"><use xlink:href="#prefix__DejaVuSans-54"/><use xlink:href="#prefix__DejaVuSans-69" x="57.959"/><use xlink:href="#prefix__DejaVuSans-6d" x="85.742"/><use xlink:href="#prefix__DejaVuSans-65" x="183.154"/><use xlink:href="#prefix__DejaVuSans-20" x="244.678"/><use xlink:href="#prefix__DejaVuSans-28" x="276.465"/><use xlink:href="#prefix__DejaVuSans-73" x="315.479"/><use xlink:href="#prefix__DejaVuSans-29" x="367.578"/></g></g><g id="prefix__matplotlib_axis_4"><g id="prefix__ytick_8"><path d="M108 734.068h669.6" clip-path="url(#prefix__p0542bc8bf0)" fill="none" stroke-dasharray="3.7 1.6" stroke="gray" stroke-opacity=".7" id="prefix__line2d_59"/><use xlink:href="#prefix__m9609944d1d" x="108" y="734.068" stroke="#000" stroke-width=".8" id="prefix__line2d_60"/><g transform="matrix(.1 0 0 -.1 70.355 737.867)" id="prefix__text_34"><use xlink:href="#prefix__DejaVuSans-2212"/><use xlink:href="#prefix__DejaVuSans-30" x="83.789"/><use xlink:href="#prefix__DejaVuSans-2e" x="147.412"/><use xlink:href="#prefix__DejaVuSans-30" x="179.199"/><use xlink:href="#prefix__DejaVuSans-34" x="242.822"/></g></g><g id="prefix__ytick_9"><path d="M108 687.545h669.6" clip-path="url(#prefix__p0542bc8bf0)" fill="none" stroke-dasharray="3.7 1.6" stroke="gray" stroke-opacity=".7" id="prefix__line2d_61"/><use xlink:href="#prefix__m9609944d1d" x="108" y="687.545" stroke="#000" stroke-width=".8" id="prefix__line2d_62"/><g transform="matrix(.1 0 0 -.1 70.355 691.344)" id="prefix__text_35"><use xlink:href="#prefix__DejaVuSans-2212"/><use xlink:href="#prefix__DejaVuSans-30" x="83.789"/><use xlink:href="#prefix__DejaVuSans-2e" x="147.412"/><use xlink:href="#prefix__DejaVuSans-30" x="179.199"/><use xlink:href="#prefix__DejaVuSans-32" x="242.822"/></g></g><g id="prefix__ytick_10"><path d="M108 641.022h669.6" clip-path="url(#prefix__p0542bc8bf0)" fill="none" stroke-dasharray="3.7 1.6" stroke="gray" stroke-opacity=".7" id="prefix__line2d_63"/><use xlink:href="#prefix__m9609944d1d" x="108" y="641.022" stroke="#000" stroke-width=".8" id="prefix__line2d_64"/><g transform="matrix(.1 0 0 -.1 78.734 644.82)" id="prefix__text_36"><use xlink:href="#prefix__DejaVuSans-30"/><use xlink:href="#prefix__DejaVuSans-2e" x="63.623"/><use xlink:href="#prefix__DejaVuSans-30" x="95.41"/><use xlink:href="#prefix__DejaVuSans-30" x="159.033"/></g></g><g id="prefix__ytick_11"><path d="M108 594.498h669.6" clip-path="url(#prefix__p0542bc8bf0)" fill="none" stroke-dasharray="3.7 1.6" stroke="gray" stroke-opacity=".7" id="prefix__line2d_65"/><use xlink:href="#prefix__m9609944d1d" x="108" y="594.498" stroke="#000" stroke-width=".8" id="prefix__line2d_66"/><g transform="matrix(.1 0 0 -.1 78.734 598.298)" id="prefix__text_37"><use xlink:href="#prefix__DejaVuSans-30"/><use xlink:href="#prefix__DejaVuSans-2e" x="63.623"/><use xlink:href="#prefix__DejaVuSans-30" x="95.41"/><use xlink:href="#prefix__DejaVuSans-32" x="159.033"/></g></g><g id="prefix__ytick_12"><path d="M108 547.975h669.6" clip-path="url(#prefix__p0542bc8bf0)" fill="none" stroke-dasharray="3.7 1.6" stroke="gray" stroke-opacity=".7" id="prefix__line2d_67"/><use xlink:href="#prefix__m9609944d1d" x="108" y="547.975" stroke="#000" stroke-width=".8" id="prefix__line2d_68"/><g transform="matrix(.1 0 0 -.1 78.734 551.775)" id="prefix__text_38"><use xlink:href="#prefix__DejaVuSans-30"/><use xlink:href="#prefix__DejaVuSans-2e" x="63.623"/><use xlink:href="#prefix__DejaVuSans-30" x="95.41"/><use xlink:href="#prefix__DejaVuSans-34" x="159.033"/></g></g><g transform="matrix(0 -.1 -.1 0 64.275 686.954)" id="prefix__text_39"><defs><path id="prefix__DejaVuSans-4c" d="M628 4666h631V531h2272V0H628v4666z" transform="scale(.01563)"/><path id="prefix__DejaVuSans-79" d="M2059-325q-243-625-475-815-231-191-618-191H506v481h338q237 0 368 113 132 112 291 531l103 262L191 3500h609L1894 763l1094 2737h609L2059-325z" transform="scale(.01563)"/><path id="prefix__DejaVuSans-76" d="M191 3500h609L1894 563l1094 2937h609L2284 0h-781L191 3500z" transform="scale(.01563)"/><path id="prefix__DejaVuSans-53" d="M3425 4513v-616q-359 172-678 256-319 85-616 85-515 0-795-200t-280-569q0-310 186-468 186-157 705-254l381-78q706-135 1042-474t336-907q0-679-455-1029Q2797-91 1919-91q-331 0-705 75-373 75-773 222v650q384-215 753-325 369-109 725-109 540 0 834 212 294 213 294 607 0 343-211 537t-692 291l-385 75q-706 140-1022 440-315 300-315 835 0 619 436 975t1201 356q329 0 669-60 341-59 697-177z" transform="scale(.01563)"/></defs><use xlink:href="#prefix__DejaVuSans-4c"/><use xlink:href="#prefix__DejaVuSans-79" x="46.588"/><use xlink:href="#prefix__DejaVuSans-61" x="105.768"/><use xlink:href="#prefix__DejaVuSans-70" x="167.047"/><use xlink:href="#prefix__DejaVuSans-75" x="230.523"/><use xlink:href="#prefix__DejaVuSans-6e" x="293.902"/><use xlink:href="#prefix__DejaVuSans-6f" x="357.281"/><use xlink:href="#prefix__DejaVuSans-76" x="418.463"/><use xlink:href="#prefix__DejaVuSans-20" x="477.643"/><use xlink:href="#prefix__DejaVuSans-53" x="509.43"/><use xlink:href="#prefix__DejaVuSans-74" x="572.906"/><use xlink:href="#prefix__DejaVuSans-61" x="612.115"/><use xlink:href="#prefix__DejaVuSans-62" x="673.395"/><use xlink:href="#prefix__DejaVuSans-69" x="736.871"/><use xlink:href="#prefix__DejaVuSans-6c" x="764.654"/><use xlink:href="#prefix__DejaVuSans-69" x="792.438"/><use xlink:href="#prefix__DejaVuSans-74" x="820.221"/><use xlink:href="#prefix__DejaVuSans-79" x="859.43"/></g></g><path d="M138.436 641.022h608.728" clip-path="url(#prefix__p0542bc8bf0)" fill="none" stroke="#1f77b4" stroke-width="1.5" stroke-linecap="square" id="prefix__line2d_69"/><path d="M108 768.96V513.083" fill="none" stroke="#000" stroke-width=".8" stroke-linecap="square" id="prefix__patch_9"/><path d="M777.6 768.96V513.083" fill="none" stroke="#000" stroke-width=".8" stroke-linecap="square" id="prefix__patch_10"/><path d="M108 768.96h669.6" fill="none" stroke="#000" stroke-width=".8" stroke-linecap="square" id="prefix__patch_11"/><path d="M108 513.083h669.6" fill="none" stroke="#000" stroke-width=".8" stroke-linecap="square" id="prefix__patch_12"/><g transform="matrix(.12 0 0 -.12 345.9 507.083)" id="prefix__text_40"><defs><path id="prefix__DejaVuSans-307" d="M-1894 4863h575v-729h-575v729zm294-1279z" transform="scale(.01563)"/><path id="prefix__DejaVuSans-Oblique-56" d="M1319 0L500 4666h619l678-4013 2266 4013h687L2053 0h-734z" transform="scale(.01563)"/><path id="prefix__DejaVuSans-3d" d="M678 2906h4006v-525H678v525zm0-1275h4006v-531H678v531z" transform="scale(.01563)"/><path id="prefix__DejaVuSans-Oblique-4b" d="M1081 4666h635l-385-1966 2450 1966h841L1850 2438 3878 0h-769L1247 2272 806 0H172l909 4666z" transform="scale(.01563)"/><path id="prefix__DejaVuSans-2a" d="M3009 3897l-1121-606 1121-610-181-306-1050 634V1831h-356v1178L372 2375l-181 306 1122 610-1122 606 181 309 1050-634v1178h356V3572l1050 634 181-309z" transform="scale(.01563)"/><path id="prefix__DejaVuSans-7c" d="M1344 4891v-6400H813v6400h531z" transform="scale(.01563)"/><path id="prefix__DejaVuSans-Oblique-73" d="M3200 3397l-109-544q-228 125-482 187-253 63-521 63-454 0-715-155-260-154-260-420 0-309 606-475 47-12 69-19l184-56q575-159 767-334t192-478q0-557-442-907T1331-91q-278 0-584 54Q441 16 72 128l112 594q316-163 622-247 307-84 588-84 422 0 686 181t264 459q0 300-694 485l-59 15-197 50q-438 116-641 305t-203 483q0 559 420 887 421 328 1143 328 284 0 554-47 271-46 533-140z" transform="scale(.01563)"/></defs><use xlink:href="#prefix__DejaVuSans-4c" transform="translate(0 .61)"/><use xlink:href="#prefix__DejaVuSans-79" transform="translate(55.713 .61)"/><use xlink:href="#prefix__DejaVuSans-61" transform="translate(114.893 .61)"/><use xlink:href="#prefix__DejaVuSans-70" transform="translate(176.172 .61)"/><use xlink:href="#prefix__DejaVuSans-75" transform="translate(239.648 .61)"/><use xlink:href="#prefix__DejaVuSans-6e" transform="translate(303.027 .61)"/><use xlink:href="#prefix__DejaVuSans-6f" transform="translate(366.406 .61)"/><use xlink:href="#prefix__DejaVuSans-76" transform="translate(427.588 .61)"/><use xlink:href="#prefix__DejaVuSans-20" transform="translate(486.768 .61)"/><use xlink:href="#prefix__DejaVuSans-53" transform="translate(518.555 .61)"/><use xlink:href="#prefix__DejaVuSans-74" transform="translate(582.031 .61)"/><use xlink:href="#prefix__DejaVuSans-61" transform="translate(621.24 .61)"/><use xlink:href="#prefix__DejaVuSans-62" transform="translate(682.52 .61)"/><use xlink:href="#prefix__DejaVuSans-69" transform="translate(745.996 .61)"/><use xlink:href="#prefix__DejaVuSans-6c" transform="translate(773.78 .61)"/><use xlink:href="#prefix__DejaVuSans-69" transform="translate(801.563 .61)"/><use xlink:href="#prefix__DejaVuSans-74" transform="translate(829.346 .61)"/><use xlink:href="#prefix__DejaVuSans-79" transform="translate(868.555 .61)"/><use xlink:href="#prefix__DejaVuSans-20" transform="translate(927.734 .61)"/><use xlink:href="#prefix__DejaVuSans-307" transform="translate(1025.717 30.016)"/><use xlink:href="#prefix__DejaVuSans-Oblique-56" transform="translate(959.521 .61)"/><use xlink:href="#prefix__DejaVuSans-3d" transform="translate(1047.412 .61)"/><use xlink:href="#prefix__DejaVuSans-2212" transform="translate(1170.166 .61)"/><use xlink:href="#prefix__DejaVuSans-Oblique-4b" transform="translate(1273.438 .61)"/><use xlink:href="#prefix__DejaVuSans-2a" transform="translate(1358.496 .61)"/><use xlink:href="#prefix__DejaVuSans-7c" transform="translate(1427.979 .61)"/><use xlink:href="#prefix__DejaVuSans-7c" transform="translate(1461.67 .61)"/><use xlink:href="#prefix__DejaVuSans-Oblique-73" transform="translate(1495.361 .61)"/><use xlink:href="#prefix__DejaVuSans-7c" transform="translate(1547.46 .61)"/><use xlink:href="#prefix__DejaVuSans-7c" transform="translate(1581.152 .61)"/></g><g id="prefix__legend_2"><path d="M766.6 526.083h4q2 0 2-2v-4q0-2-2-2h-4q-2 0-2 2v4q0 2 2 2z" fill="#fff" opacity=".8" stroke="#ccc" id="prefix__patch_13"/></g></g></g><defs><clipPath id="prefix__p1936c0d740"><path d="M108 103.68h669.6v255.877H108z"/></clipPath><clipPath id="prefix__p0542bc8bf0"><path d="M108 513.083h669.6V768.96H108z"/></clipPath></defs></svg>