<svg xmlns:xlink="http://www.w3.org/1999/xlink" width="1152" height="1152" viewBox="0 0 864 864" xmlns="http://www.w3.org/2000/svg"><defs><style>*{stroke-linejoin:round;stroke-linecap:butt}</style></defs><g id="prefix__figure_1"><path d="M0 864h864V0H0z" fill="#fff" id="prefix__patch_1"/><g id="prefix__axes_1"><path d="M108 359.557h669.6V103.68H108z" fill="#fff" id="prefix__patch_2"/><g id="prefix__matplotlib_axis_1"><g id="prefix__xtick_1"><path d="M138.436 359.557V103.68" clip-path="url(#prefix__p4f512c1fb7)" fill="none" stroke-dasharray="3.7 1.6" stroke="gray" stroke-opacity=".7" id="prefix__line2d_1"/><g id="prefix__line2d_2"><defs><path id="prefix__md48113c535" d="M0 0v3.5" stroke="#000" stroke-width=".8"/></defs><use xlink:href="#prefix__md48113c535" x="138.436" y="359.557" stroke="#000" stroke-width=".8"/></g><g transform="matrix(.1 0 0 -.1 130.485 374.155)" id="prefix__text_1"><defs><path id="prefix__DejaVuSans-30" d="M2034 4250q-487 0-733-480-245-479-245-1442 0-959 245-1439 246-480 733-480 491 0 736 480 246 480 246 1439 0 963-246 1442-245 480-736 480zm0 500q785 0 1199-621 414-620 414-1801 0-1178-414-1799Q2819-91 2034-91q-784 0-1198 620-414 621-414 1799 0 1181 414 1801 414 621 1198 621z" transform="scale(.01563)"/><path id="prefix__DejaVuSans-2e" d="M684 794h660V0H684v794z" transform="scale(.01563)"/></defs><use xlink:href="#prefix__DejaVuSans-30"/><use xlink:href="#prefix__DejaVuSans-2e" x="63.623"/><use xlink:href="#prefix__DejaVuSans-30" x="95.41"/></g></g><g id="prefix__xtick_2"><path d="M219.708 359.557V103.68" clip-path="url(#prefix__p4f512c1fb7)" fill="none" stroke-dasharray="3.7 1.6" stroke="gray" stroke-opacity=".7" id="prefix__line2d_3"/><use xlink:href="#prefix__md48113c535" x="219.708" y="359.557" stroke="#000" stroke-width=".8" id="prefix__line2d_4"/><g transform="matrix(.1 0 0 -.1 211.757 374.155)" id="prefix__text_2"><defs><path id="prefix__DejaVuSans-32" d="M1228 531h2203V0H469v531q359 372 979 998 621 627 780 809 303 340 423 576 121 236 121 464 0 372-261 606-261 235-680 235-297 0-627-103-329-103-704-313v638q381 153 712 231 332 78 607 78 725 0 1156-363 431-362 431-968 0-288-108-546-107-257-392-607-78-91-497-524-418-433-1181-1211z" transform="scale(.01563)"/></defs><use xlink:href="#prefix__DejaVuSans-30"/><use xlink:href="#prefix__DejaVuSans-2e" x="63.623"/><use xlink:href="#prefix__DejaVuSans-32" x="95.41"/></g></g><g id="prefix__xtick_3"><path d="M300.98 359.557V103.68" clip-path="url(#prefix__p4f512c1fb7)" fill="none" stroke-dasharray="3.7 1.6" stroke="gray" stroke-opacity=".7" id="prefix__line2d_5"/><use xlink:href="#prefix__md48113c535" x="300.98" y="359.557" stroke="#000" stroke-width=".8" id="prefix__line2d_6"/><g transform="matrix(.1 0 0 -.1 293.029 374.155)" id="prefix__text_3"><defs><path id="prefix__DejaVuSans-34" d="M2419 4116L825 1625h1594v2491zm-166 550h794V1625h666v-525h-666V0h-628v1100H313v609l1940 2957z" transform="scale(.01563)"/></defs><use xlink:href="#prefix__DejaVuSans-30"/><use xlink:href="#prefix__DejaVuSans-2e" x="63.623"/><use xlink:href="#prefix__DejaVuSans-34" x="95.41"/></g></g><g id="prefix__xtick_4"><path d="M382.252 359.557V103.68" clip-path="url(#prefix__p4f512c1fb7)" fill="none" stroke-dasharray="3.7 1.6" stroke="gray" stroke-opacity=".7" id="prefix__line2d_7"/><use xlink:href="#prefix__md48113c535" x="382.252" y="359.557" stroke="#000" stroke-width=".8" id="prefix__line2d_8"/><g transform="matrix(.1 0 0 -.1 374.3 374.155)" id="prefix__text_4"><defs><path id="prefix__DejaVuSans-36" d="M2113 2584q-425 0-674-291-248-290-248-796 0-503 248-796 249-292 674-292t673 292q248 293 248 796 0 506-248 796-248 291-673 291zm1253 1979v-575q-238 112-480 171-242 60-480 60-625 0-955-422-329-422-376-1275 184 272 462 417 279 145 613 145 703 0 1111-427 408-426 408-1160 0-719-425-1154Q2819-91 2113-91q-810 0-1238 620-428 621-428 1799 0 1106 525 1764t1409 658q238 0 480-47t505-140z" transform="scale(.01563)"/></defs><use xlink:href="#prefix__DejaVuSans-30"/><use xlink:href="#prefix__DejaVuSans-2e" x="63.623"/><use xlink:href="#prefix__DejaVuSans-36" x="95.41"/></g></g><g id="prefix__xtick_5"><path d="M463.524 359.557V103.68" clip-path="url(#prefix__p4f512c1fb7)" fill="none" stroke-dasharray="3.7 1.6" stroke="gray" stroke-opacity=".7" id="prefix__line2d_9"/><use xlink:href="#prefix__md48113c535" x="463.524" y="359.557" stroke="#000" stroke-width=".8" id="prefix__line2d_10"/><g transform="matrix(.1 0 0 -.1 455.573 374.155)" id="prefix__text_5"><defs><path id="prefix__DejaVuSans-38" d="M2034 2216q-450 0-708-241-257-241-257-662 0-422 257-663 258-241 708-241t709 242q260 243 260 662 0 421-258 662-257 241-711 241zm-631 268q-406 100-633 378-226 279-226 679 0 559 398 884 399 325 1092 325 697 0 1094-325t397-884q0-400-227-679-226-278-629-378 456-106 710-416 255-309 255-755 0-679-414-1042Q2806-91 2034-91q-771 0-1186 362-414 363-414 1042 0 446 256 755 257 310 713 416zm-231 997q0-362 226-565 227-203 636-203 407 0 636 203 230 203 230 565 0 363-230 566-229 203-636 203-409 0-636-203-226-203-226-566z" transform="scale(.01563)"/></defs><use xlink:href="#prefix__DejaVuSans-30"/><use xlink:href="#prefix__DejaVuSans-2e" x="63.623"/><use xlink:href="#prefix__DejaVuSans-38" x="95.41"/></g></g><g id="prefix__xtick_6"><path d="M544.796 359.557V103.68" clip-path="url(#prefix__p4f512c1fb7)" fill="none" stroke-dasharray="3.7 1.6" stroke="gray" stroke-opacity=".7" id="prefix__line2d_11"/><use xlink:href="#prefix__md48113c535" x="544.796" y="359.557" stroke="#000" stroke-width=".8" id="prefix__line2d_12"/><g transform="matrix(.1 0 0 -.1 536.845 374.155)" id="prefix__text_6"><defs><path id="prefix__DejaVuSans-31" d="M794 531h1031v3560L703 3866v575l1116 225h631V531h1031V0H794v531z" transform="scale(.01563)"/></defs><use xlink:href="#prefix__DejaVuSans-31"/><use xlink:href="#prefix__DejaVuSans-2e" x="63.623"/><use xlink:href="#prefix__DejaVuSans-30" x="95.41"/></g></g><g id="prefix__xtick_7"><path d="M626.068 359.557V103.68" clip-path="url(#prefix__p4f512c1fb7)" fill="none" stroke-dasharray="3.7 1.6" stroke="gray" stroke-opacity=".7" id="prefix__line2d_13"/><use xlink:href="#prefix__md48113c535" x="626.068" y="359.557" stroke="#000" stroke-width=".8" id="prefix__line2d_14"/><g transform="matrix(.1 0 0 -.1 618.117 374.155)" id="prefix__text_7"><use xlink:href="#prefix__DejaVuSans-31"/><use xlink:href="#prefix__DejaVuSans-2e" x="63.623"/><use xlink:href="#prefix__DejaVuSans-32" x="95.41"/></g></g><g id="prefix__xtick_8"><path d="M707.34 359.557V103.68" clip-path="url(#prefix__p4f512c1fb7)" fill="none" stroke-dasharray="3.7 1.6" stroke="gray" stroke-opacity=".7" id="prefix__line2d_15"/><use xlink:href="#prefix__md48113c535" x="707.34" y="359.557" stroke="#000" stroke-width=".8" id="prefix__line2d_16"/><g transform="matrix(.1 0 0 -.1 699.389 374.155)" id="prefix__text_8"><use xlink:href="#prefix__DejaVuSans-31"/><use xlink:href="#prefix__DejaVuSans-2e" x="63.623"/><use xlink:href="#prefix__DejaVuSans-34" x="95.41"/></g></g><g transform="matrix(.1 0 0 -.1 422.471 387.833)" id="prefix__text_9"><defs><path id="prefix__DejaVuSans-54" d="M-19 4666h3947v-532H2272V0h-634v4134H-19v532z" transform="scale(.01563)"/><path id="prefix__DejaVuSans-69" d="M603 3500h575V0H603v3500zm0 1363h575v-729H603v729z" transform="scale(.01563)"/><path id="prefix__DejaVuSans-6d" d="M3328 2828q216 388 516 572t706 184q547 0 844-383 297-382 297-1088V0h-578v2094q0 503-179 746-178 244-543 244-447 0-707-297-259-296-259-809V0h-578v2094q0 506-178 748t-550 242q-441 0-701-298-259-298-259-808V0H581v3500h578v-544q197 322 472 475t653 153q382 0 649-194 267-193 395-562z" transform="scale(.01563)"/><path id="prefix__DejaVuSans-65" d="M3597 1894v-281H953q38-594 358-905t892-311q331 0 642 81t618 244V178Q3153 47 2828-22t-659-69q-838 0-1327 487-489 488-489 1320 0 859 464 1363 464 505 1252 505 706 0 1117-455 411-454 411-1235zm-575 169q-6 471-264 752-258 282-683 282-481 0-770-272t-333-766l2050 4z" transform="scale(.01563)"/><path id="prefix__DejaVuSans-28" d="M1984 4856q-418-718-622-1422-203-703-203-1425 0-721 205-1429t620-1424h-500Q1016-109 783 600T550 2009q0 697 231 1403 232 707 703 1444h500z" transform="scale(.01563)"/><path id="prefix__DejaVuSans-73" d="M2834 3397v-544q-243 125-506 187-262 63-544 63-428 0-642-131t-214-394q0-200 153-314t616-217l197-44q612-131 870-370t258-667q0-488-386-773Q2250-91 1575-91q-281 0-586 55T347 128v594q319-166 628-249 309-82 613-82 406 0 624 139 219 139 219 392 0 234-158 359-157 125-692 241l-200 47q-534 112-772 345-237 233-237 639 0 494 350 762 350 269 994 269 318 0 599-47 282-46 519-140z" transform="scale(.01563)"/><path id="prefix__DejaVuSans-29" d="M513 4856h500q468-737 701-1444 233-706 233-1403 0-700-233-1409T1013-844H513q415 716 620 1424t205 1429q0 722-205 1425-205 704-620 1422z" transform="scale(.01563)"/></defs><use xlink:href="#prefix__DejaVuSans-54"/><use xlink:href="#prefix__DejaVuSans-69" x="57.959"/><use xlink:href="#prefix__DejaVuSans-6d" x="85.742"/><use xlink:href="#prefix__DejaVuSans-65" x="183.154"/><use xlink:href="#prefix__DejaVuSans-20" x="244.678"/><use xlink:href="#prefix__DejaVuSans-28" x="276.465"/><use xlink:href="#prefix__DejaVuSans-73" x="315.479"/><use xlink:href="#prefix__DejaVuSans-29" x="367.578"/></g></g><g id="prefix__matplotlib_axis_2"><g id="prefix__ytick_1"><path d="M108 340.16h669.6" clip-path="url(#prefix__p4f512c1fb7)" fill="none" stroke-dasharray="3.7 1.6" stroke="gray" stroke-opacity=".7" id="prefix__line2d_17"/><g id="prefix__line2d_18"><defs><path id="prefix__mb15178e487" d="M0 0h-3.5" stroke="#000" stroke-width=".8"/></defs><use xlink:href="#prefix__mb15178e487" x="108" y="340.161" stroke="#000" stroke-width=".8"/></g><g transform="matrix(.1 0 0 -.1 76.717 343.96)" id="prefix__text_10"><defs><path id="prefix__DejaVuSans-2212" d="M678 2272h4006v-531H678v531z" transform="scale(.01563)"/></defs><use xlink:href="#prefix__DejaVuSans-2212"/><use xlink:href="#prefix__DejaVuSans-30" x="83.789"/><use xlink:href="#prefix__DejaVuSans-2e" x="147.412"/><use xlink:href="#prefix__DejaVuSans-31" x="179.199"/></g></g><g id="prefix__ytick_2"><path d="M108 308.877h669.6" clip-path="url(#prefix__p4f512c1fb7)" fill="none" stroke-dasharray="3.7 1.6" stroke="gray" stroke-opacity=".7" id="prefix__line2d_19"/><use xlink:href="#prefix__mb15178e487" x="108" y="308.877" stroke="#000" stroke-width=".8" id="prefix__line2d_20"/><g transform="matrix(.1 0 0 -.1 85.097 312.676)" id="prefix__text_11"><use xlink:href="#prefix__DejaVuSans-30"/><use xlink:href="#prefix__DejaVuSans-2e" x="63.623"/><use xlink:href="#prefix__DejaVuSans-30" x="95.41"/></g></g><g id="prefix__ytick_3"><path d="M108 277.593h669.6" clip-path="url(#prefix__p4f512c1fb7)" fill="none" stroke-dasharray="3.7 1.6" stroke="gray" stroke-opacity=".7" id="prefix__line2d_21"/><use xlink:href="#prefix__mb15178e487" x="108" y="277.593" stroke="#000" stroke-width=".8" id="prefix__line2d_22"/><g transform="matrix(.1 0 0 -.1 85.097 281.393)" id="prefix__text_12"><use xlink:href="#prefix__DejaVuSans-30"/><use xlink:href="#prefix__DejaVuSans-2e" x="63.623"/><use xlink:href="#prefix__DejaVuSans-31" x="95.41"/></g></g><g id="prefix__ytick_4"><path d="M108 246.31h669.6" clip-path="url(#prefix__p4f512c1fb7)" fill="none" stroke-dasharray="3.7 1.6" stroke="gray" stroke-opacity=".7" id="prefix__line2d_23"/><use xlink:href="#prefix__mb15178e487" x="108" y="246.31" stroke="#000" stroke-width=".8" id="prefix__line2d_24"/><g transform="matrix(.1 0 0 -.1 85.097 250.109)" id="prefix__text_13"><use xlink:href="#prefix__DejaVuSans-30"/><use xlink:href="#prefix__DejaVuSans-2e" x="63.623"/><use xlink:href="#prefix__DejaVuSans-32" x="95.41"/></g></g><g id="prefix__ytick_5"><path d="M108 215.026h669.6" clip-path="url(#prefix__p4f512c1fb7)" fill="none" stroke-dasharray="3.7 1.6" stroke="gray" stroke-opacity=".7" id="prefix__line2d_25"/><use xlink:href="#prefix__mb15178e487" x="108" y="215.026" stroke="#000" stroke-width=".8" id="prefix__line2d_26"/><g transform="matrix(.1 0 0 -.1 85.097 218.825)" id="prefix__text_14"><defs><path id="prefix__DejaVuSans-33" d="M2597 2516q453-97 707-404 255-306 255-756 0-690-475-1069Q2609-91 1734-91q-293 0-604 58T488 141v609q262-153 574-231 313-78 654-78 593 0 904 234t311 681q0 413-289 645-289 233-804 233h-544v519h569q465 0 712 186t247 536q0 359-255 551-254 193-729 193-260 0-557-57-297-56-653-174v562q360 100 674 150t592 50q719 0 1137-327 419-326 419-882 0-388-222-655t-631-370z" transform="scale(.01563)"/></defs><use xlink:href="#prefix__DejaVuSans-30"/><use xlink:href="#prefix__DejaVuSans-2e" x="63.623"/><use xlink:href="#prefix__DejaVuSans-33" x="95.41"/></g></g><g id="prefix__ytick_6"><path d="M108 183.742h669.6" clip-path="url(#prefix__p4f512c1fb7)" fill="none" stroke-dasharray="3.7 1.6" stroke="gray" stroke-opacity=".7" id="prefix__line2d_27"/><use xlink:href="#prefix__mb15178e487" x="108" y="183.742" stroke="#000" stroke-width=".8" id="prefix__line2d_28"/><g transform="matrix(.1 0 0 -.1 85.097 187.542)" id="prefix__text_15"><use xlink:href="#prefix__DejaVuSans-30"/><use xlink:href="#prefix__DejaVuSans-2e" x="63.623"/><use xlink:href="#prefix__DejaVuSans-34" x="95.41"/></g></g><g id="prefix__ytick_7"><path d="M108 152.459h669.6" clip-path="url(#prefix__p4f512c1fb7)" fill="none" stroke-dasharray="3.7 1.6" stroke="gray" stroke-opacity=".7" id="prefix__line2d_29"/><use xlink:href="#prefix__mb15178e487" x="108" y="152.459" stroke="#000" stroke-width=".8" id="prefix__line2d_30"/><g transform="matrix(.1 0 0 -.1 85.097 156.258)" id="prefix__text_16"><defs><path id="prefix__DejaVuSans-35" d="M691 4666h2478v-532H1269V2991q137 47 274 70 138 23 276 23 781 0 1237-428 457-428 457-1159 0-753-469-1171Q2575-91 1722-91q-294 0-599 50Q819 9 494 109v635q281-153 581-228t634-75q541 0 856 284 316 284 316 772 0 487-316 771-315 285-856 285-253 0-505-56-251-56-513-175v2344z" transform="scale(.01563)"/></defs><use xlink:href="#prefix__DejaVuSans-30"/><use xlink:href="#prefix__DejaVuSans-2e" x="63.623"/><use xlink:href="#prefix__DejaVuSans-35" x="95.41"/></g></g><g id="prefix__ytick_8"><path d="M108 121.175h669.6" clip-path="url(#prefix__p4f512c1fb7)" fill="none" stroke-dasharray="3.7 1.6" stroke="gray" stroke-opacity=".7" id="prefix__line2d_31"/><use xlink:href="#prefix__mb15178e487" x="108" y="121.175" stroke="#000" stroke-width=".8" id="prefix__line2d_32"/><g transform="matrix(.1 0 0 -.1 85.097 124.974)" id="prefix__text_17"><use xlink:href="#prefix__DejaVuSans-30"/><use xlink:href="#prefix__DejaVuSans-2e" x="63.623"/><use xlink:href="#prefix__DejaVuSans-36" x="95.41"/></g></g><g transform="matrix(0 -.1 -.1 0 70.638 251.083)" id="prefix__text_18"><defs><path id="prefix__DejaVuSans-50" d="M1259 4147V2394h794q441 0 681 228 241 228 241 650 0 419-241 647-240 228-681 228h-794zm-631 519h1425q785 0 1186-355 402-355 402-1039 0-691-402-1044-401-353-1186-353h-794V0H628v4666z" transform="scale(.01563)"/><path id="prefix__DejaVuSans-6f" d="M1959 3097q-462 0-731-361t-269-989q0-628 267-989 268-361 733-361 460 0 728 362 269 363 269 988 0 622-269 986-268 364-728 364zm0 487q750 0 1178-488 429-487 429-1349 0-859-429-1349Q2709-91 1959-91q-753 0-1180 489-426 490-426 1349 0 862 426 1349 427 488 1180 488z" transform="scale(.01563)"/><path id="prefix__DejaVuSans-74" d="M1172 4494v-994h1184v-447H1172V1153q0-428 117-550t477-122h590V0h-590q-666 0-919 248-253 249-253 905v1900H172v447h422v994h578z" transform="scale(.01563)"/><path id="prefix__DejaVuSans-6e" d="M3513 2113V0h-575v2094q0 497-194 743-194 247-581 247-466 0-735-297-269-296-269-809V0H581v3500h578v-544q207 316 486 472 280 156 646 156 603 0 912-373 310-373 310-1098z" transform="scale(.01563)"/></defs><use xlink:href="#prefix__DejaVuSans-50"/><use xlink:href="#prefix__DejaVuSans-6f" x="56.678"/><use xlink:href="#prefix__DejaVuSans-73" x="117.859"/><use xlink:href="#prefix__DejaVuSans-69" x="169.959"/><use xlink:href="#prefix__DejaVuSans-74" x="197.742"/><use xlink:href="#prefix__DejaVuSans-69" x="236.951"/><use xlink:href="#prefix__DejaVuSans-6f" x="264.734"/><use xlink:href="#prefix__DejaVuSans-6e" x="325.916"/></g></g><path d="M138.436 154.962l1.626-.186 3.25-.63 1.626.018.813.155.813.278 1.625.941 2.438 1.56.813.39.813.258 1.625.164 1.625.146.813.195 1.626.732 6.501 3.412 4.877 3.514 1.625 1.357 1.626 1.622 6.501 7.047 1.626 1.273 1.625.974 1.626.702 1.625.48 1.626.26 1.625.019 1.625-.234 1.626-.495 1.625-.775 1.626-1.05 1.625-1.307 1.626-1.54 2.438-2.663 3.25-3.98 5.69-7.077 3.25-3.622 2.439-2.417 2.438-2.169 3.25-2.571 4.064-2.854 4.877-3.12 13.003-7.955 3.251-1.651 2.438-1.006 2.438-.745 1.626-.321 1.625-.157 1.626.028 1.625.239 1.626.481 1.625.708 1.626.913 3.25 2.203 1.626.988.813.323.812.134.813-.045.813-.205 1.625-.723 4.064-2.18 1.625-.593 1.626-.367 4.876-.701 1.625-.516 1.626-.867 1.625-1.289 1.626-1.622 4.063-4.284 2.438-2.118 4.064-3.27 3.251-2.862.813-.522.812-.347.813-.13.813.125.813.4.812.676.813.924 1.625 2.42 2.439 4.41 3.25 5.997 2.439 3.998 1.625 2.309 1.626 1.989 1.625 1.654 1.625 1.34 1.626 1.062 1.625.805 1.626.561 1.625.316 1.626.055 1.625-.223 1.625-.48 1.626-.698 2.438-1.344 2.438-1.407 1.626-.673 1.625-.384 1.626-.093 1.625.17 1.625.41 1.626.644 1.625.903 1.626 1.112 2.438 2.007 2.438 2.367 2.438 2.666 7.315 8.412 1.625 1.447 1.626 1.142 1.625.809 1.625.475 1.626.15 1.625-.155 1.626-.431 1.625-.672 2.438-1.354 2.439-1.654 4.063-3.121 4.064-3.141 1.625-1.086 1.626-.882 2.438-1.03 2.438-.759 2.438-.52 2.438-.295 2.438-.076 2.439.14 2.438.355 2.438.58 2.438.814 2.438 1.06 3.251 1.708 3.251 1.717 1.625.643 1.626.471 1.625.305 1.626.148 2.438-.047 2.438-.324 2.438-.549 6.502-1.724 2.438-.249 2.438-.01 13.817.66 9.752.051 45.513-.013 11.378-.022 11.378.02 11.378-.023 11.378.025 11.378-.026 11.378.026 11.378-.027 11.378.027 11.378-.028 11.378.028 11.378-.029 11.378.03 11.379-.03 11.378.03 11.378-.03 11.378.03 11.378-.03 11.378.03 11.378-.031 4.064-.016h0" clip-path="url(#prefix__p4f512c1fb7)" fill="none" stroke="#1f77b4" stroke-width="1.5" stroke-linecap="square" id="prefix__line2d_33"/><path d="M138.436 152.459h608.728" clip-path="url(#prefix__p4f512c1fb7)" fill="none" stroke-dasharray="5.55 2.4" stroke="#ff7f0e" stroke-opacity=".7" stroke-width="1.5" id="prefix__line2d_34"/><path d="M138.436 266.957l1.626-.163 1.625-.367 1.626-.55 4.876-1.935.813-.034.812.163.813.406.813.642 1.625 1.853 1.626 2.366 7.314 11.548 2.438 3.693 2.439 4.134 3.25 6.04 12.191 23.449 4.064 8.21 2.438 4.507 2.438 4.026 2.438 3.521 2.438 3.007 1.626 1.704 1.625 1.452 1.626 1.192 1.625.925 1.626.656 1.625.39 1.626.134 1.625-.103 1.625-.319 1.626-.507 2.438-1.059 2.438-1.353 2.438-1.607 2.439-1.855 2.438-2.116 2.438-2.396 2.438-2.69 2.438-2.995 2.438-3.303 2.438-3.616 3.251-5.274 2.439-3.807 2.438-3.435 2.438-3.064 2.438-2.71 2.438-2.382 2.438-2.079 2.438-1.82 3.251-2.109 3.251-1.905 3.251-1.678 2.438-.94 2.438-.765 1.626-.218 1.625-.02 2.438.225 2.439.457 2.438.716 1.625.685 1.626.917 1.625 1.224 1.626 1.571 13.003 14.014 2.438 2.14 1.626 1.174 1.625.91 1.626.61 1.625.3 6.502.51 4.876.657 2.438-.009 1.626-.21 1.625-.411 1.626-.64 1.625-.884 1.625-1.128 1.626-1.366 2.438-2.424 3.25-3.366 1.626-1.416 1.626-1.105 1.625-.798 1.626-.494 1.625-.187 1.626.11 1.625.398 1.625.64 6.502 3.046 3.251 1.108 7.315 2.201 2.438.521 2.438.222 2.438-.066 4.064-.377 5.689-.764 9.752-1.575 2.438-.106 5.69-.037 3.25-.416 7.315-1.155 3.25-.251 3.252.01 2.438.197 3.25.505 4.877.78 3.25.258 4.877.106 13.816.07 7.315.214 9.753-.131 14.629-.041 90.211.012 56.078-.007 58.516.002 55.265-.004.813.002h0" clip-path="url(#prefix__p4f512c1fb7)" fill="none" stroke="#2ca02c" stroke-width="1.5" stroke-linecap="square" id="prefix__line2d_35"/><path d="M138.436 308.877h608.728" clip-path="url(#prefix__p4f512c1fb7)" fill="none" stroke-dasharray="5.55 2.4" stroke="#d62728" stroke-opacity=".7" stroke-width="1.5" id="prefix__line2d_36"/><path d="M138.436 149.956l4.064.023 2.438-.254 1.626-.48 1.625-.888 4.064-2.829 1.625-.714 1.625-.346 1.626.013 1.625.325 1.626.564 1.625.805 1.626 1.06 4.876 3.606 2.438 1.288 4.064 1.903 1.625 1.07 1.626 1.307 1.625 1.523 4.876 4.963 1.626 1.33 3.25 2.273 5.69 3.998 3.25 2.234 2.439 1.442 2.438 1.139 2.438.794 2.438.451 2.438.138 2.439-.13 2.438-.343 3.25-.68 7.315-1.85 5.69-1.58 4.063-1.357 4.063-1.629 4.064-1.91 7.314-3.768 3.251-1.856 2.438-1.663 2.439-2.023 4.876-4.238 1.625-1.04.813-.349.813-.2.813-.028 1.625.29 4.876 1.372 1.626.218 1.625.063 2.438-.183 2.439-.481 4.876-1.214.813-.018.812.128.813.298 1.625 1.088 1.626 1.436 3.25 3.302 1.626 2.087 3.251 5.225 1.626 2.918 2.438 4.967 4.063 8.641 1.626 2.714.812 1.093.813.907.813.722.813.545.812.382.813.232.813.096.812-.028 1.626-.385 1.625-.743 1.626-1.024 1.625-1.25 1.626-1.45 1.625-1.665 1.626-1.9 1.625-2.155 1.625-2.426 2.439-4.157 2.438-4.71 4.063-8.517 2.439-5.045 1.625-2.796 1.625-2.22 1.626-1.69 1.625-1.21 1.626-.792 1.625-.508 1.626-.263 1.625-.003 1.625.265 1.626.538 1.625.82 1.626 1.112 1.625 1.403 4.877 4.493 1.625 1.22 1.625.954 1.626.686 1.625.43 1.626.238 2.438.07 2.438-.258 1.626-.368 8.127-2.32 3.25-.5 3.251-.235 5.69-.173 3.25-.464 5.69-1.189 3.25-.586 2.438-.27 2.439-.054 2.438.212 2.438.497 5.689 1.34 3.25.41 4.064.195 17.068.427 5.689.127 49.576-.188h234.876" clip-path="url(#prefix__p4f512c1fb7)" fill="none" stroke="#9467bd" stroke-width="1.5" stroke-linecap="square" id="prefix__line2d_37"/><path d="M138.436 152.459h608.728" clip-path="url(#prefix__p4f512c1fb7)" fill="none" stroke-dasharray="5.55 2.4" stroke="#8c564b" stroke-opacity=".7" stroke-width="1.5" id="prefix__line2d_38"/><path d="M108 359.557V103.68" fill="none" stroke="#000" stroke-width=".8" stroke-linecap="square" id="prefix__patch_3"/><path d="M777.6 359.557V103.68" fill="none" stroke="#000" stroke-width=".8" stroke-linecap="square" id="prefix__patch_4"/><path d="M108 359.557h669.6" fill="none" stroke="#000" stroke-width=".8" stroke-linecap="square" id="prefix__patch_5"/><path d="M108 103.68h669.6" fill="none" stroke="#000" stroke-width=".8" stroke-linecap="square" id="prefix__patch_6"/><g transform="matrix(.12 0 0 -.12 317.943 97.68)" id="prefix__text_19"><defs><path id="prefix__DejaVuSans-66" d="M2375 4863v-479h-550q-309 0-430-125-120-125-120-450v-309h947v-447h-947V0H697v3053H147v447h550v244q0 584 272 851 272 268 862 268h544z" transform="scale(.01563)"/><path id="prefix__DejaVuSans-45" d="M628 4666h2950v-532H1259V2753h2222v-531H1259V531h2375V0H628v4666z" transform="scale(.01563)"/><path id="prefix__DejaVuSans-64" d="M2906 2969v1894h575V0h-575v525q-181-312-458-464-276-152-664-152-634 0-1033 506-398 507-398 1332t398 1331q399 506 1033 506 388 0 664-152 277-151 458-463zM947 1747q0-634 261-995t717-361q456 0 718 361 263 361 263 995t-263 995q-262 361-718 361t-717-361q-261-361-261-995z" transform="scale(.01563)"/><path id="prefix__DejaVuSans-2d" d="M313 2009h1684v-512H313v512z" transform="scale(.01563)"/><path id="prefix__DejaVuSans-63" d="M3122 3366v-538q-244 135-489 202t-495 67q-560 0-870-355-309-354-309-995t309-996q310-354 870-354 250 0 495 67t489 202V134Q2881 22 2623-34q-257-57-548-57-791 0-1257 497-465 497-465 1341 0 856 470 1346 471 491 1290 491 265 0 518-55 253-54 491-163z" transform="scale(.01563)"/><path id="prefix__DejaVuSans-72" d="M2631 2963q-97 56-211 82-114 27-251 27-488 0-749-317t-261-911V0H581v3500h578v-544q182 319 472 473 291 155 707 155 59 0 131-8 72-7 159-23l3-590z" transform="scale(.01563)"/><path id="prefix__DejaVuSans-61" d="M2194 1759q-697 0-966-159t-269-544q0-306 202-486 202-179 548-179 479 0 768 339t289 901v128h-572zm1147 238V0h-575v531q-197-318-491-470T1556-91q-537 0-855 302-317 302-317 808 0 590 395 890 396 300 1180 300h807v57q0 397-261 614t-733 217q-300 0-585-72-284-72-546-216v532q315 122 612 182 297 61 578 61 760 0 1135-394 375-393 375-1193z" transform="scale(.01563)"/><path id="prefix__DejaVuSans-44" d="M1259 4147V519h763q966 0 1414 437 448 438 448 1382 0 937-448 1373t-1414 436h-763zm-631 519h1297q1356 0 1990-564 635-564 635-1764 0-1207-638-1773Q3275 0 1925 0H628v4666z" transform="scale(.01563)"/></defs><use xlink:href="#prefix__DejaVuSans-50"/><use xlink:href="#prefix__DejaVuSans-6f" x="56.678"/><use xlink:href="#prefix__DejaVuSans-73" x="117.859"/><use xlink:href="#prefix__DejaVuSans-69" x="169.959"/><use xlink:href="#prefix__DejaVuSans-74" x="197.742"/><use xlink:href="#prefix__DejaVuSans-69" x="236.951"/><use xlink:href="#prefix__DejaVuSans-6f" x="264.734"/><use xlink:href="#prefix__DejaVuSans-6e" x="325.916"/><use xlink:href="#prefix__DejaVuSans-20" x="389.295"/><use xlink:href="#prefix__DejaVuSans-6f" x="421.082"/><use xlink:href="#prefix__DejaVuSans-66" x="482.264"/><use xlink:href="#prefix__DejaVuSans-20" x="517.469"/><use xlink:href="#prefix__DejaVuSans-45" x="549.256"/><use xlink:href="#prefix__DejaVuSans-6e" x="612.439"/><use xlink:href="#prefix__DejaVuSans-64" x="675.818"/><use xlink:href="#prefix__DejaVuSans-2d" x="739.295"/><use xlink:href="#prefix__DejaVuSans-45" x="775.379"/><use xlink:href="#prefix__DejaVuSans-66" x="838.563"/><use xlink:href="#prefix__DejaVuSans-66" x="873.768"/><use xlink:href="#prefix__DejaVuSans-65" x="908.973"/><use xlink:href="#prefix__DejaVuSans-63" x="970.496"/><use xlink:href="#prefix__DejaVuSans-74" x="1025.477"/><use xlink:href="#prefix__DejaVuSans-6f" x="1064.686"/><use xlink:href="#prefix__DejaVuSans-72" x="1125.867"/><use xlink:href="#prefix__DejaVuSans-20" x="1166.98"/><use xlink:href="#prefix__DejaVuSans-61" x="1198.768"/><use xlink:href="#prefix__DejaVuSans-6e" x="1260.047"/><use xlink:href="#prefix__DejaVuSans-64" x="1323.426"/><use xlink:href="#prefix__DejaVuSans-20" x="1386.902"/><use xlink:href="#prefix__DejaVuSans-44" x="1418.689"/><use xlink:href="#prefix__DejaVuSans-65" x="1495.691"/><use xlink:href="#prefix__DejaVuSans-73" x="1557.215"/><use xlink:href="#prefix__DejaVuSans-69" x="1609.314"/><use xlink:href="#prefix__DejaVuSans-72" x="1637.098"/><use xlink:href="#prefix__DejaVuSans-65" x="1675.961"/><use xlink:href="#prefix__DejaVuSans-64" x="1737.484"/><use xlink:href="#prefix__DejaVuSans-20" x="1800.961"/><use xlink:href="#prefix__DejaVuSans-50" x="1832.748"/><use xlink:href="#prefix__DejaVuSans-6f" x="1889.426"/><use xlink:href="#prefix__DejaVuSans-69" x="1950.607"/><use xlink:href="#prefix__DejaVuSans-6e" x="1978.391"/><use xlink:href="#prefix__DejaVuSans-74" x="2041.77"/></g><g id="prefix__legend_1"><path d="M501.295 141.036H770.6q2 0 2-2V110.68q0-2-2-2H501.295q-2 0-2 2v28.356q0 2 2 2z" fill="#fff" opacity=".8" stroke="#ccc" id="prefix__patch_7"/><path d="M503.295 116.778h20" fill="none" stroke="#1f77b4" stroke-width="1.5" stroke-linecap="square" id="prefix__line2d_39"/><g transform="matrix(.1 0 0 -.1 531.295 120.278)" id="prefix__text_20"><defs><path id="prefix__DejaVuSans-78" d="M3513 3500L2247 1797 3578 0h-678L1881 1375 863 0H184l1360 1831L300 3500h678l928-1247 928 1247h679z" transform="scale(.01563)"/></defs><use xlink:href="#prefix__DejaVuSans-78"/></g><path d="M503.295 131.457h20" fill="none" stroke-dasharray="5.55 2.4" stroke="#ff7f0e" stroke-opacity=".7" stroke-width="1.5" id="prefix__line2d_40"/><g transform="matrix(.1 0 0 -.1 531.295 134.957)" id="prefix__text_21"><use xlink:href="#prefix__DejaVuSans-44"/><use xlink:href="#prefix__DejaVuSans-65" x="77.002"/><use xlink:href="#prefix__DejaVuSans-73" x="138.525"/><use xlink:href="#prefix__DejaVuSans-69" x="190.625"/><use xlink:href="#prefix__DejaVuSans-72" x="218.408"/><use xlink:href="#prefix__DejaVuSans-65" x="257.271"/><use xlink:href="#prefix__DejaVuSans-64" x="318.795"/><use xlink:href="#prefix__DejaVuSans-20" x="382.271"/><use xlink:href="#prefix__DejaVuSans-78" x="414.059"/></g><path d="M598.62 116.778h20" fill="none" stroke="#2ca02c" stroke-width="1.5" stroke-linecap="square" id="prefix__line2d_41"/><g transform="matrix(.1 0 0 -.1 626.62 120.278)" id="prefix__text_22"><defs><path id="prefix__DejaVuSans-79" d="M2059-325q-243-625-475-815-231-191-618-191H506v481h338q237 0 368 113 132 112 291 531l103 262L191 3500h609L1894 763l1094 2737h609L2059-325z" transform="scale(.01563)"/></defs><use xlink:href="#prefix__DejaVuSans-79"/></g><path d="M598.62 131.457h20" fill="none" stroke-dasharray="5.55 2.4" stroke="#d62728" stroke-opacity=".7" stroke-width="1.5" id="prefix__line2d_42"/><g transform="matrix(.1 0 0 -.1 626.62 134.957)" id="prefix__text_23"><use xlink:href="#prefix__DejaVuSans-44"/><use xlink:href="#prefix__DejaVuSans-65" x="77.002"/><use xlink:href="#prefix__DejaVuSans-73" x="138.525"/><use xlink:href="#prefix__DejaVuSans-69" x="190.625"/><use xlink:href="#prefix__DejaVuSans-72" x="218.408"/><use xlink:href="#prefix__DejaVuSans-65" x="257.271"/><use xlink:href="#prefix__DejaVuSans-64" x="318.795"/><use xlink:href="#prefix__DejaVuSans-20" x="382.271"/><use xlink:href="#prefix__DejaVuSans-79" x="414.059"/></g><path d="M693.945 116.778h20" fill="none" stroke="#9467bd" stroke-width="1.5" stroke-linecap="square" id="prefix__line2d_43"/><g transform="matrix(.1 0 0 -.1 721.945 120.278)" id="prefix__text_24"><defs><path id="prefix__DejaVuSans-7a" d="M353 3500h2731v-525L922 459h2162V0H275v525l2163 2516H353v459z" transform="scale(.01563)"/></defs><use xlink:href="#prefix__DejaVuSans-7a"/></g><path d="M693.945 131.457h20" fill="none" stroke-dasharray="5.55 2.4" stroke="#8c564b" stroke-opacity=".7" stroke-width="1.5" id="prefix__line2d_44"/><g transform="matrix(.1 0 0 -.1 721.945 134.957)" id="prefix__text_25"><use xlink:href="#prefix__DejaVuSans-44"/><use xlink:href="#prefix__DejaVuSans-65" x="77.002"/><use xlink:href="#prefix__DejaVuSans-73" x="138.525"/><use xlink:href="#prefix__DejaVuSans-69" x="190.625"/><use xlink:href="#prefix__DejaVuSans-72" x="218.408"/><use xlink:href="#prefix__DejaVuSans-65" x="257.271"/><use xlink:href="#prefix__DejaVuSans-64" x="318.795"/><use xlink:href="#prefix__DejaVuSans-20" x="382.271"/><use xlink:href="#prefix__DejaVuSans-7a" x="414.059"/></g></g></g><g id="prefix__axes_2"><path d="M108 768.96h669.6V513.083H108z" fill="#fff" id="prefix__patch_8"/><g id="prefix__matplotlib_axis_3"><g id="prefix__xtick_9"><path d="M138.436 768.96V513.083" clip-path="url(#prefix__p129d464f72)" fill="none" stroke-dasharray="3.7 1.6" stroke="gray" stroke-opacity=".7" id="prefix__line2d_45"/><use xlink:href="#prefix__md48113c535" x="138.436" y="768.96" stroke="#000" stroke-width=".8" id="prefix__line2d_46"/><g transform="matrix(.1 0 0 -.1 130.485 783.558)" id="prefix__text_26"><use xlink:href="#prefix__DejaVuSans-30"/><use xlink:href="#prefix__DejaVuSans-2e" x="63.623"/><use xlink:href="#prefix__DejaVuSans-30" x="95.41"/></g></g><g id="prefix__xtick_10"><path d="M219.708 768.96V513.083" clip-path="url(#prefix__p129d464f72)" fill="none" stroke-dasharray="3.7 1.6" stroke="gray" stroke-opacity=".7" id="prefix__line2d_47"/><use xlink:href="#prefix__md48113c535" x="219.708" y="768.96" stroke="#000" stroke-width=".8" id="prefix__line2d_48"/><g transform="matrix(.1 0 0 -.1 211.757 783.558)" id="prefix__text_27"><use xlink:href="#prefix__DejaVuSans-30"/><use xlink:href="#prefix__DejaVuSans-2e" x="63.623"/><use xlink:href="#prefix__DejaVuSans-32" x="95.41"/></g></g><g id="prefix__xtick_11"><path d="M300.98 768.96V513.083" clip-path="url(#prefix__p129d464f72)" fill="none" stroke-dasharray="3.7 1.6" stroke="gray" stroke-opacity=".7" id="prefix__line2d_49"/><use xlink:href="#prefix__md48113c535" x="300.98" y="768.96" stroke="#000" stroke-width=".8" id="prefix__line2d_50"/><g transform="matrix(.1 0 0 -.1 293.029 783.558)" id="prefix__text_28"><use xlink:href="#prefix__DejaVuSans-30"/><use xlink:href="#prefix__DejaVuSans-2e" x="63.623"/><use xlink:href="#prefix__DejaVuSans-34" x="95.41"/></g></g><g id="prefix__xtick_12"><path d="M382.252 768.96V513.083" clip-path="url(#prefix__p129d464f72)" fill="none" stroke-dasharray="3.7 1.6" stroke="gray" stroke-opacity=".7" id="prefix__line2d_51"/><use xlink:href="#prefix__md48113c535" x="382.252" y="768.96" stroke="#000" stroke-width=".8" id="prefix__line2d_52"/><g transform="matrix(.1 0 0 -.1 374.3 783.558)" id="prefix__text_29"><use xlink:href="#prefix__DejaVuSans-30"/><use xlink:href="#prefix__DejaVuSans-2e" x="63.623"/><use xlink:href="#prefix__DejaVuSans-36" x="95.41"/></g></g><g id="prefix__xtick_13"><path d="M463.524 768.96V513.083" clip-path="url(#prefix__p129d464f72)" fill="none" stroke-dasharray="3.7 1.6" stroke="gray" stroke-opacity=".7" id="prefix__line2d_53"/><use xlink:href="#prefix__md48113c535" x="463.524" y="768.96" stroke="#000" stroke-width=".8" id="prefix__line2d_54"/><g transform="matrix(.1 0 0 -.1 455.573 783.558)" id="prefix__text_30"><use xlink:href="#prefix__DejaVuSans-30"/><use xlink:href="#prefix__DejaVuSans-2e" x="63.623"/><use xlink:href="#prefix__DejaVuSans-38" x="95.41"/></g></g><g id="prefix__xtick_14"><path d="M544.796 768.96V513.083" clip-path="url(#prefix__p129d464f72)" fill="none" stroke-dasharray="3.7 1.6" stroke="gray" stroke-opacity=".7" id="prefix__line2d_55"/><use xlink:href="#prefix__md48113c535" x="544.796" y="768.96" stroke="#000" stroke-width=".8" id="prefix__line2d_56"/><g transform="matrix(.1 0 0 -.1 536.845 783.558)" id="prefix__text_31"><use xlink:href="#prefix__DejaVuSans-31"/><use xlink:href="#prefix__DejaVuSans-2e" x="63.623"/><use xlink:href="#prefix__DejaVuSans-30" x="95.41"/></g></g><g id="prefix__xtick_15"><path d="M626.068 768.96V513.083" clip-path="url(#prefix__p129d464f72)" fill="none" stroke-dasharray="3.7 1.6" stroke="gray" stroke-opacity=".7" id="prefix__line2d_57"/><use xlink:href="#prefix__md48113c535" x="626.068" y="768.96" stroke="#000" stroke-width=".8" id="prefix__line2d_58"/><g transform="matrix(.1 0 0 -.1 618.117 783.558)" id="prefix__text_32"><use xlink:href="#prefix__DejaVuSans-31"/><use xlink:href="#prefix__DejaVuSans-2e" x="63.623"/><use xlink:href="#prefix__DejaVuSans-32" x="95.41"/></g></g><g id="prefix__xtick_16"><path d="M707.34 768.96V513.083" clip-path="url(#prefix__p129d464f72)" fill="none" stroke-dasharray="3.7 1.6" stroke="gray" stroke-opacity=".7" id="prefix__line2d_59"/><use xlink:href="#prefix__md48113c535" x="707.34" y="768.96" stroke="#000" stroke-width=".8" id="prefix__line2d_60"/><g transform="matrix(.1 0 0 -.1 699.389 783.558)" id="prefix__text_33"><use xlink:href="#prefix__DejaVuSans-31"/><use xlink:href="#prefix__DejaVuSans-2e" x="63.623"/><use xlink:href="#prefix__DejaVuSans-34" x="95.41"/></g></g><g transform="matrix(.1 0 0 -.1 422.471 797.237)" id="prefix__text_34"><use xlink:href="#prefix__DejaVuSans-54"/><use xlink:href="#prefix__DejaVuSans-69" x="57.959"/><use xlink:href="#prefix__DejaVuSans-6d" x="85.742"/><use xlink:href="#prefix__DejaVuSans-65" x="183.154"/><use xlink:href="#prefix__DejaVuSans-20" x="244.678"/><use xlink:href="#prefix__DejaVuSans-28" x="276.465"/><use xlink:href="#prefix__DejaVuSans-73" x="315.479"/><use xlink:href="#prefix__DejaVuSans-29" x="367.578"/></g></g><g id="prefix__matplotlib_axis_4"><g id="prefix__ytick_9"><path d="M108 762.413h669.6" clip-path="url(#prefix__p129d464f72)" fill="none" stroke-dasharray="3.7 1.6" stroke="gray" stroke-opacity=".7" id="prefix__line2d_61"/><use xlink:href="#prefix__mb15178e487" x="108" y="762.413" stroke="#000" stroke-width=".8" id="prefix__line2d_62"/><g transform="matrix(.1 0 0 -.1 76.717 766.213)" id="prefix__text_35"><use xlink:href="#prefix__DejaVuSans-2212"/><use xlink:href="#prefix__DejaVuSans-30" x="83.789"/><use xlink:href="#prefix__DejaVuSans-2e" x="147.412"/><use xlink:href="#prefix__DejaVuSans-36" x="179.199"/></g></g><g id="prefix__ytick_10"><path d="M108 732.7h669.6" clip-path="url(#prefix__p129d464f72)" fill="none" stroke-dasharray="3.7 1.6" stroke="gray" stroke-opacity=".7" id="prefix__line2d_63"/><use xlink:href="#prefix__mb15178e487" x="108" y="732.701" stroke="#000" stroke-width=".8" id="prefix__line2d_64"/><g transform="matrix(.1 0 0 -.1 76.717 736.5)" id="prefix__text_36"><use xlink:href="#prefix__DejaVuSans-2212"/><use xlink:href="#prefix__DejaVuSans-30" x="83.789"/><use xlink:href="#prefix__DejaVuSans-2e" x="147.412"/><use xlink:href="#prefix__DejaVuSans-34" x="179.199"/></g></g><g id="prefix__ytick_11"><path d="M108 702.988h669.6" clip-path="url(#prefix__p129d464f72)" fill="none" stroke-dasharray="3.7 1.6" stroke="gray" stroke-opacity=".7" id="prefix__line2d_65"/><use xlink:href="#prefix__mb15178e487" x="108" y="702.988" stroke="#000" stroke-width=".8" id="prefix__line2d_66"/><g transform="matrix(.1 0 0 -.1 76.717 706.788)" id="prefix__text_37"><use xlink:href="#prefix__DejaVuSans-2212"/><use xlink:href="#prefix__DejaVuSans-30" x="83.789"/><use xlink:href="#prefix__DejaVuSans-2e" x="147.412"/><use xlink:href="#prefix__DejaVuSans-32" x="179.199"/></g></g><g id="prefix__ytick_12"><path d="M108 673.276h669.6" clip-path="url(#prefix__p129d464f72)" fill="none" stroke-dasharray="3.7 1.6" stroke="gray" stroke-opacity=".7" id="prefix__line2d_67"/><use xlink:href="#prefix__mb15178e487" x="108" y="673.276" stroke="#000" stroke-width=".8" id="prefix__line2d_68"/><g transform="matrix(.1 0 0 -.1 85.097 677.075)" id="prefix__text_38"><use xlink:href="#prefix__DejaVuSans-30"/><use xlink:href="#prefix__DejaVuSans-2e" x="63.623"/><use xlink:href="#prefix__DejaVuSans-30" x="95.41"/></g></g><g id="prefix__ytick_13"><path d="M108 643.564h669.6" clip-path="url(#prefix__p129d464f72)" fill="none" stroke-dasharray="3.7 1.6" stroke="gray" stroke-opacity=".7" id="prefix__line2d_69"/><use xlink:href="#prefix__mb15178e487" x="108" y="643.564" stroke="#000" stroke-width=".8" id="prefix__line2d_70"/><g transform="matrix(.1 0 0 -.1 85.097 647.363)" id="prefix__text_39"><use xlink:href="#prefix__DejaVuSans-30"/><use xlink:href="#prefix__DejaVuSans-2e" x="63.623"/><use xlink:href="#prefix__DejaVuSans-32" x="95.41"/></g></g><g id="prefix__ytick_14"><path d="M108 613.851h669.6" clip-path="url(#prefix__p129d464f72)" fill="none" stroke-dasharray="3.7 1.6" stroke="gray" stroke-opacity=".7" id="prefix__line2d_71"/><use xlink:href="#prefix__mb15178e487" x="108" y="613.851" stroke="#000" stroke-width=".8" id="prefix__line2d_72"/><g transform="matrix(.1 0 0 -.1 85.097 617.65)" id="prefix__text_40"><use xlink:href="#prefix__DejaVuSans-30"/><use xlink:href="#prefix__DejaVuSans-2e" x="63.623"/><use xlink:href="#prefix__DejaVuSans-34" x="95.41"/></g></g><g id="prefix__ytick_15"><path d="M108 584.139h669.6" clip-path="url(#prefix__p129d464f72)" fill="none" stroke-dasharray="3.7 1.6" stroke="gray" stroke-opacity=".7" id="prefix__line2d_73"/><use xlink:href="#prefix__mb15178e487" x="108" y="584.139" stroke="#000" stroke-width=".8" id="prefix__line2d_74"/><g transform="matrix(.1 0 0 -.1 85.097 587.938)" id="prefix__text_41"><use xlink:href="#prefix__DejaVuSans-30"/><use xlink:href="#prefix__DejaVuSans-2e" x="63.623"/><use xlink:href="#prefix__DejaVuSans-36" x="95.41"/></g></g><g id="prefix__ytick_16"><path d="M108 554.426h669.6" clip-path="url(#prefix__p129d464f72)" fill="none" stroke-dasharray="3.7 1.6" stroke="gray" stroke-opacity=".7" id="prefix__line2d_75"/><use xlink:href="#prefix__mb15178e487" x="108" y="554.426" stroke="#000" stroke-width=".8" id="prefix__line2d_76"/><g transform="matrix(.1 0 0 -.1 85.097 558.225)" id="prefix__text_42"><use xlink:href="#prefix__DejaVuSans-30"/><use xlink:href="#prefix__DejaVuSans-2e" x="63.623"/><use xlink:href="#prefix__DejaVuSans-38" x="95.41"/></g></g><g id="prefix__ytick_17"><path d="M108 524.714h669.6" clip-path="url(#prefix__p129d464f72)" fill="none" stroke-dasharray="3.7 1.6" stroke="gray" stroke-opacity=".7" id="prefix__line2d_77"/><use xlink:href="#prefix__mb15178e487" x="108" y="524.714" stroke="#000" stroke-width=".8" id="prefix__line2d_78"/><g transform="matrix(.1 0 0 -.1 85.097 528.513)" id="prefix__text_43"><use xlink:href="#prefix__DejaVuSans-31"/><use xlink:href="#prefix__DejaVuSans-2e" x="63.623"/><use xlink:href="#prefix__DejaVuSans-30" x="95.41"/></g></g><g transform="matrix(0 -.1 -.1 0 70.638 706.52)" id="prefix__text_44"><defs><path id="prefix__DejaVuSans-4f" d="M2522 4238q-688 0-1093-513-404-512-404-1397 0-881 404-1394 405-512 1093-512 687 0 1089 512 402 513 402 1394 0 885-402 1397-402 513-1089 513zm0 512q981 0 1568-658 588-658 588-1764 0-1103-588-1761Q3503-91 2522-91q-984 0-1574 656-589 657-589 1763t589 1764q590 658 1574 658z" transform="scale(.01563)"/><path id="prefix__DejaVuSans-62" d="M3116 1747q0 634-261 995t-717 361q-457 0-718-361t-261-995q0-634 261-995t718-361q456 0 717 361t261 995zM1159 2969q182 312 458 463 277 152 661 152 638 0 1036-506 399-506 399-1331T3314 415Q2916-91 2278-91q-384 0-661 152-276 152-458 464V0H581v4863h578V2969z" transform="scale(.01563)"/><path id="prefix__DejaVuSans-51" d="M2522 4238q-688 0-1093-513-404-512-404-1397 0-881 404-1394 405-512 1093-512 687 0 1089 512 402 513 402 1394 0 885-402 1397-402 513-1089 513zM3406 84l832-909h-763L2784-78q-103-6-158-9-54-4-104-4-984 0-1574 658-589 658-589 1761 0 1106 589 1764 590 658 1574 658 981 0 1568-658 588-658 588-1764 0-812-327-1391-326-578-945-853z" transform="scale(.01563)"/><path id="prefix__DejaVuSans-75" d="M544 1381v2119h575V1403q0-497 193-746 194-248 582-248 465 0 735 297 271 297 271 810v1984h575V0h-575v538q-209-319-486-474-276-155-642-155-603 0-916 375-312 375-312 1097zm1447 2203z" transform="scale(.01563)"/></defs><use xlink:href="#prefix__DejaVuSans-4f"/><use xlink:href="#prefix__DejaVuSans-72" x="78.711"/><use xlink:href="#prefix__DejaVuSans-69" x="119.824"/><use xlink:href="#prefix__DejaVuSans-65" x="147.607"/><use xlink:href="#prefix__DejaVuSans-6e" x="209.131"/><use xlink:href="#prefix__DejaVuSans-74" x="272.51"/><use xlink:href="#prefix__DejaVuSans-61" x="311.719"/><use xlink:href="#prefix__DejaVuSans-74" x="372.998"/><use xlink:href="#prefix__DejaVuSans-69" x="412.207"/><use xlink:href="#prefix__DejaVuSans-6f" x="439.99"/><use xlink:href="#prefix__DejaVuSans-6e" x="501.172"/><use xlink:href="#prefix__DejaVuSans-20" x="564.551"/><use xlink:href="#prefix__DejaVuSans-62" x="596.338"/><use xlink:href="#prefix__DejaVuSans-79" x="659.814"/><use xlink:href="#prefix__DejaVuSans-20" x="718.994"/><use xlink:href="#prefix__DejaVuSans-51" x="750.781"/><use xlink:href="#prefix__DejaVuSans-75" x="829.492"/><use xlink:href="#prefix__DejaVuSans-61" x="892.871"/><use xlink:href="#prefix__DejaVuSans-74" x="954.15"/><use xlink:href="#prefix__DejaVuSans-65" x="993.359"/><use xlink:href="#prefix__DejaVuSans-72" x="1054.883"/><use xlink:href="#prefix__DejaVuSans-6e" x="1094.246"/><use xlink:href="#prefix__DejaVuSans-69" x="1157.625"/><use xlink:href="#prefix__DejaVuSans-6f" x="1185.408"/><use xlink:href="#prefix__DejaVuSans-6e" x="1246.59"/></g></g><path d="M138.436 598.995l.813 150.67.813 1.958.813 1.052.812-.063.813-1.119.813-1.97.812-2.859.813-3.777.813-4.723.813-5.7 1.625-14.1 2.438-24.697 2.438-24.819.813-6.957.813-5.897.812-4.83.813-3.81.813-2.86.813-1.942.812-.996.813-.088.813.796.813 1.667.812 2.5 1.626 6.65 2.438 10.694 1.625 6.142 1.626 5.134 1.625 4.223.813 1.726.813 1.368.812.798.813.222.813-.174.812-.471 1.626-1.188.813-.432.812-.162.813.077.813.297.813.522.812.735 1.626 2.005 1.625 2.5 1.626 3.028 1.625 3.847 1.625 4.645 2.439 8.069 3.25 10.962 1.626 4.705 1.625 3.891 1.626 2.957.813 1.106.812.857.813.611.813.37.812.136.813-.087.813-.298.813-.495.812-.677 1.626-1.834 1.625-2.355 2.438-4.182 7.315-13.258 2.438-3.805 2.438-3.393 2.438-3.033 3.251-3.62 4.064-4.1 5.689-5.365 2.438-2.098 2.438-1.761 1.626-.908 1.625-.661 1.625-.408 1.626-.162 1.625.063 1.626.26 1.625.448 2.438.903 3.251 1.217 2.438 1.036 1.626.954.813.616 1.625 1.694 1.625 2.188 2.439 3.54 1.625 1.887.813.675.812.46.813.234.813.012.813-.201.812-.402.813-.584 1.626-1.627 1.625-2.078 1.625-2.515 1.626-2.85 3.25-6.148.813-1.073.813-.749.813-.429.813-.107.812.207.813.505 2.438 2.23 1.626 1.186 3.25 2.119.813.848.813 1.538.813 2.227.812 2.794 1.626 6.645 2.438 10.206 1.625 5.991 1.626 4.975.813 1.966.812 1.606.813 1.25.813.9.812.557.813.22.813-.089.813-.336.812-.53 1.626-1.48 1.625-1.85 1.626-2.142 1.625-2.53 1.626-3.034 1.625-3.651 1.625-4.342 1.626-5.064 1.625-5.752 4.877-18.338 1.625-4.952.813-2.004.813-1.706.812-1.43.813-1.138.813-.842.812-.547.813-.265h.813l.813.24.812.459.813.634 1.625 1.727 4.064 5.382 1.625 1.587 1.626 1.256 1.625 1.007 3.251 1.635 3.251 1.399 1.626.707 2.438 1.167 2.438.873 4.063.919 2.439.43 2.438.191 1.625-.088 1.626-.386 1.625-.754 1.626-1.097 1.625-1.363 5.689-5.103.813-.5.812-.3.813-.168 1.626-.022 3.25.081 2.439-.296 2.438-.557 6.502-1.647 2.438-.368 2.438-.123 1.625.087 1.626.243 2.438.656 1.625.372 3.251.37 3.251.258 8.127.93 3.251.02 4.064-.11 2.438.296 4.064.548 3.25.176 3.251-.103 7.315-.295 8.94-.096 37.385.035 39.01-.002 28.446-.01 43.074-.001 119.47.014h0" clip-path="url(#prefix__p129d464f72)" fill="none" stroke="#1f77b4" stroke-width="1.5" stroke-linecap="square" id="prefix__line2d_79"/><path d="M138.436 673.276h608.728" clip-path="url(#prefix__p129d464f72)" fill="none" stroke-dasharray="5.55 2.4" stroke="#ff7f0e" stroke-opacity=".7" stroke-width="1.5" id="prefix__line2d_80"/><path d="M138.436 747.557l.813-145.701 1.626 8.133 3.25 18.916 4.877 28.686.812 3.732.813 2.194.813.747.813-.256.812-.665.813.251.813 1.28.812 2.294.813 3.13 1.626 8.01 4.063 20.319 2.438 11.505 2.439 10.424 3.25 12.404 2.439 8.813 1.625 4.956.813 1.9.812 1.434.813.907.813.243.813-.463.812-1.21.813-2.129.813-3.11.813-4.092.812-5.067.813-6.05 1.625-15.052 2.439-25.564 1.625-14.047 1.625-10.818.813-4.284.813-3.595.813-2.95.812-2.37.813-1.864.813-1.424.812-1.052.813-.735.813-.468.813-.24.812-.05.813.118.813.28.813.43 1.625 1.225 1.625 1.612 1.626 1.901 2.438 3.248 3.25 4.825 10.566 16.252 5.69 8.205 3.25 4.365 3.251 3.947 3.25 3.543 2.44 2.566 7.314 8.565 4.876 5.497 2.438 3.113 1.625 2.487 1.626 3.065 1.625 3.636 3.251 8.82 1.626 5.273 1.625 5.947 2.438 9.461.813 2.124.813 1.396.812.723.813.126.813-.393.813-.834.812-1.203.813-1.509 1.625-3.774 1.626-4.739 1.625-5.371 1.626-5.959 2.438-10.06 4.064-17.862.812-2.483.813-1.874.813-1.406.812-.835.813-.378.813.004.813.332.812.608.813.825.813 1.104.812.749.813.32.813-.043.813-.227.812-.39.813-.54.813-.698.813-.88 1.625-2.177.813-1.259.812-1.544.813-1.952.813-2.454.813-2.892 1.625-7.298 2.438-13.21 2.438-12.856 1.626-7.622 1.625-6.837 1.626-6.115 1.625-5.425 1.626-4.77 1.625-4.19 2.438-5.59 3.251-6.724 3.25-6.264 2.439-4.242 1.625-2.286.813-.885.813-.665.813-.408.812-.115.813.219.813.578.813.941.812 1.327.813 1.753.813 2.207.812 2.68.813 3.17.813 3.675 1.625 8.974 1.626 11.46.812 7.1 2.439 24.945 1.625 12.663.813 5.085.812 4.366.813 3.727.813 3.159.813 2.65.812 2.19.813 1.767.813 1.37.813.995.812.62.813.207.813-.291.812-.9.813-1.68.813-2.769.813-4.527.812-6.219 1.626-10.229 1.625-8.802 1.626-7.914 1.625-6.946 1.625-5.65 1.626-4.42 1.625-3.312 1.626-2.387.813-.908.812-.711.813-.482.813-.246.812-.03.813.17.813.358.813.541.812.722.813.906.813 1.098.812 1.31.813 1.547.813 1.826.813 2.163.812 2.602.813 3.248.813 4.384.812 6.423 1.626 10.362 1.625 7.943.813 3.162.813 2.69.813 2.274.812 1.913.813 1.605.813 1.338.812 1.102.813.898 1.626 1.305 1.625.836 1.625.556 3.251.804 2.438.408 2.439.144 2.438-.135 1.625-.298.813-.27.813-.478.812-.806.813-1.274.813-1.962.813-3.226.812-5.328 1.626-7.786 1.625-5.99 1.626-4.564 1.625-3.45 1.625-2.565.813-.96.813-.75.813-.545.812-.34.813-.13.813.085.813.32.812.581.813.895.813 1.308.812 1.977.813 3.029 1.626 6.818.812 2.512.813 2.082.813 1.688.812 1.347.813 1.032.813.733.813.43.812.104.813-.295.813-.73 3.25-4.086.813-.739.813-.51.813-.316 1.625-.297 3.251-.283 4.064-.117 5.689.093 8.127.41 6.502.282 4.876-.032 7.315-.35 4.876-.153 2.438.078 9.753.63 2.438-.104 8.127-.695 2.438.005 5.69.558 4.063.262 2.438-.106 8.127-.723 2.438.022 9.753.809 2.438-.13 7.315-.667 2.438-.046 3.25.288 5.69.497 2.438.041 3.25-.29 5.69-.493 2.438-.039 3.25.291 5.69.493 2.438.035 3.25-.294 5.69-.489 2.438-.032 3.251.295 5.689.488 2.438.028 3.251-.296 5.69-.484 2.437-.028 3.251.295 5.69.486 2.437.026 3.251-.296 5.69-.484 2.437-.027 3.251.297 5.69.485 2.437.025 4.064-.38 4.876-.401 2.439-.025 4.063.381 4.876.402 2.439.022 4.063-.383 4.877-.4 2.438-.02 4.063.384 4.877.4 2.438.016 4.063-.387 4.877-.397 2.438-.013 4.063.39 2.439.23h0" clip-path="url(#prefix__p129d464f72)" fill="none" stroke="#2ca02c" stroke-width="1.5" stroke-linecap="square" id="prefix__line2d_81"/><path d="M138.436 673.276h608.728" clip-path="url(#prefix__p129d464f72)" fill="none" stroke-dasharray="5.55 2.4" stroke="#d62728" stroke-opacity=".7" stroke-width="1.5" id="prefix__line2d_82"/><path d="M138.436 598.995l.813 145.477 10.565-52.528.813-2.868.813-2.006.813-1.144.812-.28.813.48 1.625 1.959 1.626 1.88.813.64.812.461.813.28.813.11 1.625-.16 1.626-.29.812.034.813.23.813.42 1.625 1.261 3.251 2.867.813.493.813.214.812-.302.813-.957.813-1.618.812-2.347.813-3.046 1.626-7.584 4.063-21.394 1.626-6.566 1.625-4.88 1.626-3.887 1.625-3.12.813-1.204.812-.937.813-.66.813-.378.813-.099.812.172.813.43.813.668.812.887 1.626 2.329 1.625 2.908 2.439 4.997 4.876 10.204 2.438 4.547 1.625 2.689 1.626 2.375 1.625 2.037 1.626 1.694 1.625 1.363 1.626 1.063 1.625.81 1.626.61 2.438.656 3.25.605 8.94 1.49 2.439.616.812.313 1.626.956 2.438 1.809 4.064 3.357 4.876 4.034 2.438 1.742 2.438 1.42 2.438 1.198.813.254 1.626-.092 1.625-.408 1.625-.793 1.626-1.187.813-.72 1.625-2.18 1.625-2.267.813-.94.813-.761.813-.577.812-.4.813-.241 1.625-.112 1.626.23 4.064.779 1.625.097 1.625-.01 1.626-.146.813.207.812.564.813.882 1.625 2.47 1.626 2.94 2.438 5.12.813 1.705.812 1.26.813.912.813.645.813.394 1.625.36 1.626.074 2.438-.143.812-.462.813-.927.813-1.466.813-2.033.812-2.532 1.626-6.129 4.876-19.906 1.625-5.511 1.626-4.606 1.625-3.776 1.626-3.113 1.625-2.547 1.626-2.01 1.625-1.508 1.626-1.053 1.625-.6.813-.115.812.02.813.164.813.325.813.502.812.703.813.899.813 1.098 1.625 2.794 1.626 3.542 2.438 6.168 1.625 4.547 3.251 9.395 1.626 3.898 1.625 3.15 1.625 2.704.813 1.13.813.807.813.41.812.073.813-.191.813-.385 1.625-1.15 1.626-1.48 1.625-1.735 1.626-1.975 1.625-2.326 1.625-2.848 4.877-9.426 4.063-7.139.813-1.106.813-.902.812-.702.813-.503.813-.307.813-.118.812.064.813.238.813.402.813.555.812.72 1.626 1.954 1.625 2.416 2.438 4.095 6.502 11.254 1.625 2.464.813.911.813.676.813.435.812.215.813.035 1.626-.297 2.438-.844 4.063-1.386 4.877-1.324 6.501-1.795 3.251-1.141 1.626-.862 1.625-1.282 3.251-2.996 1.625-.78 1.626-.448 1.625-.182 1.626.076 1.625.334 1.626.577 1.625.798 1.626.993 2.438 1.78 1.625 1.284.813.466.813.265 1.625.154 1.625-.146 1.626-.338 2.438-.777 1.625-.502 1.626-.235 1.625-.009 6.502.255 17.067.11 9.753-.11 9.753-.066 17.067.097 6.501-.12 6.502.15 5.69.071 15.44-.12 6.503.125 6.501-.16 5.69-.059 14.628.137 7.315-.143 6.502.162 5.689.054 14.629-.132 7.314.139 6.502-.164 5.689-.05 14.629.129 7.314-.137 6.502.165 5.69.048 14.628-.128 7.315.136 7.314-.186 5.69-.012 12.19.157 9.753-.17 11.378.2h0" clip-path="url(#prefix__p129d464f72)" fill="none" stroke="#9467bd" stroke-width="1.5" stroke-linecap="square" id="prefix__line2d_83"/><path d="M138.436 673.276h608.728" clip-path="url(#prefix__p129d464f72)" fill="none" stroke-dasharray="5.55 2.4" stroke="#8c564b" stroke-opacity=".7" stroke-width="1.5" id="prefix__line2d_84"/><path d="M138.436 747.557l.813-152.163 1.626-10.467 4.876-34.67 1.625-10.18.813-4.37.813-3.645.812-2.813.813-1.953.813-1.189.813-.522.812.045.813.397 2.438 1.855 1.626 1.168 1.625.856 1.626.463 1.625.313.813.286.812.451.813.64.813.823 1.625 2.109 1.626 2.606 1.625 3.02 2.438 4.657.813 1.158.813.832.812.474.813.113.813-.264.813-.613.812-.924.813-1.274.813-1.602 1.625-3.915 2.438-6.393.813-1.723.813-1.17.813-.556.812-.02.813.394.813.69 1.625 1.889 3.251 4.157 1.625 1.713 1.626 1.324 1.625.901 1.626.468 1.625.03 1.626-.376 1.625-.728 1.626-1.01 2.438-1.864 5.689-4.598 2.438-1.608 2.438-1.276 2.438-.955 2.438-.674 2.439-.436 3.25-.292 3.251-.057 4.064.152 2.438.223 2.438.44 3.251.787 3.251.986 3.25 1.214 2.439 1.104 1.625.904 1.626 1.143 1.625 1.428 2.439 2.607 1.625 2.145 1.625 2.667 1.626 3.32 1.625 3.683.813 1.329.813.908.812.507.813.14.813-.182.813-.459.812-.687 1.626-1.898 1.625-2.485 2.438-4.337 4.877-8.943 1.625-2.557.813-1.093.813-.867.812-.596.813-.38.813-.21.812-.047 1.626.269 1.625.67 2.438 1.43.813.28 1.626.22 1.625-.051 4.876-.457 4.064-.101.813.224.812.425.813.625 1.626 1.73 2.438 3.21 2.438 3.129 2.438 2.656 2.438 2.241 2.438 1.83 1.626 1.002 1.625.808 2.438.91 2.439.65 2.438.444 1.625.133 1.626-.139.812-.232.813-.376.813-.545.813-.727.812-.918.813-1.118 1.625-2.81 1.626-3.462 3.25-7.91 1.626-3.876.813-1.426.813-.835.812-.42.813-.132.813.06 1.625.422 3.251 1.015 1.626.302 1.625.07 1.625-.258.813-.285.813-.405 1.625-1.04.813-.204h.813l.812.165 1.626.723 1.625 1.115 3.251 2.432 1.626.973 1.625.705 1.626.439 1.625.146 1.625-.175 1.626-.42 2.438-.95 2.438-1.22 2.438-1.48 1.626-1.234.812-.73.813-.397.813-.185 1.625.024 3.251.568 3.251.49 3.251.254 6.502.212 5.689-.021 3.25-.186 1.626-.295 1.626-.583.812-.407.813-.18 1.625-.05 2.439.296 4.876.667 2.438.092 2.438-.144 1.626-.246 3.25-.707 2.439.005 4.876.103 6.502-.147h282.014" clip-path="url(#prefix__p129d464f72)" fill="none" stroke="#e377c2" stroke-width="1.5" stroke-linecap="square" id="prefix__line2d_85"/><path d="M138.436 524.714h608.728" clip-path="url(#prefix__p129d464f72)" fill="none" stroke-dasharray="5.55 2.4" stroke="#7f7f7f" stroke-opacity=".7" stroke-width="1.5" id="prefix__line2d_86"/><path d="M108 768.96V513.083" fill="none" stroke="#000" stroke-width=".8" stroke-linecap="square" id="prefix__patch_9"/><path d="M777.6 768.96V513.083" fill="none" stroke="#000" stroke-width=".8" stroke-linecap="square" id="prefix__patch_10"/><path d="M108 768.96h669.6" fill="none" stroke="#000" stroke-width=".8" stroke-linecap="square" id="prefix__patch_11"/><path d="M108 513.083h669.6" fill="none" stroke="#000" stroke-width=".8" stroke-linecap="square" id="prefix__patch_12"/><g transform="matrix(.12 0 0 -.12 307.427 507.083)" id="prefix__text_45"><use xlink:href="#prefix__DejaVuSans-4f"/><use xlink:href="#prefix__DejaVuSans-72" x="78.711"/><use xlink:href="#prefix__DejaVuSans-69" x="119.824"/><use xlink:href="#prefix__DejaVuSans-65" x="147.607"/><use xlink:href="#prefix__DejaVuSans-6e" x="209.131"/><use xlink:href="#prefix__DejaVuSans-74" x="272.51"/><use xlink:href="#prefix__DejaVuSans-61" x="311.719"/><use xlink:href="#prefix__DejaVuSans-74" x="372.998"/><use xlink:href="#prefix__DejaVuSans-69" x="412.207"/><use xlink:href="#prefix__DejaVuSans-6f" x="439.99"/><use xlink:href="#prefix__DejaVuSans-6e" x="501.172"/><use xlink:href="#prefix__DejaVuSans-20" x="564.551"/><use xlink:href="#prefix__DejaVuSans-6f" x="596.338"/><use xlink:href="#prefix__DejaVuSans-66" x="657.52"/><use xlink:href="#prefix__DejaVuSans-20" x="692.725"/><use xlink:href="#prefix__DejaVuSans-45" x="724.512"/><use xlink:href="#prefix__DejaVuSans-6e" x="787.695"/><use xlink:href="#prefix__DejaVuSans-64" x="851.074"/><use xlink:href="#prefix__DejaVuSans-2d" x="914.551"/><use xlink:href="#prefix__DejaVuSans-45" x="950.635"/><use xlink:href="#prefix__DejaVuSans-66" x="1013.818"/><use xlink:href="#prefix__DejaVuSans-66" x="1049.023"/><use xlink:href="#prefix__DejaVuSans-65" x="1084.229"/><use xlink:href="#prefix__DejaVuSans-63" x="1145.752"/><use xlink:href="#prefix__DejaVuSans-74" x="1200.732"/><use xlink:href="#prefix__DejaVuSans-6f" x="1239.941"/><use xlink:href="#prefix__DejaVuSans-72" x="1301.123"/><use xlink:href="#prefix__DejaVuSans-20" x="1342.236"/><use xlink:href="#prefix__DejaVuSans-61" x="1374.023"/><use xlink:href="#prefix__DejaVuSans-6e" x="1435.303"/><use xlink:href="#prefix__DejaVuSans-64" x="1498.682"/><use xlink:href="#prefix__DejaVuSans-20" x="1562.158"/><use xlink:href="#prefix__DejaVuSans-44" x="1593.945"/><use xlink:href="#prefix__DejaVuSans-65" x="1670.947"/><use xlink:href="#prefix__DejaVuSans-73" x="1732.471"/><use xlink:href="#prefix__DejaVuSans-69" x="1784.57"/><use xlink:href="#prefix__DejaVuSans-72" x="1812.354"/><use xlink:href="#prefix__DejaVuSans-65" x="1851.217"/><use xlink:href="#prefix__DejaVuSans-64" x="1912.74"/><use xlink:href="#prefix__DejaVuSans-20" x="1976.217"/><use xlink:href="#prefix__DejaVuSans-50" x="2008.004"/><use xlink:href="#prefix__DejaVuSans-6f" x="2064.682"/><use xlink:href="#prefix__DejaVuSans-69" x="2125.863"/><use xlink:href="#prefix__DejaVuSans-6e" x="2153.646"/><use xlink:href="#prefix__DejaVuSans-74" x="2217.025"/></g><g id="prefix__legend_2"><path d="M378.131 763.96H770.6q2 0 2-2v-28.356q0-2-2-2H378.131q-2 0-2 2v28.356q0 2 2 2z" fill="#fff" opacity=".8" stroke="#ccc" id="prefix__patch_13"/><path d="M380.131 739.702h20" fill="none" stroke="#1f77b4" stroke-width="1.5" stroke-linecap="square" id="prefix__line2d_87"/><g transform="matrix(.1 0 0 -.1 408.131 743.202)" id="prefix__text_46"><defs><path id="prefix__DejaVuSans-71" d="M947 1747q0-634 261-995t717-361q456 0 718 361 263 361 263 995t-263 995q-262 361-718 361t-717-361q-261-361-261-995zM2906 525q-181-312-458-464-276-152-664-152-634 0-1033 506-398 507-398 1332t398 1331q399 506 1033 506 388 0 664-152 277-151 458-463v531h575v-4831h-575V525z" transform="scale(.01563)"/></defs><use xlink:href="#prefix__DejaVuSans-71"/><use xlink:href="#prefix__DejaVuSans-30" x="63.477"/></g><path d="M380.131 754.38h20" fill="none" stroke-dasharray="5.55 2.4" stroke="#ff7f0e" stroke-opacity=".7" stroke-width="1.5" id="prefix__line2d_88"/><g transform="matrix(.1 0 0 -.1 408.131 757.88)" id="prefix__text_47"><use xlink:href="#prefix__DejaVuSans-44"/><use xlink:href="#prefix__DejaVuSans-65" x="77.002"/><use xlink:href="#prefix__DejaVuSans-73" x="138.525"/><use xlink:href="#prefix__DejaVuSans-69" x="190.625"/><use xlink:href="#prefix__DejaVuSans-72" x="218.408"/><use xlink:href="#prefix__DejaVuSans-65" x="257.271"/><use xlink:href="#prefix__DejaVuSans-64" x="318.795"/><use xlink:href="#prefix__DejaVuSans-20" x="382.271"/><use xlink:href="#prefix__DejaVuSans-71" x="414.059"/><use xlink:href="#prefix__DejaVuSans-30" x="477.535"/></g><path d="M482.248 739.702h20" fill="none" stroke="#2ca02c" stroke-width="1.5" stroke-linecap="square" id="prefix__line2d_89"/><g transform="matrix(.1 0 0 -.1 510.248 743.202)" id="prefix__text_48"><use xlink:href="#prefix__DejaVuSans-71"/><use xlink:href="#prefix__DejaVuSans-31" x="63.477"/></g><path d="M482.248 754.38h20" fill="none" stroke-dasharray="5.55 2.4" stroke="#d62728" stroke-opacity=".7" stroke-width="1.5" id="prefix__line2d_90"/><g transform="matrix(.1 0 0 -.1 510.248 757.88)" id="prefix__text_49"><use xlink:href="#prefix__DejaVuSans-44"/><use xlink:href="#prefix__DejaVuSans-65" x="77.002"/><use xlink:href="#prefix__DejaVuSans-73" x="138.525"/><use xlink:href="#prefix__DejaVuSans-69" x="190.625"/><use xlink:href="#prefix__DejaVuSans-72" x="218.408"/><use xlink:href="#prefix__DejaVuSans-65" x="257.271"/><use xlink:href="#prefix__DejaVuSans-64" x="318.795"/><use xlink:href="#prefix__DejaVuSans-20" x="382.271"/><use xlink:href="#prefix__DejaVuSans-71" x="414.059"/><use xlink:href="#prefix__DejaVuSans-31" x="477.535"/></g><path d="M584.366 739.702h20" fill="none" stroke="#9467bd" stroke-width="1.5" stroke-linecap="square" id="prefix__line2d_91"/><g transform="matrix(.1 0 0 -.1 612.366 743.202)" id="prefix__text_50"><use xlink:href="#prefix__DejaVuSans-71"/><use xlink:href="#prefix__DejaVuSans-32" x="63.477"/></g><path d="M584.366 754.38h20" fill="none" stroke-dasharray="5.55 2.4" stroke="#8c564b" stroke-opacity=".7" stroke-width="1.5" id="prefix__line2d_92"/><g transform="matrix(.1 0 0 -.1 612.366 757.88)" id="prefix__text_51"><use xlink:href="#prefix__DejaVuSans-44"/><use xlink:href="#prefix__DejaVuSans-65" x="77.002"/><use xlink:href="#prefix__DejaVuSans-73" x="138.525"/><use xlink:href="#prefix__DejaVuSans-69" x="190.625"/><use xlink:href="#prefix__DejaVuSans-72" x="218.408"/><use xlink:href="#prefix__DejaVuSans-65" x="257.271"/><use xlink:href="#prefix__DejaVuSans-64" x="318.795"/><use xlink:href="#prefix__DejaVuSans-20" x="382.271"/><use xlink:href="#prefix__DejaVuSans-71" x="414.059"/><use xlink:href="#prefix__DejaVuSans-32" x="477.535"/></g><path d="M686.483 739.702h20" fill="none" stroke="#e377c2" stroke-width="1.5" stroke-linecap="square" id="prefix__line2d_93"/><g transform="matrix(.1 0 0 -.1 714.483 743.202)" id="prefix__text_52"><use xlink:href="#prefix__DejaVuSans-71"/><use xlink:href="#prefix__DejaVuSans-33" x="63.477"/></g><path d="M686.483 754.38h20" fill="none" stroke-dasharray="5.55 2.4" stroke="#7f7f7f" stroke-opacity=".7" stroke-width="1.5" id="prefix__line2d_94"/><g transform="matrix(.1 0 0 -.1 714.483 757.88)" id="prefix__text_53"><use xlink:href="#prefix__DejaVuSans-44"/><use xlink:href="#prefix__DejaVuSans-65" x="77.002"/><use xlink:href="#prefix__DejaVuSans-73" x="138.525"/><use xlink:href="#prefix__DejaVuSans-69" x="190.625"/><use xlink:href="#prefix__DejaVuSans-72" x="218.408"/><use xlink:href="#prefix__DejaVuSans-65" x="257.271"/><use xlink:href="#prefix__DejaVuSans-64" x="318.795"/><use xlink:href="#prefix__DejaVuSans-20" x="382.271"/><use xlink:href="#prefix__DejaVuSans-71" x="414.059"/><use xlink:href="#prefix__DejaVuSans-33" x="477.535"/></g></g></g></g><defs><clipPath id="prefix__p4f512c1fb7"><path d="M108 103.68h669.6v255.877H108z"/></clipPath><clipPath id="prefix__p129d464f72"><path d="M108 513.083h669.6V768.96H108z"/></clipPath></defs></svg>